G04 #@! TF.FileFunction,Copper,L1,Top,Signal*
%FSLAX46Y46*%
G04 Gerber Fmt 4.6, Leading zero omitted, Abs format (unit mm)*
G04 Created by KiCad (PCBNEW 4.0.0-rc1-stable) date 09/08/2017 17:43:47*
%MOMM*%
G01*
G04 APERTURE LIST*
%ADD10C,0.076200*%
%ADD11R,2.000000X1.600000*%
%ADD12R,1.700000X1.700000*%
%ADD13O,1.700000X1.700000*%
%ADD14C,1.524000*%
%ADD15C,0.609600*%
%ADD16C,0.254000*%
G04 APERTURE END LIST*
D10*
D11*
X197326000Y-75184000D03*
X193326000Y-75184000D03*
X185706000Y-75184000D03*
X189706000Y-75184000D03*
D12*
X180340000Y-78486000D03*
D13*
X177800000Y-78486000D03*
X175260000Y-78486000D03*
X172720000Y-78486000D03*
X170180000Y-78486000D03*
X167640000Y-78486000D03*
D14*
X149860000Y-100076000D03*
X152400000Y-100076000D03*
X195580000Y-100076000D03*
X198120000Y-100076000D03*
X198120000Y-72136000D03*
X195580000Y-72136000D03*
X193040000Y-72136000D03*
X190500000Y-72136000D03*
X187960000Y-72136000D03*
X185420000Y-72136000D03*
X182880000Y-72136000D03*
X180340000Y-72136000D03*
X177800000Y-72136000D03*
X175260000Y-72136000D03*
X172720000Y-72136000D03*
X170180000Y-72136000D03*
X167640000Y-72136000D03*
X165100000Y-72136000D03*
X162560000Y-72136000D03*
X160020000Y-72136000D03*
X157480000Y-72136000D03*
X154940000Y-72136000D03*
X152400000Y-72136000D03*
X149860000Y-72136000D03*
D15*
X198120000Y-72136000D02*
X198120000Y-74390000D01*
X198120000Y-74390000D02*
X197326000Y-75184000D01*
X195580000Y-72136000D02*
X195580000Y-72930000D01*
X195580000Y-72930000D02*
X193326000Y-75184000D01*
X185706000Y-75184000D02*
X182404000Y-78486000D01*
X182404000Y-78486000D02*
X180340000Y-78486000D01*
X185420000Y-72136000D02*
X185420000Y-74898000D01*
X185420000Y-74898000D02*
X185706000Y-75184000D01*
X190500000Y-72136000D02*
X190500000Y-74390000D01*
X190500000Y-74390000D02*
X189706000Y-75184000D01*
X180340000Y-72136000D02*
X177800000Y-74676000D01*
X177800000Y-74676000D02*
X177800000Y-78486000D01*
X177800000Y-72136000D02*
X175260000Y-74676000D01*
X175260000Y-74676000D02*
X175260000Y-78486000D01*
X152400000Y-72136000D02*
X161798000Y-81534000D01*
X169672000Y-81534000D02*
X172720000Y-78486000D01*
X161798000Y-81534000D02*
X169672000Y-81534000D01*
X154940000Y-72136000D02*
X158750000Y-75946000D01*
X167640000Y-75946000D02*
X170180000Y-78486000D01*
X158750000Y-75946000D02*
X167640000Y-75946000D01*
D16*
G36*
X199848400Y-101296400D02*
X148639600Y-101296400D01*
X148639600Y-100282238D01*
X148818420Y-100282238D01*
X148976629Y-100665135D01*
X149269324Y-100958341D01*
X149651944Y-101117219D01*
X150066238Y-101117580D01*
X150449135Y-100959371D01*
X150742341Y-100666676D01*
X150901219Y-100284056D01*
X150901220Y-100282238D01*
X151358420Y-100282238D01*
X151516629Y-100665135D01*
X151809324Y-100958341D01*
X152191944Y-101117219D01*
X152606238Y-101117580D01*
X152989135Y-100959371D01*
X153282341Y-100666676D01*
X153441219Y-100284056D01*
X153441220Y-100282238D01*
X194538420Y-100282238D01*
X194696629Y-100665135D01*
X194989324Y-100958341D01*
X195371944Y-101117219D01*
X195786238Y-101117580D01*
X196169135Y-100959371D01*
X196462341Y-100666676D01*
X196621219Y-100284056D01*
X196621220Y-100282238D01*
X197078420Y-100282238D01*
X197236629Y-100665135D01*
X197529324Y-100958341D01*
X197911944Y-101117219D01*
X198326238Y-101117580D01*
X198709135Y-100959371D01*
X199002341Y-100666676D01*
X199161219Y-100284056D01*
X199161580Y-99869762D01*
X199003371Y-99486865D01*
X198710676Y-99193659D01*
X198328056Y-99034781D01*
X197913762Y-99034420D01*
X197530865Y-99192629D01*
X197237659Y-99485324D01*
X197078781Y-99867944D01*
X197078420Y-100282238D01*
X196621220Y-100282238D01*
X196621580Y-99869762D01*
X196463371Y-99486865D01*
X196170676Y-99193659D01*
X195788056Y-99034781D01*
X195373762Y-99034420D01*
X194990865Y-99192629D01*
X194697659Y-99485324D01*
X194538781Y-99867944D01*
X194538420Y-100282238D01*
X153441220Y-100282238D01*
X153441580Y-99869762D01*
X153283371Y-99486865D01*
X152990676Y-99193659D01*
X152608056Y-99034781D01*
X152193762Y-99034420D01*
X151810865Y-99192629D01*
X151517659Y-99485324D01*
X151358781Y-99867944D01*
X151358420Y-100282238D01*
X150901220Y-100282238D01*
X150901580Y-99869762D01*
X150743371Y-99486865D01*
X150450676Y-99193659D01*
X150068056Y-99034781D01*
X149653762Y-99034420D01*
X149270865Y-99192629D01*
X148977659Y-99485324D01*
X148818781Y-99867944D01*
X148818420Y-100282238D01*
X148639600Y-100282238D01*
X148639600Y-86224196D01*
X151028274Y-86224196D01*
X151313793Y-86915204D01*
X151842015Y-87444349D01*
X152532524Y-87731073D01*
X153280196Y-87731726D01*
X153971204Y-87446207D01*
X154500349Y-86917985D01*
X154787073Y-86227476D01*
X154787726Y-85479804D01*
X154502207Y-84788796D01*
X153973985Y-84259651D01*
X153283476Y-83972927D01*
X152535804Y-83972274D01*
X151844796Y-84257793D01*
X151315651Y-84786015D01*
X151028927Y-85476524D01*
X151028274Y-86224196D01*
X148639600Y-86224196D01*
X148639600Y-72342238D01*
X148818420Y-72342238D01*
X148976629Y-72725135D01*
X149269324Y-73018341D01*
X149651944Y-73177219D01*
X150066238Y-73177580D01*
X150449135Y-73019371D01*
X150742341Y-72726676D01*
X150901219Y-72344056D01*
X150901220Y-72342238D01*
X151358420Y-72342238D01*
X151516629Y-72725135D01*
X151809324Y-73018341D01*
X152191944Y-73177219D01*
X152606238Y-73177580D01*
X152612718Y-73174902D01*
X161384908Y-81947092D01*
X161574436Y-82073730D01*
X161798000Y-82118200D01*
X169672000Y-82118200D01*
X169895564Y-82073730D01*
X170085092Y-81947092D01*
X172448635Y-79583549D01*
X172720000Y-79637526D01*
X173152203Y-79551556D01*
X173518606Y-79306732D01*
X173763430Y-78940329D01*
X173849400Y-78508126D01*
X173849400Y-78463874D01*
X174130600Y-78463874D01*
X174130600Y-78508126D01*
X174216570Y-78940329D01*
X174461394Y-79306732D01*
X174827797Y-79551556D01*
X175260000Y-79637526D01*
X175692203Y-79551556D01*
X176058606Y-79306732D01*
X176303430Y-78940329D01*
X176389400Y-78508126D01*
X176389400Y-78463874D01*
X176670600Y-78463874D01*
X176670600Y-78508126D01*
X176756570Y-78940329D01*
X177001394Y-79306732D01*
X177367797Y-79551556D01*
X177800000Y-79637526D01*
X178232203Y-79551556D01*
X178598606Y-79306732D01*
X178843430Y-78940329D01*
X178929400Y-78508126D01*
X178929400Y-78463874D01*
X178843430Y-78031671D01*
X178598606Y-77665268D01*
X178554804Y-77636000D01*
X179205127Y-77636000D01*
X179205127Y-79336000D01*
X179224609Y-79439539D01*
X179285801Y-79534634D01*
X179379168Y-79598429D01*
X179490000Y-79620873D01*
X181190000Y-79620873D01*
X181293539Y-79601391D01*
X181388634Y-79540199D01*
X181452429Y-79446832D01*
X181474873Y-79336000D01*
X181474873Y-79070200D01*
X182404000Y-79070200D01*
X182627564Y-79025730D01*
X182817092Y-78899092D01*
X185447311Y-76268873D01*
X186706000Y-76268873D01*
X186809539Y-76249391D01*
X186904634Y-76188199D01*
X186968429Y-76094832D01*
X186990873Y-75984000D01*
X186990873Y-74384000D01*
X188421127Y-74384000D01*
X188421127Y-75984000D01*
X188440609Y-76087539D01*
X188501801Y-76182634D01*
X188595168Y-76246429D01*
X188706000Y-76268873D01*
X190706000Y-76268873D01*
X190809539Y-76249391D01*
X190904634Y-76188199D01*
X190968429Y-76094832D01*
X190990873Y-75984000D01*
X190990873Y-74686684D01*
X191039730Y-74613564D01*
X191039731Y-74613563D01*
X191084201Y-74390000D01*
X191084200Y-74389995D01*
X191084200Y-74384000D01*
X192041127Y-74384000D01*
X192041127Y-75984000D01*
X192060609Y-76087539D01*
X192121801Y-76182634D01*
X192215168Y-76246429D01*
X192326000Y-76268873D01*
X194326000Y-76268873D01*
X194429539Y-76249391D01*
X194524634Y-76188199D01*
X194588429Y-76094832D01*
X194610873Y-75984000D01*
X194610873Y-74725311D01*
X194952184Y-74384000D01*
X196041127Y-74384000D01*
X196041127Y-75984000D01*
X196060609Y-76087539D01*
X196121801Y-76182634D01*
X196215168Y-76246429D01*
X196326000Y-76268873D01*
X198326000Y-76268873D01*
X198429539Y-76249391D01*
X198524634Y-76188199D01*
X198588429Y-76094832D01*
X198610873Y-75984000D01*
X198610873Y-74686684D01*
X198659730Y-74613564D01*
X198659731Y-74613563D01*
X198704201Y-74390000D01*
X198704200Y-74389995D01*
X198704200Y-73021410D01*
X198709135Y-73019371D01*
X199002341Y-72726676D01*
X199161219Y-72344056D01*
X199161580Y-71929762D01*
X199003371Y-71546865D01*
X198710676Y-71253659D01*
X198328056Y-71094781D01*
X197913762Y-71094420D01*
X197530865Y-71252629D01*
X197237659Y-71545324D01*
X197078781Y-71927944D01*
X197078420Y-72342238D01*
X197236629Y-72725135D01*
X197529324Y-73018341D01*
X197535800Y-73021030D01*
X197535800Y-74099127D01*
X196326000Y-74099127D01*
X196222461Y-74118609D01*
X196127366Y-74179801D01*
X196063571Y-74273168D01*
X196041127Y-74384000D01*
X194952184Y-74384000D01*
X195993092Y-73343092D01*
X196103924Y-73177219D01*
X196119730Y-73153564D01*
X196144389Y-73029596D01*
X196169135Y-73019371D01*
X196462341Y-72726676D01*
X196621219Y-72344056D01*
X196621580Y-71929762D01*
X196463371Y-71546865D01*
X196170676Y-71253659D01*
X195788056Y-71094781D01*
X195373762Y-71094420D01*
X194990865Y-71252629D01*
X194697659Y-71545324D01*
X194538781Y-71927944D01*
X194538420Y-72342238D01*
X194696629Y-72725135D01*
X194827541Y-72856275D01*
X193584689Y-74099127D01*
X192326000Y-74099127D01*
X192222461Y-74118609D01*
X192127366Y-74179801D01*
X192063571Y-74273168D01*
X192041127Y-74384000D01*
X191084200Y-74384000D01*
X191084200Y-73021410D01*
X191089135Y-73019371D01*
X191215162Y-72893563D01*
X192462042Y-72893563D01*
X192553789Y-73021276D01*
X192929580Y-73139954D01*
X193322182Y-73105788D01*
X193526211Y-73021276D01*
X193617958Y-72893563D01*
X193040000Y-72315605D01*
X192462042Y-72893563D01*
X191215162Y-72893563D01*
X191382341Y-72726676D01*
X191541219Y-72344056D01*
X191541496Y-72025580D01*
X192036046Y-72025580D01*
X192070212Y-72418182D01*
X192154724Y-72622211D01*
X192282437Y-72713958D01*
X192860395Y-72136000D01*
X193219605Y-72136000D01*
X193797563Y-72713958D01*
X193925276Y-72622211D01*
X194043954Y-72246420D01*
X194009788Y-71853818D01*
X193925276Y-71649789D01*
X193797563Y-71558042D01*
X193219605Y-72136000D01*
X192860395Y-72136000D01*
X192282437Y-71558042D01*
X192154724Y-71649789D01*
X192036046Y-72025580D01*
X191541496Y-72025580D01*
X191541580Y-71929762D01*
X191383371Y-71546865D01*
X191215237Y-71378437D01*
X192462042Y-71378437D01*
X193040000Y-71956395D01*
X193617958Y-71378437D01*
X193526211Y-71250724D01*
X193150420Y-71132046D01*
X192757818Y-71166212D01*
X192553789Y-71250724D01*
X192462042Y-71378437D01*
X191215237Y-71378437D01*
X191090676Y-71253659D01*
X190708056Y-71094781D01*
X190293762Y-71094420D01*
X189910865Y-71252629D01*
X189617659Y-71545324D01*
X189458781Y-71927944D01*
X189458420Y-72342238D01*
X189616629Y-72725135D01*
X189909324Y-73018341D01*
X189915800Y-73021030D01*
X189915800Y-74099127D01*
X188706000Y-74099127D01*
X188602461Y-74118609D01*
X188507366Y-74179801D01*
X188443571Y-74273168D01*
X188421127Y-74384000D01*
X186990873Y-74384000D01*
X186971391Y-74280461D01*
X186910199Y-74185366D01*
X186816832Y-74121571D01*
X186706000Y-74099127D01*
X186004200Y-74099127D01*
X186004200Y-73021410D01*
X186009135Y-73019371D01*
X186302341Y-72726676D01*
X186461219Y-72344056D01*
X186461220Y-72342238D01*
X186918420Y-72342238D01*
X187076629Y-72725135D01*
X187369324Y-73018341D01*
X187751944Y-73177219D01*
X188166238Y-73177580D01*
X188549135Y-73019371D01*
X188842341Y-72726676D01*
X189001219Y-72344056D01*
X189001580Y-71929762D01*
X188843371Y-71546865D01*
X188550676Y-71253659D01*
X188168056Y-71094781D01*
X187753762Y-71094420D01*
X187370865Y-71252629D01*
X187077659Y-71545324D01*
X186918781Y-71927944D01*
X186918420Y-72342238D01*
X186461220Y-72342238D01*
X186461580Y-71929762D01*
X186303371Y-71546865D01*
X186010676Y-71253659D01*
X185628056Y-71094781D01*
X185213762Y-71094420D01*
X184830865Y-71252629D01*
X184537659Y-71545324D01*
X184378781Y-71927944D01*
X184378420Y-72342238D01*
X184536629Y-72725135D01*
X184829324Y-73018341D01*
X184835800Y-73021030D01*
X184835800Y-74099127D01*
X184706000Y-74099127D01*
X184602461Y-74118609D01*
X184507366Y-74179801D01*
X184443571Y-74273168D01*
X184421127Y-74384000D01*
X184421127Y-75642689D01*
X182162016Y-77901800D01*
X181474873Y-77901800D01*
X181474873Y-77636000D01*
X181455391Y-77532461D01*
X181394199Y-77437366D01*
X181300832Y-77373571D01*
X181190000Y-77351127D01*
X179490000Y-77351127D01*
X179386461Y-77370609D01*
X179291366Y-77431801D01*
X179227571Y-77525168D01*
X179205127Y-77636000D01*
X178554804Y-77636000D01*
X178384200Y-77522006D01*
X178384200Y-74917984D01*
X180127012Y-73175171D01*
X180131944Y-73177219D01*
X180546238Y-73177580D01*
X180929135Y-73019371D01*
X181055162Y-72893563D01*
X182302042Y-72893563D01*
X182393789Y-73021276D01*
X182769580Y-73139954D01*
X183162182Y-73105788D01*
X183366211Y-73021276D01*
X183457958Y-72893563D01*
X182880000Y-72315605D01*
X182302042Y-72893563D01*
X181055162Y-72893563D01*
X181222341Y-72726676D01*
X181381219Y-72344056D01*
X181381496Y-72025580D01*
X181876046Y-72025580D01*
X181910212Y-72418182D01*
X181994724Y-72622211D01*
X182122437Y-72713958D01*
X182700395Y-72136000D01*
X183059605Y-72136000D01*
X183637563Y-72713958D01*
X183765276Y-72622211D01*
X183883954Y-72246420D01*
X183849788Y-71853818D01*
X183765276Y-71649789D01*
X183637563Y-71558042D01*
X183059605Y-72136000D01*
X182700395Y-72136000D01*
X182122437Y-71558042D01*
X181994724Y-71649789D01*
X181876046Y-72025580D01*
X181381496Y-72025580D01*
X181381580Y-71929762D01*
X181223371Y-71546865D01*
X181055237Y-71378437D01*
X182302042Y-71378437D01*
X182880000Y-71956395D01*
X183457958Y-71378437D01*
X183366211Y-71250724D01*
X182990420Y-71132046D01*
X182597818Y-71166212D01*
X182393789Y-71250724D01*
X182302042Y-71378437D01*
X181055237Y-71378437D01*
X180930676Y-71253659D01*
X180548056Y-71094781D01*
X180133762Y-71094420D01*
X179750865Y-71252629D01*
X179457659Y-71545324D01*
X179298781Y-71927944D01*
X179298420Y-72342238D01*
X179301098Y-72348719D01*
X177386908Y-74262908D01*
X177260270Y-74452436D01*
X177215800Y-74676000D01*
X177215800Y-77522006D01*
X177001394Y-77665268D01*
X176756570Y-78031671D01*
X176670600Y-78463874D01*
X176389400Y-78463874D01*
X176303430Y-78031671D01*
X176058606Y-77665268D01*
X175844200Y-77522006D01*
X175844200Y-74917984D01*
X177587012Y-73175171D01*
X177591944Y-73177219D01*
X178006238Y-73177580D01*
X178389135Y-73019371D01*
X178682341Y-72726676D01*
X178841219Y-72344056D01*
X178841580Y-71929762D01*
X178683371Y-71546865D01*
X178390676Y-71253659D01*
X178008056Y-71094781D01*
X177593762Y-71094420D01*
X177210865Y-71252629D01*
X176917659Y-71545324D01*
X176758781Y-71927944D01*
X176758420Y-72342238D01*
X176761098Y-72348719D01*
X174846908Y-74262908D01*
X174720270Y-74452436D01*
X174675800Y-74676000D01*
X174675800Y-77522006D01*
X174461394Y-77665268D01*
X174216570Y-78031671D01*
X174130600Y-78463874D01*
X173849400Y-78463874D01*
X173763430Y-78031671D01*
X173518606Y-77665268D01*
X173152203Y-77420444D01*
X172720000Y-77334474D01*
X172287797Y-77420444D01*
X171921394Y-77665268D01*
X171676570Y-78031671D01*
X171590600Y-78463874D01*
X171590600Y-78508126D01*
X171637236Y-78742580D01*
X169430016Y-80949800D01*
X162039984Y-80949800D01*
X159869179Y-78778995D01*
X166601944Y-78778995D01*
X166793086Y-79153939D01*
X167113163Y-79427195D01*
X167347007Y-79524043D01*
X167513000Y-79499524D01*
X167513000Y-78613000D01*
X167767000Y-78613000D01*
X167767000Y-79499524D01*
X167932993Y-79524043D01*
X168166837Y-79427195D01*
X168486914Y-79153939D01*
X168678056Y-78778995D01*
X168653960Y-78613000D01*
X167767000Y-78613000D01*
X167513000Y-78613000D01*
X166626040Y-78613000D01*
X166601944Y-78778995D01*
X159869179Y-78778995D01*
X159283189Y-78193005D01*
X166601944Y-78193005D01*
X166626040Y-78359000D01*
X167513000Y-78359000D01*
X167513000Y-77472476D01*
X167767000Y-77472476D01*
X167767000Y-78359000D01*
X168653960Y-78359000D01*
X168678056Y-78193005D01*
X168486914Y-77818061D01*
X168166837Y-77544805D01*
X167932993Y-77447957D01*
X167767000Y-77472476D01*
X167513000Y-77472476D01*
X167347007Y-77447957D01*
X167113163Y-77544805D01*
X166793086Y-77818061D01*
X166601944Y-78193005D01*
X159283189Y-78193005D01*
X153439171Y-72348987D01*
X153441219Y-72344056D01*
X153441220Y-72342238D01*
X153898420Y-72342238D01*
X154056629Y-72725135D01*
X154349324Y-73018341D01*
X154731944Y-73177219D01*
X155146238Y-73177580D01*
X155152718Y-73174902D01*
X158336908Y-76359092D01*
X158526437Y-76485731D01*
X158750000Y-76530201D01*
X158750005Y-76530200D01*
X167398016Y-76530200D01*
X169097236Y-78229419D01*
X169050600Y-78463874D01*
X169050600Y-78508126D01*
X169136570Y-78940329D01*
X169381394Y-79306732D01*
X169747797Y-79551556D01*
X170180000Y-79637526D01*
X170612203Y-79551556D01*
X170978606Y-79306732D01*
X171223430Y-78940329D01*
X171309400Y-78508126D01*
X171309400Y-78463874D01*
X171223430Y-78031671D01*
X170978606Y-77665268D01*
X170612203Y-77420444D01*
X170180000Y-77334474D01*
X169908635Y-77388452D01*
X168053092Y-75532908D01*
X167863564Y-75406270D01*
X167640000Y-75361800D01*
X158991984Y-75361800D01*
X156523747Y-72893563D01*
X156902042Y-72893563D01*
X156993789Y-73021276D01*
X157369580Y-73139954D01*
X157762182Y-73105788D01*
X157966211Y-73021276D01*
X158057958Y-72893563D01*
X157480000Y-72315605D01*
X156902042Y-72893563D01*
X156523747Y-72893563D01*
X155979171Y-72348987D01*
X155981219Y-72344056D01*
X155981496Y-72025580D01*
X156476046Y-72025580D01*
X156510212Y-72418182D01*
X156594724Y-72622211D01*
X156722437Y-72713958D01*
X157300395Y-72136000D01*
X157659605Y-72136000D01*
X158237563Y-72713958D01*
X158365276Y-72622211D01*
X158453693Y-72342238D01*
X158978420Y-72342238D01*
X159136629Y-72725135D01*
X159429324Y-73018341D01*
X159811944Y-73177219D01*
X160226238Y-73177580D01*
X160609135Y-73019371D01*
X160902341Y-72726676D01*
X161061219Y-72344056D01*
X161061220Y-72342238D01*
X161518420Y-72342238D01*
X161676629Y-72725135D01*
X161969324Y-73018341D01*
X162351944Y-73177219D01*
X162766238Y-73177580D01*
X163149135Y-73019371D01*
X163442341Y-72726676D01*
X163601219Y-72344056D01*
X163601220Y-72342238D01*
X164058420Y-72342238D01*
X164216629Y-72725135D01*
X164509324Y-73018341D01*
X164891944Y-73177219D01*
X165306238Y-73177580D01*
X165689135Y-73019371D01*
X165982341Y-72726676D01*
X166141219Y-72344056D01*
X166141220Y-72342238D01*
X166598420Y-72342238D01*
X166756629Y-72725135D01*
X167049324Y-73018341D01*
X167431944Y-73177219D01*
X167846238Y-73177580D01*
X168229135Y-73019371D01*
X168522341Y-72726676D01*
X168681219Y-72344056D01*
X168681220Y-72342238D01*
X169138420Y-72342238D01*
X169296629Y-72725135D01*
X169589324Y-73018341D01*
X169971944Y-73177219D01*
X170386238Y-73177580D01*
X170769135Y-73019371D01*
X171062341Y-72726676D01*
X171221219Y-72344056D01*
X171221220Y-72342238D01*
X171678420Y-72342238D01*
X171836629Y-72725135D01*
X172129324Y-73018341D01*
X172511944Y-73177219D01*
X172926238Y-73177580D01*
X173309135Y-73019371D01*
X173602341Y-72726676D01*
X173761219Y-72344056D01*
X173761220Y-72342238D01*
X174218420Y-72342238D01*
X174376629Y-72725135D01*
X174669324Y-73018341D01*
X175051944Y-73177219D01*
X175466238Y-73177580D01*
X175849135Y-73019371D01*
X176142341Y-72726676D01*
X176301219Y-72344056D01*
X176301580Y-71929762D01*
X176143371Y-71546865D01*
X175850676Y-71253659D01*
X175468056Y-71094781D01*
X175053762Y-71094420D01*
X174670865Y-71252629D01*
X174377659Y-71545324D01*
X174218781Y-71927944D01*
X174218420Y-72342238D01*
X173761220Y-72342238D01*
X173761580Y-71929762D01*
X173603371Y-71546865D01*
X173310676Y-71253659D01*
X172928056Y-71094781D01*
X172513762Y-71094420D01*
X172130865Y-71252629D01*
X171837659Y-71545324D01*
X171678781Y-71927944D01*
X171678420Y-72342238D01*
X171221220Y-72342238D01*
X171221580Y-71929762D01*
X171063371Y-71546865D01*
X170770676Y-71253659D01*
X170388056Y-71094781D01*
X169973762Y-71094420D01*
X169590865Y-71252629D01*
X169297659Y-71545324D01*
X169138781Y-71927944D01*
X169138420Y-72342238D01*
X168681220Y-72342238D01*
X168681580Y-71929762D01*
X168523371Y-71546865D01*
X168230676Y-71253659D01*
X167848056Y-71094781D01*
X167433762Y-71094420D01*
X167050865Y-71252629D01*
X166757659Y-71545324D01*
X166598781Y-71927944D01*
X166598420Y-72342238D01*
X166141220Y-72342238D01*
X166141580Y-71929762D01*
X165983371Y-71546865D01*
X165690676Y-71253659D01*
X165308056Y-71094781D01*
X164893762Y-71094420D01*
X164510865Y-71252629D01*
X164217659Y-71545324D01*
X164058781Y-71927944D01*
X164058420Y-72342238D01*
X163601220Y-72342238D01*
X163601580Y-71929762D01*
X163443371Y-71546865D01*
X163150676Y-71253659D01*
X162768056Y-71094781D01*
X162353762Y-71094420D01*
X161970865Y-71252629D01*
X161677659Y-71545324D01*
X161518781Y-71927944D01*
X161518420Y-72342238D01*
X161061220Y-72342238D01*
X161061580Y-71929762D01*
X160903371Y-71546865D01*
X160610676Y-71253659D01*
X160228056Y-71094781D01*
X159813762Y-71094420D01*
X159430865Y-71252629D01*
X159137659Y-71545324D01*
X158978781Y-71927944D01*
X158978420Y-72342238D01*
X158453693Y-72342238D01*
X158483954Y-72246420D01*
X158449788Y-71853818D01*
X158365276Y-71649789D01*
X158237563Y-71558042D01*
X157659605Y-72136000D01*
X157300395Y-72136000D01*
X156722437Y-71558042D01*
X156594724Y-71649789D01*
X156476046Y-72025580D01*
X155981496Y-72025580D01*
X155981580Y-71929762D01*
X155823371Y-71546865D01*
X155655237Y-71378437D01*
X156902042Y-71378437D01*
X157480000Y-71956395D01*
X158057958Y-71378437D01*
X157966211Y-71250724D01*
X157590420Y-71132046D01*
X157197818Y-71166212D01*
X156993789Y-71250724D01*
X156902042Y-71378437D01*
X155655237Y-71378437D01*
X155530676Y-71253659D01*
X155148056Y-71094781D01*
X154733762Y-71094420D01*
X154350865Y-71252629D01*
X154057659Y-71545324D01*
X153898781Y-71927944D01*
X153898420Y-72342238D01*
X153441220Y-72342238D01*
X153441580Y-71929762D01*
X153283371Y-71546865D01*
X152990676Y-71253659D01*
X152608056Y-71094781D01*
X152193762Y-71094420D01*
X151810865Y-71252629D01*
X151517659Y-71545324D01*
X151358781Y-71927944D01*
X151358420Y-72342238D01*
X150901220Y-72342238D01*
X150901580Y-71929762D01*
X150743371Y-71546865D01*
X150450676Y-71253659D01*
X150068056Y-71094781D01*
X149653762Y-71094420D01*
X149270865Y-71252629D01*
X148977659Y-71545324D01*
X148818781Y-71927944D01*
X148818420Y-72342238D01*
X148639600Y-72342238D01*
X148639600Y-70407600D01*
X199848400Y-70407600D01*
X199848400Y-101296400D01*
X199848400Y-101296400D01*
G37*
X199848400Y-101296400D02*
X148639600Y-101296400D01*
X148639600Y-100282238D01*
X148818420Y-100282238D01*
X148976629Y-100665135D01*
X149269324Y-100958341D01*
X149651944Y-101117219D01*
X150066238Y-101117580D01*
X150449135Y-100959371D01*
X150742341Y-100666676D01*
X150901219Y-100284056D01*
X150901220Y-100282238D01*
X151358420Y-100282238D01*
X151516629Y-100665135D01*
X151809324Y-100958341D01*
X152191944Y-101117219D01*
X152606238Y-101117580D01*
X152989135Y-100959371D01*
X153282341Y-100666676D01*
X153441219Y-100284056D01*
X153441220Y-100282238D01*
X194538420Y-100282238D01*
X194696629Y-100665135D01*
X194989324Y-100958341D01*
X195371944Y-101117219D01*
X195786238Y-101117580D01*
X196169135Y-100959371D01*
X196462341Y-100666676D01*
X196621219Y-100284056D01*
X196621220Y-100282238D01*
X197078420Y-100282238D01*
X197236629Y-100665135D01*
X197529324Y-100958341D01*
X197911944Y-101117219D01*
X198326238Y-101117580D01*
X198709135Y-100959371D01*
X199002341Y-100666676D01*
X199161219Y-100284056D01*
X199161580Y-99869762D01*
X199003371Y-99486865D01*
X198710676Y-99193659D01*
X198328056Y-99034781D01*
X197913762Y-99034420D01*
X197530865Y-99192629D01*
X197237659Y-99485324D01*
X197078781Y-99867944D01*
X197078420Y-100282238D01*
X196621220Y-100282238D01*
X196621580Y-99869762D01*
X196463371Y-99486865D01*
X196170676Y-99193659D01*
X195788056Y-99034781D01*
X195373762Y-99034420D01*
X194990865Y-99192629D01*
X194697659Y-99485324D01*
X194538781Y-99867944D01*
X194538420Y-100282238D01*
X153441220Y-100282238D01*
X153441580Y-99869762D01*
X153283371Y-99486865D01*
X152990676Y-99193659D01*
X152608056Y-99034781D01*
X152193762Y-99034420D01*
X151810865Y-99192629D01*
X151517659Y-99485324D01*
X151358781Y-99867944D01*
X151358420Y-100282238D01*
X150901220Y-100282238D01*
X150901580Y-99869762D01*
X150743371Y-99486865D01*
X150450676Y-99193659D01*
X150068056Y-99034781D01*
X149653762Y-99034420D01*
X149270865Y-99192629D01*
X148977659Y-99485324D01*
X148818781Y-99867944D01*
X148818420Y-100282238D01*
X148639600Y-100282238D01*
X148639600Y-86224196D01*
X151028274Y-86224196D01*
X151313793Y-86915204D01*
X151842015Y-87444349D01*
X152532524Y-87731073D01*
X153280196Y-87731726D01*
X153971204Y-87446207D01*
X154500349Y-86917985D01*
X154787073Y-86227476D01*
X154787726Y-85479804D01*
X154502207Y-84788796D01*
X153973985Y-84259651D01*
X153283476Y-83972927D01*
X152535804Y-83972274D01*
X151844796Y-84257793D01*
X151315651Y-84786015D01*
X151028927Y-85476524D01*
X151028274Y-86224196D01*
X148639600Y-86224196D01*
X148639600Y-72342238D01*
X148818420Y-72342238D01*
X148976629Y-72725135D01*
X149269324Y-73018341D01*
X149651944Y-73177219D01*
X150066238Y-73177580D01*
X150449135Y-73019371D01*
X150742341Y-72726676D01*
X150901219Y-72344056D01*
X150901220Y-72342238D01*
X151358420Y-72342238D01*
X151516629Y-72725135D01*
X151809324Y-73018341D01*
X152191944Y-73177219D01*
X152606238Y-73177580D01*
X152612718Y-73174902D01*
X161384908Y-81947092D01*
X161574436Y-82073730D01*
X161798000Y-82118200D01*
X169672000Y-82118200D01*
X169895564Y-82073730D01*
X170085092Y-81947092D01*
X172448635Y-79583549D01*
X172720000Y-79637526D01*
X173152203Y-79551556D01*
X173518606Y-79306732D01*
X173763430Y-78940329D01*
X173849400Y-78508126D01*
X173849400Y-78463874D01*
X174130600Y-78463874D01*
X174130600Y-78508126D01*
X174216570Y-78940329D01*
X174461394Y-79306732D01*
X174827797Y-79551556D01*
X175260000Y-79637526D01*
X175692203Y-79551556D01*
X176058606Y-79306732D01*
X176303430Y-78940329D01*
X176389400Y-78508126D01*
X176389400Y-78463874D01*
X176670600Y-78463874D01*
X176670600Y-78508126D01*
X176756570Y-78940329D01*
X177001394Y-79306732D01*
X177367797Y-79551556D01*
X177800000Y-79637526D01*
X178232203Y-79551556D01*
X178598606Y-79306732D01*
X178843430Y-78940329D01*
X178929400Y-78508126D01*
X178929400Y-78463874D01*
X178843430Y-78031671D01*
X178598606Y-77665268D01*
X178554804Y-77636000D01*
X179205127Y-77636000D01*
X179205127Y-79336000D01*
X179224609Y-79439539D01*
X179285801Y-79534634D01*
X179379168Y-79598429D01*
X179490000Y-79620873D01*
X181190000Y-79620873D01*
X181293539Y-79601391D01*
X181388634Y-79540199D01*
X181452429Y-79446832D01*
X181474873Y-79336000D01*
X181474873Y-79070200D01*
X182404000Y-79070200D01*
X182627564Y-79025730D01*
X182817092Y-78899092D01*
X185447311Y-76268873D01*
X186706000Y-76268873D01*
X186809539Y-76249391D01*
X186904634Y-76188199D01*
X186968429Y-76094832D01*
X186990873Y-75984000D01*
X186990873Y-74384000D01*
X188421127Y-74384000D01*
X188421127Y-75984000D01*
X188440609Y-76087539D01*
X188501801Y-76182634D01*
X188595168Y-76246429D01*
X188706000Y-76268873D01*
X190706000Y-76268873D01*
X190809539Y-76249391D01*
X190904634Y-76188199D01*
X190968429Y-76094832D01*
X190990873Y-75984000D01*
X190990873Y-74686684D01*
X191039730Y-74613564D01*
X191039731Y-74613563D01*
X191084201Y-74390000D01*
X191084200Y-74389995D01*
X191084200Y-74384000D01*
X192041127Y-74384000D01*
X192041127Y-75984000D01*
X192060609Y-76087539D01*
X192121801Y-76182634D01*
X192215168Y-76246429D01*
X192326000Y-76268873D01*
X194326000Y-76268873D01*
X194429539Y-76249391D01*
X194524634Y-76188199D01*
X194588429Y-76094832D01*
X194610873Y-75984000D01*
X194610873Y-74725311D01*
X194952184Y-74384000D01*
X196041127Y-74384000D01*
X196041127Y-75984000D01*
X196060609Y-76087539D01*
X196121801Y-76182634D01*
X196215168Y-76246429D01*
X196326000Y-76268873D01*
X198326000Y-76268873D01*
X198429539Y-76249391D01*
X198524634Y-76188199D01*
X198588429Y-76094832D01*
X198610873Y-75984000D01*
X198610873Y-74686684D01*
X198659730Y-74613564D01*
X198659731Y-74613563D01*
X198704201Y-74390000D01*
X198704200Y-74389995D01*
X198704200Y-73021410D01*
X198709135Y-73019371D01*
X199002341Y-72726676D01*
X199161219Y-72344056D01*
X199161580Y-71929762D01*
X199003371Y-71546865D01*
X198710676Y-71253659D01*
X198328056Y-71094781D01*
X197913762Y-71094420D01*
X197530865Y-71252629D01*
X197237659Y-71545324D01*
X197078781Y-71927944D01*
X197078420Y-72342238D01*
X197236629Y-72725135D01*
X197529324Y-73018341D01*
X197535800Y-73021030D01*
X197535800Y-74099127D01*
X196326000Y-74099127D01*
X196222461Y-74118609D01*
X196127366Y-74179801D01*
X196063571Y-74273168D01*
X196041127Y-74384000D01*
X194952184Y-74384000D01*
X195993092Y-73343092D01*
X196103924Y-73177219D01*
X196119730Y-73153564D01*
X196144389Y-73029596D01*
X196169135Y-73019371D01*
X196462341Y-72726676D01*
X196621219Y-72344056D01*
X196621580Y-71929762D01*
X196463371Y-71546865D01*
X196170676Y-71253659D01*
X195788056Y-71094781D01*
X195373762Y-71094420D01*
X194990865Y-71252629D01*
X194697659Y-71545324D01*
X194538781Y-71927944D01*
X194538420Y-72342238D01*
X194696629Y-72725135D01*
X194827541Y-72856275D01*
X193584689Y-74099127D01*
X192326000Y-74099127D01*
X192222461Y-74118609D01*
X192127366Y-74179801D01*
X192063571Y-74273168D01*
X192041127Y-74384000D01*
X191084200Y-74384000D01*
X191084200Y-73021410D01*
X191089135Y-73019371D01*
X191215162Y-72893563D01*
X192462042Y-72893563D01*
X192553789Y-73021276D01*
X192929580Y-73139954D01*
X193322182Y-73105788D01*
X193526211Y-73021276D01*
X193617958Y-72893563D01*
X193040000Y-72315605D01*
X192462042Y-72893563D01*
X191215162Y-72893563D01*
X191382341Y-72726676D01*
X191541219Y-72344056D01*
X191541496Y-72025580D01*
X192036046Y-72025580D01*
X192070212Y-72418182D01*
X192154724Y-72622211D01*
X192282437Y-72713958D01*
X192860395Y-72136000D01*
X193219605Y-72136000D01*
X193797563Y-72713958D01*
X193925276Y-72622211D01*
X194043954Y-72246420D01*
X194009788Y-71853818D01*
X193925276Y-71649789D01*
X193797563Y-71558042D01*
X193219605Y-72136000D01*
X192860395Y-72136000D01*
X192282437Y-71558042D01*
X192154724Y-71649789D01*
X192036046Y-72025580D01*
X191541496Y-72025580D01*
X191541580Y-71929762D01*
X191383371Y-71546865D01*
X191215237Y-71378437D01*
X192462042Y-71378437D01*
X193040000Y-71956395D01*
X193617958Y-71378437D01*
X193526211Y-71250724D01*
X193150420Y-71132046D01*
X192757818Y-71166212D01*
X192553789Y-71250724D01*
X192462042Y-71378437D01*
X191215237Y-71378437D01*
X191090676Y-71253659D01*
X190708056Y-71094781D01*
X190293762Y-71094420D01*
X189910865Y-71252629D01*
X189617659Y-71545324D01*
X189458781Y-71927944D01*
X189458420Y-72342238D01*
X189616629Y-72725135D01*
X189909324Y-73018341D01*
X189915800Y-73021030D01*
X189915800Y-74099127D01*
X188706000Y-74099127D01*
X188602461Y-74118609D01*
X188507366Y-74179801D01*
X188443571Y-74273168D01*
X188421127Y-74384000D01*
X186990873Y-74384000D01*
X186971391Y-74280461D01*
X186910199Y-74185366D01*
X186816832Y-74121571D01*
X186706000Y-74099127D01*
X186004200Y-74099127D01*
X186004200Y-73021410D01*
X186009135Y-73019371D01*
X186302341Y-72726676D01*
X186461219Y-72344056D01*
X186461220Y-72342238D01*
X186918420Y-72342238D01*
X187076629Y-72725135D01*
X187369324Y-73018341D01*
X187751944Y-73177219D01*
X188166238Y-73177580D01*
X188549135Y-73019371D01*
X188842341Y-72726676D01*
X189001219Y-72344056D01*
X189001580Y-71929762D01*
X188843371Y-71546865D01*
X188550676Y-71253659D01*
X188168056Y-71094781D01*
X187753762Y-71094420D01*
X187370865Y-71252629D01*
X187077659Y-71545324D01*
X186918781Y-71927944D01*
X186918420Y-72342238D01*
X186461220Y-72342238D01*
X186461580Y-71929762D01*
X186303371Y-71546865D01*
X186010676Y-71253659D01*
X185628056Y-71094781D01*
X185213762Y-71094420D01*
X184830865Y-71252629D01*
X184537659Y-71545324D01*
X184378781Y-71927944D01*
X184378420Y-72342238D01*
X184536629Y-72725135D01*
X184829324Y-73018341D01*
X184835800Y-73021030D01*
X184835800Y-74099127D01*
X184706000Y-74099127D01*
X184602461Y-74118609D01*
X184507366Y-74179801D01*
X184443571Y-74273168D01*
X184421127Y-74384000D01*
X184421127Y-75642689D01*
X182162016Y-77901800D01*
X181474873Y-77901800D01*
X181474873Y-77636000D01*
X181455391Y-77532461D01*
X181394199Y-77437366D01*
X181300832Y-77373571D01*
X181190000Y-77351127D01*
X179490000Y-77351127D01*
X179386461Y-77370609D01*
X179291366Y-77431801D01*
X179227571Y-77525168D01*
X179205127Y-77636000D01*
X178554804Y-77636000D01*
X178384200Y-77522006D01*
X178384200Y-74917984D01*
X180127012Y-73175171D01*
X180131944Y-73177219D01*
X180546238Y-73177580D01*
X180929135Y-73019371D01*
X181055162Y-72893563D01*
X182302042Y-72893563D01*
X182393789Y-73021276D01*
X182769580Y-73139954D01*
X183162182Y-73105788D01*
X183366211Y-73021276D01*
X183457958Y-72893563D01*
X182880000Y-72315605D01*
X182302042Y-72893563D01*
X181055162Y-72893563D01*
X181222341Y-72726676D01*
X181381219Y-72344056D01*
X181381496Y-72025580D01*
X181876046Y-72025580D01*
X181910212Y-72418182D01*
X181994724Y-72622211D01*
X182122437Y-72713958D01*
X182700395Y-72136000D01*
X183059605Y-72136000D01*
X183637563Y-72713958D01*
X183765276Y-72622211D01*
X183883954Y-72246420D01*
X183849788Y-71853818D01*
X183765276Y-71649789D01*
X183637563Y-71558042D01*
X183059605Y-72136000D01*
X182700395Y-72136000D01*
X182122437Y-71558042D01*
X181994724Y-71649789D01*
X181876046Y-72025580D01*
X181381496Y-72025580D01*
X181381580Y-71929762D01*
X181223371Y-71546865D01*
X181055237Y-71378437D01*
X182302042Y-71378437D01*
X182880000Y-71956395D01*
X183457958Y-71378437D01*
X183366211Y-71250724D01*
X182990420Y-71132046D01*
X182597818Y-71166212D01*
X182393789Y-71250724D01*
X182302042Y-71378437D01*
X181055237Y-71378437D01*
X180930676Y-71253659D01*
X180548056Y-71094781D01*
X180133762Y-71094420D01*
X179750865Y-71252629D01*
X179457659Y-71545324D01*
X179298781Y-71927944D01*
X179298420Y-72342238D01*
X179301098Y-72348719D01*
X177386908Y-74262908D01*
X177260270Y-74452436D01*
X177215800Y-74676000D01*
X177215800Y-77522006D01*
X177001394Y-77665268D01*
X176756570Y-78031671D01*
X176670600Y-78463874D01*
X176389400Y-78463874D01*
X176303430Y-78031671D01*
X176058606Y-77665268D01*
X175844200Y-77522006D01*
X175844200Y-74917984D01*
X177587012Y-73175171D01*
X177591944Y-73177219D01*
X178006238Y-73177580D01*
X178389135Y-73019371D01*
X178682341Y-72726676D01*
X178841219Y-72344056D01*
X178841580Y-71929762D01*
X178683371Y-71546865D01*
X178390676Y-71253659D01*
X178008056Y-71094781D01*
X177593762Y-71094420D01*
X177210865Y-71252629D01*
X176917659Y-71545324D01*
X176758781Y-71927944D01*
X176758420Y-72342238D01*
X176761098Y-72348719D01*
X174846908Y-74262908D01*
X174720270Y-74452436D01*
X174675800Y-74676000D01*
X174675800Y-77522006D01*
X174461394Y-77665268D01*
X174216570Y-78031671D01*
X174130600Y-78463874D01*
X173849400Y-78463874D01*
X173763430Y-78031671D01*
X173518606Y-77665268D01*
X173152203Y-77420444D01*
X172720000Y-77334474D01*
X172287797Y-77420444D01*
X171921394Y-77665268D01*
X171676570Y-78031671D01*
X171590600Y-78463874D01*
X171590600Y-78508126D01*
X171637236Y-78742580D01*
X169430016Y-80949800D01*
X162039984Y-80949800D01*
X159869179Y-78778995D01*
X166601944Y-78778995D01*
X166793086Y-79153939D01*
X167113163Y-79427195D01*
X167347007Y-79524043D01*
X167513000Y-79499524D01*
X167513000Y-78613000D01*
X167767000Y-78613000D01*
X167767000Y-79499524D01*
X167932993Y-79524043D01*
X168166837Y-79427195D01*
X168486914Y-79153939D01*
X168678056Y-78778995D01*
X168653960Y-78613000D01*
X167767000Y-78613000D01*
X167513000Y-78613000D01*
X166626040Y-78613000D01*
X166601944Y-78778995D01*
X159869179Y-78778995D01*
X159283189Y-78193005D01*
X166601944Y-78193005D01*
X166626040Y-78359000D01*
X167513000Y-78359000D01*
X167513000Y-77472476D01*
X167767000Y-77472476D01*
X167767000Y-78359000D01*
X168653960Y-78359000D01*
X168678056Y-78193005D01*
X168486914Y-77818061D01*
X168166837Y-77544805D01*
X167932993Y-77447957D01*
X167767000Y-77472476D01*
X167513000Y-77472476D01*
X167347007Y-77447957D01*
X167113163Y-77544805D01*
X166793086Y-77818061D01*
X166601944Y-78193005D01*
X159283189Y-78193005D01*
X153439171Y-72348987D01*
X153441219Y-72344056D01*
X153441220Y-72342238D01*
X153898420Y-72342238D01*
X154056629Y-72725135D01*
X154349324Y-73018341D01*
X154731944Y-73177219D01*
X155146238Y-73177580D01*
X155152718Y-73174902D01*
X158336908Y-76359092D01*
X158526437Y-76485731D01*
X158750000Y-76530201D01*
X158750005Y-76530200D01*
X167398016Y-76530200D01*
X169097236Y-78229419D01*
X169050600Y-78463874D01*
X169050600Y-78508126D01*
X169136570Y-78940329D01*
X169381394Y-79306732D01*
X169747797Y-79551556D01*
X170180000Y-79637526D01*
X170612203Y-79551556D01*
X170978606Y-79306732D01*
X171223430Y-78940329D01*
X171309400Y-78508126D01*
X171309400Y-78463874D01*
X171223430Y-78031671D01*
X170978606Y-77665268D01*
X170612203Y-77420444D01*
X170180000Y-77334474D01*
X169908635Y-77388452D01*
X168053092Y-75532908D01*
X167863564Y-75406270D01*
X167640000Y-75361800D01*
X158991984Y-75361800D01*
X156523747Y-72893563D01*
X156902042Y-72893563D01*
X156993789Y-73021276D01*
X157369580Y-73139954D01*
X157762182Y-73105788D01*
X157966211Y-73021276D01*
X158057958Y-72893563D01*
X157480000Y-72315605D01*
X156902042Y-72893563D01*
X156523747Y-72893563D01*
X155979171Y-72348987D01*
X155981219Y-72344056D01*
X155981496Y-72025580D01*
X156476046Y-72025580D01*
X156510212Y-72418182D01*
X156594724Y-72622211D01*
X156722437Y-72713958D01*
X157300395Y-72136000D01*
X157659605Y-72136000D01*
X158237563Y-72713958D01*
X158365276Y-72622211D01*
X158453693Y-72342238D01*
X158978420Y-72342238D01*
X159136629Y-72725135D01*
X159429324Y-73018341D01*
X159811944Y-73177219D01*
X160226238Y-73177580D01*
X160609135Y-73019371D01*
X160902341Y-72726676D01*
X161061219Y-72344056D01*
X161061220Y-72342238D01*
X161518420Y-72342238D01*
X161676629Y-72725135D01*
X161969324Y-73018341D01*
X162351944Y-73177219D01*
X162766238Y-73177580D01*
X163149135Y-73019371D01*
X163442341Y-72726676D01*
X163601219Y-72344056D01*
X163601220Y-72342238D01*
X164058420Y-72342238D01*
X164216629Y-72725135D01*
X164509324Y-73018341D01*
X164891944Y-73177219D01*
X165306238Y-73177580D01*
X165689135Y-73019371D01*
X165982341Y-72726676D01*
X166141219Y-72344056D01*
X166141220Y-72342238D01*
X166598420Y-72342238D01*
X166756629Y-72725135D01*
X167049324Y-73018341D01*
X167431944Y-73177219D01*
X167846238Y-73177580D01*
X168229135Y-73019371D01*
X168522341Y-72726676D01*
X168681219Y-72344056D01*
X168681220Y-72342238D01*
X169138420Y-72342238D01*
X169296629Y-72725135D01*
X169589324Y-73018341D01*
X169971944Y-73177219D01*
X170386238Y-73177580D01*
X170769135Y-73019371D01*
X171062341Y-72726676D01*
X171221219Y-72344056D01*
X171221220Y-72342238D01*
X171678420Y-72342238D01*
X171836629Y-72725135D01*
X172129324Y-73018341D01*
X172511944Y-73177219D01*
X172926238Y-73177580D01*
X173309135Y-73019371D01*
X173602341Y-72726676D01*
X173761219Y-72344056D01*
X173761220Y-72342238D01*
X174218420Y-72342238D01*
X174376629Y-72725135D01*
X174669324Y-73018341D01*
X175051944Y-73177219D01*
X175466238Y-73177580D01*
X175849135Y-73019371D01*
X176142341Y-72726676D01*
X176301219Y-72344056D01*
X176301580Y-71929762D01*
X176143371Y-71546865D01*
X175850676Y-71253659D01*
X175468056Y-71094781D01*
X175053762Y-71094420D01*
X174670865Y-71252629D01*
X174377659Y-71545324D01*
X174218781Y-71927944D01*
X174218420Y-72342238D01*
X173761220Y-72342238D01*
X173761580Y-71929762D01*
X173603371Y-71546865D01*
X173310676Y-71253659D01*
X172928056Y-71094781D01*
X172513762Y-71094420D01*
X172130865Y-71252629D01*
X171837659Y-71545324D01*
X171678781Y-71927944D01*
X171678420Y-72342238D01*
X171221220Y-72342238D01*
X171221580Y-71929762D01*
X171063371Y-71546865D01*
X170770676Y-71253659D01*
X170388056Y-71094781D01*
X169973762Y-71094420D01*
X169590865Y-71252629D01*
X169297659Y-71545324D01*
X169138781Y-71927944D01*
X169138420Y-72342238D01*
X168681220Y-72342238D01*
X168681580Y-71929762D01*
X168523371Y-71546865D01*
X168230676Y-71253659D01*
X167848056Y-71094781D01*
X167433762Y-71094420D01*
X167050865Y-71252629D01*
X166757659Y-71545324D01*
X166598781Y-71927944D01*
X166598420Y-72342238D01*
X166141220Y-72342238D01*
X166141580Y-71929762D01*
X165983371Y-71546865D01*
X165690676Y-71253659D01*
X165308056Y-71094781D01*
X164893762Y-71094420D01*
X164510865Y-71252629D01*
X164217659Y-71545324D01*
X164058781Y-71927944D01*
X164058420Y-72342238D01*
X163601220Y-72342238D01*
X163601580Y-71929762D01*
X163443371Y-71546865D01*
X163150676Y-71253659D01*
X162768056Y-71094781D01*
X162353762Y-71094420D01*
X161970865Y-71252629D01*
X161677659Y-71545324D01*
X161518781Y-71927944D01*
X161518420Y-72342238D01*
X161061220Y-72342238D01*
X161061580Y-71929762D01*
X160903371Y-71546865D01*
X160610676Y-71253659D01*
X160228056Y-71094781D01*
X159813762Y-71094420D01*
X159430865Y-71252629D01*
X159137659Y-71545324D01*
X158978781Y-71927944D01*
X158978420Y-72342238D01*
X158453693Y-72342238D01*
X158483954Y-72246420D01*
X158449788Y-71853818D01*
X158365276Y-71649789D01*
X158237563Y-71558042D01*
X157659605Y-72136000D01*
X157300395Y-72136000D01*
X156722437Y-71558042D01*
X156594724Y-71649789D01*
X156476046Y-72025580D01*
X155981496Y-72025580D01*
X155981580Y-71929762D01*
X155823371Y-71546865D01*
X155655237Y-71378437D01*
X156902042Y-71378437D01*
X157480000Y-71956395D01*
X158057958Y-71378437D01*
X157966211Y-71250724D01*
X157590420Y-71132046D01*
X157197818Y-71166212D01*
X156993789Y-71250724D01*
X156902042Y-71378437D01*
X155655237Y-71378437D01*
X155530676Y-71253659D01*
X155148056Y-71094781D01*
X154733762Y-71094420D01*
X154350865Y-71252629D01*
X154057659Y-71545324D01*
X153898781Y-71927944D01*
X153898420Y-72342238D01*
X153441220Y-72342238D01*
X153441580Y-71929762D01*
X153283371Y-71546865D01*
X152990676Y-71253659D01*
X152608056Y-71094781D01*
X152193762Y-71094420D01*
X151810865Y-71252629D01*
X151517659Y-71545324D01*
X151358781Y-71927944D01*
X151358420Y-72342238D01*
X150901220Y-72342238D01*
X150901580Y-71929762D01*
X150743371Y-71546865D01*
X150450676Y-71253659D01*
X150068056Y-71094781D01*
X149653762Y-71094420D01*
X149270865Y-71252629D01*
X148977659Y-71545324D01*
X148818781Y-71927944D01*
X148818420Y-72342238D01*
X148639600Y-72342238D01*
X148639600Y-70407600D01*
X199848400Y-70407600D01*
X199848400Y-101296400D01*
M02*
