M48
;DRILL file {KiCad 4.0.0-rc1-stable} date 09/08/2017 17:43:49
;FORMAT={2:4/ absolute / inch / suppress leading zeros}
FMAT,2
INCH,TZ
T1C0.030
T2C0.039
T3C0.126
%
G90
G05
M72
T1
X59000Y-28400
X59000Y-39400
X60000Y-28400
X60000Y-39400
X61000Y-28400
X62000Y-28400
X63000Y-28400
X64000Y-28400
X65000Y-28400
X66000Y-28400
X67000Y-28400
X68000Y-28400
X69000Y-28400
X70000Y-28400
X71000Y-28400
X72000Y-28400
X73000Y-28400
X74000Y-28400
X75000Y-28400
X76000Y-28400
X77000Y-28400
X77000Y-39400
X78000Y-28400
X78000Y-39400
T2
X66000Y-30900
X67000Y-30900
X68000Y-30900
X69000Y-30900
X70000Y-30900
X71000Y-30900
T3
X60200Y-33800
X77000Y-33800
T0
M30
