G04 #@! TF.FileFunction,Copper,L2,Bot,Signal*
%FSLAX46Y46*%
G04 Gerber Fmt 4.6, Leading zero omitted, Abs format (unit mm)*
G04 Created by KiCad (PCBNEW 4.0.7) date 01/27/18 17:50:34*
%MOMM*%
%LPD*%
G01*
G04 APERTURE LIST*
%ADD10C,0.076200*%
%ADD11C,1.524000*%
%ADD12R,1.700000X1.700000*%
%ADD13O,1.700000X1.700000*%
%ADD14C,0.609600*%
G04 APERTURE END LIST*
D10*
D11*
X149860000Y-100076000D03*
X152400000Y-100076000D03*
X195580000Y-100076000D03*
X198120000Y-100076000D03*
X198120000Y-72136000D03*
X195580000Y-72136000D03*
X193040000Y-72136000D03*
X190500000Y-72136000D03*
X187960000Y-72136000D03*
X185420000Y-72136000D03*
X182880000Y-72136000D03*
X180340000Y-72136000D03*
X177800000Y-72136000D03*
X175260000Y-72136000D03*
X172720000Y-72136000D03*
X170180000Y-72136000D03*
X167640000Y-72136000D03*
X165100000Y-72136000D03*
X162560000Y-72136000D03*
X160020000Y-72136000D03*
X157480000Y-72136000D03*
X154940000Y-72136000D03*
X152400000Y-72136000D03*
X149860000Y-72136000D03*
D12*
X182854600Y-78460600D03*
D13*
X180314600Y-78460600D03*
X177774600Y-78460600D03*
X175234600Y-78460600D03*
X172694600Y-78460600D03*
X170154600Y-78460600D03*
X167614600Y-78460600D03*
X165074600Y-78460600D03*
X162534600Y-78460600D03*
X159994600Y-78460600D03*
D14*
X175260000Y-72136000D02*
X175260000Y-73406000D01*
X175260000Y-73406000D02*
X174244000Y-74422000D01*
X172720000Y-72136000D02*
X172720000Y-73152000D01*
X171450000Y-74422000D02*
X171196000Y-74422000D01*
X172720000Y-73152000D02*
X171450000Y-74422000D01*
X170180000Y-72136000D02*
X170180000Y-72898000D01*
X170180000Y-72898000D02*
X168656000Y-74422000D01*
X167640000Y-72136000D02*
X167640000Y-74422000D01*
X165100000Y-72136000D02*
X165100000Y-73660000D01*
X165100000Y-73660000D02*
X165862000Y-74422000D01*
X162560000Y-72136000D02*
X162560000Y-73152000D01*
X162560000Y-73152000D02*
X163830000Y-74422000D01*
X160020000Y-72136000D02*
X160020000Y-73406000D01*
X160020000Y-73406000D02*
X161036000Y-74422000D01*
X172720000Y-72136000D02*
X175260000Y-72136000D01*
X170180000Y-72136000D02*
X172720000Y-72136000D01*
X167640000Y-72136000D02*
X170180000Y-72136000D01*
X165100000Y-72136000D02*
X167640000Y-72136000D01*
X162560000Y-72136000D02*
X165100000Y-72136000D01*
X160020000Y-72136000D02*
X162560000Y-72136000D01*
X185420000Y-72136000D02*
X187960000Y-72136000D01*
X149860000Y-72136000D02*
X152146000Y-74422000D01*
X152146000Y-74422000D02*
X161036000Y-74422000D01*
X161036000Y-74422000D02*
X163830000Y-74422000D01*
X163830000Y-74422000D02*
X165862000Y-74422000D01*
X165862000Y-74422000D02*
X167640000Y-74422000D01*
X167640000Y-74422000D02*
X168656000Y-74422000D01*
X168656000Y-74422000D02*
X171196000Y-74422000D01*
X171196000Y-74422000D02*
X173736000Y-74422000D01*
X173736000Y-74422000D02*
X174244000Y-74422000D01*
X174244000Y-74422000D02*
X178816000Y-74422000D01*
X183134000Y-74422000D02*
X185420000Y-72136000D01*
X178816000Y-74422000D02*
X183134000Y-74422000D01*
M02*
