M48
;DRILL file {KiCad 4.0.7} date 01/27/18 17:50:36
;FORMAT={2:4/ absolute / inch / suppress leading zeros}
FMAT,2
INCH,TZ
T1C0.030
T2C0.039
T3C0.126
%
G90
G05
M72
T1
X59000Y-28400
X59000Y-39400
X60000Y-28400
X60000Y-39400
X61000Y-28400
X62000Y-28400
X63000Y-28400
X64000Y-28400
X65000Y-28400
X66000Y-28400
X67000Y-28400
X68000Y-28400
X69000Y-28400
X70000Y-28400
X71000Y-28400
X72000Y-28400
X73000Y-28400
X74000Y-28400
X75000Y-28400
X76000Y-28400
X77000Y-28400
X77000Y-39400
X78000Y-28400
X78000Y-39400
T2
X62990Y-30890
X63990Y-30890
X64990Y-30890
X65990Y-30890
X66990Y-30890
X67990Y-30890
X68990Y-30890
X69990Y-30890
X70990Y-30890
X71990Y-30890
T3
X60200Y-33800
X77000Y-33800
T0
M30
