G04 #@! TF.FileFunction,Legend,Top*
%FSLAX46Y46*%
G04 Gerber Fmt 4.6, Leading zero omitted, Abs format (unit mm)*
G04 Created by KiCad (PCBNEW 4.0.7) date 01/27/18 17:50:34*
%MOMM*%
%LPD*%
G01*
G04 APERTURE LIST*
%ADD10C,0.076200*%
%ADD11C,0.127000*%
%ADD12C,0.120000*%
%ADD13C,0.150000*%
%ADD14C,0.010000*%
G04 APERTURE END LIST*
D10*
D11*
X162656157Y-90108314D02*
X162656157Y-89346314D01*
X163091585Y-90108314D01*
X163091585Y-89346314D01*
X163563300Y-90108314D02*
X163490728Y-90072029D01*
X163454443Y-90035743D01*
X163418157Y-89963171D01*
X163418157Y-89745457D01*
X163454443Y-89672886D01*
X163490728Y-89636600D01*
X163563300Y-89600314D01*
X163672157Y-89600314D01*
X163744728Y-89636600D01*
X163781014Y-89672886D01*
X163817300Y-89745457D01*
X163817300Y-89963171D01*
X163781014Y-90035743D01*
X163744728Y-90072029D01*
X163672157Y-90108314D01*
X163563300Y-90108314D01*
X164724443Y-89600314D02*
X164724443Y-90362314D01*
X164724443Y-89636600D02*
X164797014Y-89600314D01*
X164942157Y-89600314D01*
X165014728Y-89636600D01*
X165051014Y-89672886D01*
X165087300Y-89745457D01*
X165087300Y-89963171D01*
X165051014Y-90035743D01*
X165014728Y-90072029D01*
X164942157Y-90108314D01*
X164797014Y-90108314D01*
X164724443Y-90072029D01*
X165522729Y-90108314D02*
X165450157Y-90072029D01*
X165413872Y-90035743D01*
X165377586Y-89963171D01*
X165377586Y-89745457D01*
X165413872Y-89672886D01*
X165450157Y-89636600D01*
X165522729Y-89600314D01*
X165631586Y-89600314D01*
X165704157Y-89636600D01*
X165740443Y-89672886D01*
X165776729Y-89745457D01*
X165776729Y-89963171D01*
X165740443Y-90035743D01*
X165704157Y-90072029D01*
X165631586Y-90108314D01*
X165522729Y-90108314D01*
X166103301Y-89600314D02*
X166103301Y-90362314D01*
X166103301Y-89636600D02*
X166175872Y-89600314D01*
X166321015Y-89600314D01*
X166393586Y-89636600D01*
X166429872Y-89672886D01*
X166466158Y-89745457D01*
X166466158Y-89963171D01*
X166429872Y-90035743D01*
X166393586Y-90072029D01*
X166321015Y-90108314D01*
X166175872Y-90108314D01*
X166103301Y-90072029D01*
X166792730Y-90035743D02*
X166829015Y-90072029D01*
X166792730Y-90108314D01*
X166756444Y-90072029D01*
X166792730Y-90035743D01*
X166792730Y-90108314D01*
X167627300Y-89600314D02*
X167917586Y-89600314D01*
X167736158Y-90108314D02*
X167736158Y-89455171D01*
X167772443Y-89382600D01*
X167845015Y-89346314D01*
X167917586Y-89346314D01*
X168280444Y-90108314D02*
X168207872Y-90072029D01*
X168171587Y-90035743D01*
X168135301Y-89963171D01*
X168135301Y-89745457D01*
X168171587Y-89672886D01*
X168207872Y-89636600D01*
X168280444Y-89600314D01*
X168389301Y-89600314D01*
X168461872Y-89636600D01*
X168498158Y-89672886D01*
X168534444Y-89745457D01*
X168534444Y-89963171D01*
X168498158Y-90035743D01*
X168461872Y-90072029D01*
X168389301Y-90108314D01*
X168280444Y-90108314D01*
X168861016Y-90108314D02*
X168861016Y-89600314D01*
X168861016Y-89745457D02*
X168897301Y-89672886D01*
X168933587Y-89636600D01*
X169006158Y-89600314D01*
X169078730Y-89600314D01*
X165395729Y-91378314D02*
X165141729Y-91015457D01*
X164960301Y-91378314D02*
X164960301Y-90616314D01*
X165250586Y-90616314D01*
X165323158Y-90652600D01*
X165359443Y-90688886D01*
X165395729Y-90761457D01*
X165395729Y-90870314D01*
X165359443Y-90942886D01*
X165323158Y-90979171D01*
X165250586Y-91015457D01*
X164960301Y-91015457D01*
X166121443Y-90652600D02*
X166048872Y-90616314D01*
X165940015Y-90616314D01*
X165831158Y-90652600D01*
X165758586Y-90725171D01*
X165722301Y-90797743D01*
X165686015Y-90942886D01*
X165686015Y-91051743D01*
X165722301Y-91196886D01*
X165758586Y-91269457D01*
X165831158Y-91342029D01*
X165940015Y-91378314D01*
X166012586Y-91378314D01*
X166121443Y-91342029D01*
X166157729Y-91305743D01*
X166157729Y-91051743D01*
X166012586Y-91051743D01*
X166738301Y-90979171D02*
X166847158Y-91015457D01*
X166883443Y-91051743D01*
X166919729Y-91124314D01*
X166919729Y-91233171D01*
X166883443Y-91305743D01*
X166847158Y-91342029D01*
X166774586Y-91378314D01*
X166484301Y-91378314D01*
X166484301Y-90616314D01*
X166738301Y-90616314D01*
X166810872Y-90652600D01*
X166847158Y-90688886D01*
X166883443Y-90761457D01*
X166883443Y-90834029D01*
X166847158Y-90906600D01*
X166810872Y-90942886D01*
X166738301Y-90979171D01*
X166484301Y-90979171D01*
X167246301Y-91305743D02*
X167282586Y-91342029D01*
X167246301Y-91378314D01*
X167210015Y-91342029D01*
X167246301Y-91305743D01*
X167246301Y-91378314D01*
X167246301Y-91088029D02*
X167210015Y-90652600D01*
X167246301Y-90616314D01*
X167282586Y-90652600D01*
X167246301Y-91088029D01*
X167246301Y-90616314D01*
X197855114Y-92798900D02*
X197855114Y-92653757D01*
X197891400Y-92581185D01*
X197963971Y-92508614D01*
X198109114Y-92472328D01*
X198363114Y-92472328D01*
X198508257Y-92508614D01*
X198580829Y-92581185D01*
X198617114Y-92653757D01*
X198617114Y-92798900D01*
X198580829Y-92871471D01*
X198508257Y-92944042D01*
X198363114Y-92980328D01*
X198109114Y-92980328D01*
X197963971Y-92944042D01*
X197891400Y-92871471D01*
X197855114Y-92798900D01*
X198109114Y-92145756D02*
X198617114Y-92145756D01*
X198181686Y-92145756D02*
X198145400Y-92109471D01*
X198109114Y-92036899D01*
X198109114Y-91928042D01*
X198145400Y-91855471D01*
X198217971Y-91819185D01*
X198617114Y-91819185D01*
X198617114Y-91347470D02*
X198580829Y-91420042D01*
X198508257Y-91456327D01*
X197855114Y-91456327D01*
X198109114Y-91129756D02*
X198617114Y-90948327D01*
X198109114Y-90766899D02*
X198617114Y-90948327D01*
X198798543Y-91020899D01*
X198834829Y-91057184D01*
X198871114Y-91129756D01*
X198109114Y-90004900D02*
X198109114Y-89714614D01*
X198617114Y-89896042D02*
X197963971Y-89896042D01*
X197891400Y-89859757D01*
X197855114Y-89787185D01*
X197855114Y-89714614D01*
X198617114Y-89351756D02*
X198580829Y-89424328D01*
X198544543Y-89460613D01*
X198471971Y-89496899D01*
X198254257Y-89496899D01*
X198181686Y-89460613D01*
X198145400Y-89424328D01*
X198109114Y-89351756D01*
X198109114Y-89242899D01*
X198145400Y-89170328D01*
X198181686Y-89134042D01*
X198254257Y-89097756D01*
X198471971Y-89097756D01*
X198544543Y-89134042D01*
X198580829Y-89170328D01*
X198617114Y-89242899D01*
X198617114Y-89351756D01*
X198617114Y-88771184D02*
X198109114Y-88771184D01*
X198254257Y-88771184D02*
X198181686Y-88734899D01*
X198145400Y-88698613D01*
X198109114Y-88626042D01*
X198109114Y-88553470D01*
X198217971Y-87464899D02*
X198254257Y-87356042D01*
X198290543Y-87319757D01*
X198363114Y-87283471D01*
X198471971Y-87283471D01*
X198544543Y-87319757D01*
X198580829Y-87356042D01*
X198617114Y-87428614D01*
X198617114Y-87718899D01*
X197855114Y-87718899D01*
X197855114Y-87464899D01*
X197891400Y-87392328D01*
X197927686Y-87356042D01*
X198000257Y-87319757D01*
X198072829Y-87319757D01*
X198145400Y-87356042D01*
X198181686Y-87392328D01*
X198217971Y-87464899D01*
X198217971Y-87718899D01*
D12*
X194326000Y-76204000D02*
X196326000Y-76204000D01*
X196326000Y-74164000D02*
X194326000Y-74164000D01*
X188706000Y-74164000D02*
X186706000Y-74164000D01*
X186706000Y-76204000D02*
X188706000Y-76204000D01*
D13*
X148860000Y-70576000D02*
X148860000Y-101076000D01*
X148860000Y-101076000D02*
X199360000Y-101076000D01*
X199360000Y-101076000D02*
X199360000Y-70576000D01*
X199360000Y-70576000D02*
X148860000Y-70576000D01*
D14*
G36*
X167614629Y-99551066D02*
X167654111Y-99551467D01*
X167769800Y-99554259D01*
X167866689Y-99562550D01*
X167948081Y-99577232D01*
X168017277Y-99599193D01*
X168077580Y-99629322D01*
X168132292Y-99668510D01*
X168151833Y-99685532D01*
X168184250Y-99725363D01*
X168213480Y-99779413D01*
X168236009Y-99839323D01*
X168248321Y-99896739D01*
X168249600Y-99917956D01*
X168241583Y-99976769D01*
X168220101Y-100041013D01*
X168189001Y-100101821D01*
X168152134Y-100150330D01*
X168146146Y-100156182D01*
X168095421Y-100197321D01*
X168039875Y-100229435D01*
X167976304Y-100253365D01*
X167901506Y-100269953D01*
X167812278Y-100280041D01*
X167705418Y-100284469D01*
X167656472Y-100284845D01*
X167594238Y-100284545D01*
X167550472Y-100283292D01*
X167521069Y-100280554D01*
X167501921Y-100275801D01*
X167488923Y-100268501D01*
X167481955Y-100262267D01*
X167475374Y-100254694D01*
X167470212Y-100244924D01*
X167466297Y-100230340D01*
X167463457Y-100208326D01*
X167461520Y-100176264D01*
X167460316Y-100131536D01*
X167459672Y-100071526D01*
X167459417Y-99993617D01*
X167459378Y-99917956D01*
X167459130Y-99817041D01*
X167459183Y-99736427D01*
X167460143Y-99697822D01*
X167606133Y-99697822D01*
X167606133Y-100138089D01*
X167699266Y-100138004D01*
X167755307Y-100136396D01*
X167814001Y-100132256D01*
X167862972Y-100126464D01*
X167864462Y-100126226D01*
X167943608Y-100107090D01*
X168004998Y-100077287D01*
X168051695Y-100034878D01*
X168081365Y-99988961D01*
X168099647Y-99938026D01*
X168098229Y-99890200D01*
X168077012Y-99838933D01*
X168035511Y-99785899D01*
X167978002Y-99746600D01*
X167903250Y-99720331D01*
X167853292Y-99711035D01*
X167796584Y-99704507D01*
X167736481Y-99699782D01*
X167685361Y-99697817D01*
X167682333Y-99697808D01*
X167606133Y-99697822D01*
X167460143Y-99697822D01*
X167460740Y-99673851D01*
X167465002Y-99627055D01*
X167473170Y-99593778D01*
X167486444Y-99571759D01*
X167506026Y-99558739D01*
X167533117Y-99552457D01*
X167568918Y-99550653D01*
X167614629Y-99551066D01*
X167614629Y-99551066D01*
G37*
X167614629Y-99551066D02*
X167654111Y-99551467D01*
X167769800Y-99554259D01*
X167866689Y-99562550D01*
X167948081Y-99577232D01*
X168017277Y-99599193D01*
X168077580Y-99629322D01*
X168132292Y-99668510D01*
X168151833Y-99685532D01*
X168184250Y-99725363D01*
X168213480Y-99779413D01*
X168236009Y-99839323D01*
X168248321Y-99896739D01*
X168249600Y-99917956D01*
X168241583Y-99976769D01*
X168220101Y-100041013D01*
X168189001Y-100101821D01*
X168152134Y-100150330D01*
X168146146Y-100156182D01*
X168095421Y-100197321D01*
X168039875Y-100229435D01*
X167976304Y-100253365D01*
X167901506Y-100269953D01*
X167812278Y-100280041D01*
X167705418Y-100284469D01*
X167656472Y-100284845D01*
X167594238Y-100284545D01*
X167550472Y-100283292D01*
X167521069Y-100280554D01*
X167501921Y-100275801D01*
X167488923Y-100268501D01*
X167481955Y-100262267D01*
X167475374Y-100254694D01*
X167470212Y-100244924D01*
X167466297Y-100230340D01*
X167463457Y-100208326D01*
X167461520Y-100176264D01*
X167460316Y-100131536D01*
X167459672Y-100071526D01*
X167459417Y-99993617D01*
X167459378Y-99917956D01*
X167459130Y-99817041D01*
X167459183Y-99736427D01*
X167460143Y-99697822D01*
X167606133Y-99697822D01*
X167606133Y-100138089D01*
X167699266Y-100138004D01*
X167755307Y-100136396D01*
X167814001Y-100132256D01*
X167862972Y-100126464D01*
X167864462Y-100126226D01*
X167943608Y-100107090D01*
X168004998Y-100077287D01*
X168051695Y-100034878D01*
X168081365Y-99988961D01*
X168099647Y-99938026D01*
X168098229Y-99890200D01*
X168077012Y-99838933D01*
X168035511Y-99785899D01*
X167978002Y-99746600D01*
X167903250Y-99720331D01*
X167853292Y-99711035D01*
X167796584Y-99704507D01*
X167736481Y-99699782D01*
X167685361Y-99697817D01*
X167682333Y-99697808D01*
X167606133Y-99697822D01*
X167460143Y-99697822D01*
X167460740Y-99673851D01*
X167465002Y-99627055D01*
X167473170Y-99593778D01*
X167486444Y-99571759D01*
X167506026Y-99558739D01*
X167533117Y-99552457D01*
X167568918Y-99550653D01*
X167614629Y-99551066D01*
G36*
X169023206Y-99551146D02*
X169092614Y-99551518D01*
X169145003Y-99552385D01*
X169183153Y-99553946D01*
X169209841Y-99556403D01*
X169227847Y-99559957D01*
X169239951Y-99564810D01*
X169248931Y-99571161D01*
X169252182Y-99574084D01*
X169271957Y-99605142D01*
X169275518Y-99640828D01*
X169262509Y-99672510D01*
X169256494Y-99678913D01*
X169246765Y-99685121D01*
X169231099Y-99689910D01*
X169206592Y-99693514D01*
X169170339Y-99696164D01*
X169119435Y-99698095D01*
X169050974Y-99699539D01*
X168988383Y-99700418D01*
X168740666Y-99703467D01*
X168737281Y-99768378D01*
X168733895Y-99833289D01*
X168902042Y-99833289D01*
X168975041Y-99833919D01*
X169028483Y-99836553D01*
X169065372Y-99842309D01*
X169088712Y-99852304D01*
X169101506Y-99867656D01*
X169106758Y-99889482D01*
X169107555Y-99909738D01*
X169105077Y-99934592D01*
X169095723Y-99952906D01*
X169076617Y-99965637D01*
X169044882Y-99973741D01*
X168997641Y-99978176D01*
X168932017Y-99979899D01*
X168896199Y-99980045D01*
X168735022Y-99980045D01*
X168735022Y-100138089D01*
X168983378Y-100138089D01*
X169064787Y-100138202D01*
X169126658Y-100138712D01*
X169172032Y-100139870D01*
X169203946Y-100141930D01*
X169225441Y-100145146D01*
X169239557Y-100149772D01*
X169249332Y-100156059D01*
X169254311Y-100160667D01*
X169271390Y-100187560D01*
X169276889Y-100211467D01*
X169269037Y-100240667D01*
X169254311Y-100262267D01*
X169246454Y-100269066D01*
X169236312Y-100274346D01*
X169221156Y-100278298D01*
X169198259Y-100281113D01*
X169164891Y-100282982D01*
X169118325Y-100284098D01*
X169055833Y-100284651D01*
X168974686Y-100284833D01*
X168932578Y-100284845D01*
X168842402Y-100284765D01*
X168772076Y-100284398D01*
X168718871Y-100283552D01*
X168680060Y-100282036D01*
X168652913Y-100279659D01*
X168634702Y-100276229D01*
X168622700Y-100271554D01*
X168614178Y-100265444D01*
X168610844Y-100262267D01*
X168604245Y-100254670D01*
X168599073Y-100244870D01*
X168595154Y-100230239D01*
X168592316Y-100208152D01*
X168590385Y-100175982D01*
X168589188Y-100131103D01*
X168588552Y-100070889D01*
X168588303Y-99992713D01*
X168588266Y-99919923D01*
X168588300Y-99826707D01*
X168588535Y-99753431D01*
X168589170Y-99697458D01*
X168590406Y-99656151D01*
X168592444Y-99626872D01*
X168595483Y-99606984D01*
X168599723Y-99593850D01*
X168605365Y-99584832D01*
X168612609Y-99577293D01*
X168614394Y-99575612D01*
X168623055Y-99568172D01*
X168633118Y-99562409D01*
X168647375Y-99558112D01*
X168668617Y-99555064D01*
X168699636Y-99553051D01*
X168743223Y-99551860D01*
X168802169Y-99551275D01*
X168879266Y-99551083D01*
X168933999Y-99551067D01*
X169023206Y-99551146D01*
X169023206Y-99551146D01*
G37*
X169023206Y-99551146D02*
X169092614Y-99551518D01*
X169145003Y-99552385D01*
X169183153Y-99553946D01*
X169209841Y-99556403D01*
X169227847Y-99559957D01*
X169239951Y-99564810D01*
X169248931Y-99571161D01*
X169252182Y-99574084D01*
X169271957Y-99605142D01*
X169275518Y-99640828D01*
X169262509Y-99672510D01*
X169256494Y-99678913D01*
X169246765Y-99685121D01*
X169231099Y-99689910D01*
X169206592Y-99693514D01*
X169170339Y-99696164D01*
X169119435Y-99698095D01*
X169050974Y-99699539D01*
X168988383Y-99700418D01*
X168740666Y-99703467D01*
X168737281Y-99768378D01*
X168733895Y-99833289D01*
X168902042Y-99833289D01*
X168975041Y-99833919D01*
X169028483Y-99836553D01*
X169065372Y-99842309D01*
X169088712Y-99852304D01*
X169101506Y-99867656D01*
X169106758Y-99889482D01*
X169107555Y-99909738D01*
X169105077Y-99934592D01*
X169095723Y-99952906D01*
X169076617Y-99965637D01*
X169044882Y-99973741D01*
X168997641Y-99978176D01*
X168932017Y-99979899D01*
X168896199Y-99980045D01*
X168735022Y-99980045D01*
X168735022Y-100138089D01*
X168983378Y-100138089D01*
X169064787Y-100138202D01*
X169126658Y-100138712D01*
X169172032Y-100139870D01*
X169203946Y-100141930D01*
X169225441Y-100145146D01*
X169239557Y-100149772D01*
X169249332Y-100156059D01*
X169254311Y-100160667D01*
X169271390Y-100187560D01*
X169276889Y-100211467D01*
X169269037Y-100240667D01*
X169254311Y-100262267D01*
X169246454Y-100269066D01*
X169236312Y-100274346D01*
X169221156Y-100278298D01*
X169198259Y-100281113D01*
X169164891Y-100282982D01*
X169118325Y-100284098D01*
X169055833Y-100284651D01*
X168974686Y-100284833D01*
X168932578Y-100284845D01*
X168842402Y-100284765D01*
X168772076Y-100284398D01*
X168718871Y-100283552D01*
X168680060Y-100282036D01*
X168652913Y-100279659D01*
X168634702Y-100276229D01*
X168622700Y-100271554D01*
X168614178Y-100265444D01*
X168610844Y-100262267D01*
X168604245Y-100254670D01*
X168599073Y-100244870D01*
X168595154Y-100230239D01*
X168592316Y-100208152D01*
X168590385Y-100175982D01*
X168589188Y-100131103D01*
X168588552Y-100070889D01*
X168588303Y-99992713D01*
X168588266Y-99919923D01*
X168588300Y-99826707D01*
X168588535Y-99753431D01*
X168589170Y-99697458D01*
X168590406Y-99656151D01*
X168592444Y-99626872D01*
X168595483Y-99606984D01*
X168599723Y-99593850D01*
X168605365Y-99584832D01*
X168612609Y-99577293D01*
X168614394Y-99575612D01*
X168623055Y-99568172D01*
X168633118Y-99562409D01*
X168647375Y-99558112D01*
X168668617Y-99555064D01*
X168699636Y-99553051D01*
X168743223Y-99551860D01*
X168802169Y-99551275D01*
X168879266Y-99551083D01*
X168933999Y-99551067D01*
X169023206Y-99551146D01*
G36*
X170044297Y-99552351D02*
X170119112Y-99557581D01*
X170188694Y-99565750D01*
X170248998Y-99576550D01*
X170295980Y-99589673D01*
X170325594Y-99604813D01*
X170330140Y-99609269D01*
X170345946Y-99643850D01*
X170341153Y-99679351D01*
X170316636Y-99709725D01*
X170315466Y-99710596D01*
X170301046Y-99719954D01*
X170285992Y-99724876D01*
X170264995Y-99725473D01*
X170232743Y-99721861D01*
X170183927Y-99714154D01*
X170180000Y-99713505D01*
X170107261Y-99704569D01*
X170028783Y-99700161D01*
X169950073Y-99700119D01*
X169876639Y-99704279D01*
X169813989Y-99712479D01*
X169767630Y-99724557D01*
X169764584Y-99725771D01*
X169730952Y-99744615D01*
X169719136Y-99763685D01*
X169728386Y-99782439D01*
X169757953Y-99800337D01*
X169807089Y-99816837D01*
X169875043Y-99831396D01*
X169920355Y-99838406D01*
X170014544Y-99851889D01*
X170089456Y-99864214D01*
X170148283Y-99876449D01*
X170194215Y-99889661D01*
X170230445Y-99904917D01*
X170260162Y-99923285D01*
X170286558Y-99945831D01*
X170307770Y-99967971D01*
X170332935Y-99998819D01*
X170345319Y-100025345D01*
X170349192Y-100058026D01*
X170349333Y-100069995D01*
X170346424Y-100109712D01*
X170334798Y-100139259D01*
X170314677Y-100165486D01*
X170273784Y-100205576D01*
X170228183Y-100236149D01*
X170174487Y-100258203D01*
X170109308Y-100272735D01*
X170029256Y-100280741D01*
X169930943Y-100283218D01*
X169914711Y-100283177D01*
X169849151Y-100281818D01*
X169784134Y-100278730D01*
X169726748Y-100274356D01*
X169684078Y-100269140D01*
X169680628Y-100268541D01*
X169638204Y-100258491D01*
X169602220Y-100245796D01*
X169581850Y-100234190D01*
X169562893Y-100203572D01*
X169561573Y-100167918D01*
X169577915Y-100136144D01*
X169581571Y-100132551D01*
X169596685Y-100121876D01*
X169615585Y-100117276D01*
X169644838Y-100118059D01*
X169680349Y-100122127D01*
X169720030Y-100125762D01*
X169775655Y-100128828D01*
X169840594Y-100131053D01*
X169908215Y-100132164D01*
X169926000Y-100132237D01*
X169993872Y-100131964D01*
X170043546Y-100130646D01*
X170079390Y-100127827D01*
X170105776Y-100123050D01*
X170127074Y-100115857D01*
X170139874Y-100109867D01*
X170168000Y-100093233D01*
X170185932Y-100078168D01*
X170188553Y-100073897D01*
X170183024Y-100056263D01*
X170156740Y-100039192D01*
X170111522Y-100023458D01*
X170049192Y-100009838D01*
X170030829Y-100006804D01*
X169934910Y-99991738D01*
X169858359Y-99979146D01*
X169798220Y-99968111D01*
X169751540Y-99957720D01*
X169715363Y-99947056D01*
X169686735Y-99935205D01*
X169662702Y-99921251D01*
X169640308Y-99904281D01*
X169616598Y-99883378D01*
X169608620Y-99876049D01*
X169580647Y-99848699D01*
X169565840Y-99827029D01*
X169560048Y-99802232D01*
X169559111Y-99770983D01*
X169569425Y-99709705D01*
X169600248Y-99657640D01*
X169651405Y-99614958D01*
X169722717Y-99581825D01*
X169773600Y-99566964D01*
X169828900Y-99557366D01*
X169895147Y-99551936D01*
X169968294Y-99550367D01*
X170044297Y-99552351D01*
X170044297Y-99552351D01*
G37*
X170044297Y-99552351D02*
X170119112Y-99557581D01*
X170188694Y-99565750D01*
X170248998Y-99576550D01*
X170295980Y-99589673D01*
X170325594Y-99604813D01*
X170330140Y-99609269D01*
X170345946Y-99643850D01*
X170341153Y-99679351D01*
X170316636Y-99709725D01*
X170315466Y-99710596D01*
X170301046Y-99719954D01*
X170285992Y-99724876D01*
X170264995Y-99725473D01*
X170232743Y-99721861D01*
X170183927Y-99714154D01*
X170180000Y-99713505D01*
X170107261Y-99704569D01*
X170028783Y-99700161D01*
X169950073Y-99700119D01*
X169876639Y-99704279D01*
X169813989Y-99712479D01*
X169767630Y-99724557D01*
X169764584Y-99725771D01*
X169730952Y-99744615D01*
X169719136Y-99763685D01*
X169728386Y-99782439D01*
X169757953Y-99800337D01*
X169807089Y-99816837D01*
X169875043Y-99831396D01*
X169920355Y-99838406D01*
X170014544Y-99851889D01*
X170089456Y-99864214D01*
X170148283Y-99876449D01*
X170194215Y-99889661D01*
X170230445Y-99904917D01*
X170260162Y-99923285D01*
X170286558Y-99945831D01*
X170307770Y-99967971D01*
X170332935Y-99998819D01*
X170345319Y-100025345D01*
X170349192Y-100058026D01*
X170349333Y-100069995D01*
X170346424Y-100109712D01*
X170334798Y-100139259D01*
X170314677Y-100165486D01*
X170273784Y-100205576D01*
X170228183Y-100236149D01*
X170174487Y-100258203D01*
X170109308Y-100272735D01*
X170029256Y-100280741D01*
X169930943Y-100283218D01*
X169914711Y-100283177D01*
X169849151Y-100281818D01*
X169784134Y-100278730D01*
X169726748Y-100274356D01*
X169684078Y-100269140D01*
X169680628Y-100268541D01*
X169638204Y-100258491D01*
X169602220Y-100245796D01*
X169581850Y-100234190D01*
X169562893Y-100203572D01*
X169561573Y-100167918D01*
X169577915Y-100136144D01*
X169581571Y-100132551D01*
X169596685Y-100121876D01*
X169615585Y-100117276D01*
X169644838Y-100118059D01*
X169680349Y-100122127D01*
X169720030Y-100125762D01*
X169775655Y-100128828D01*
X169840594Y-100131053D01*
X169908215Y-100132164D01*
X169926000Y-100132237D01*
X169993872Y-100131964D01*
X170043546Y-100130646D01*
X170079390Y-100127827D01*
X170105776Y-100123050D01*
X170127074Y-100115857D01*
X170139874Y-100109867D01*
X170168000Y-100093233D01*
X170185932Y-100078168D01*
X170188553Y-100073897D01*
X170183024Y-100056263D01*
X170156740Y-100039192D01*
X170111522Y-100023458D01*
X170049192Y-100009838D01*
X170030829Y-100006804D01*
X169934910Y-99991738D01*
X169858359Y-99979146D01*
X169798220Y-99968111D01*
X169751540Y-99957720D01*
X169715363Y-99947056D01*
X169686735Y-99935205D01*
X169662702Y-99921251D01*
X169640308Y-99904281D01*
X169616598Y-99883378D01*
X169608620Y-99876049D01*
X169580647Y-99848699D01*
X169565840Y-99827029D01*
X169560048Y-99802232D01*
X169559111Y-99770983D01*
X169569425Y-99709705D01*
X169600248Y-99657640D01*
X169651405Y-99614958D01*
X169722717Y-99581825D01*
X169773600Y-99566964D01*
X169828900Y-99557366D01*
X169895147Y-99551936D01*
X169968294Y-99550367D01*
X170044297Y-99552351D01*
G36*
X170812178Y-99573645D02*
X170818758Y-99581218D01*
X170823921Y-99590987D01*
X170827836Y-99605571D01*
X170830676Y-99627585D01*
X170832613Y-99659648D01*
X170833817Y-99704375D01*
X170834461Y-99764385D01*
X170834716Y-99842294D01*
X170834755Y-99917956D01*
X170834686Y-100011802D01*
X170834362Y-100085689D01*
X170833614Y-100142232D01*
X170832268Y-100184049D01*
X170830154Y-100213757D01*
X170827100Y-100233973D01*
X170822934Y-100247314D01*
X170817484Y-100256398D01*
X170812178Y-100262267D01*
X170779174Y-100281947D01*
X170744009Y-100280181D01*
X170712545Y-100258717D01*
X170705316Y-100250337D01*
X170699666Y-100240614D01*
X170695401Y-100226861D01*
X170692327Y-100206389D01*
X170690248Y-100176512D01*
X170688970Y-100134541D01*
X170688299Y-100077789D01*
X170688041Y-100003567D01*
X170688000Y-99919537D01*
X170688000Y-99606485D01*
X170715709Y-99578776D01*
X170749863Y-99555463D01*
X170782994Y-99554623D01*
X170812178Y-99573645D01*
X170812178Y-99573645D01*
G37*
X170812178Y-99573645D02*
X170818758Y-99581218D01*
X170823921Y-99590987D01*
X170827836Y-99605571D01*
X170830676Y-99627585D01*
X170832613Y-99659648D01*
X170833817Y-99704375D01*
X170834461Y-99764385D01*
X170834716Y-99842294D01*
X170834755Y-99917956D01*
X170834686Y-100011802D01*
X170834362Y-100085689D01*
X170833614Y-100142232D01*
X170832268Y-100184049D01*
X170830154Y-100213757D01*
X170827100Y-100233973D01*
X170822934Y-100247314D01*
X170817484Y-100256398D01*
X170812178Y-100262267D01*
X170779174Y-100281947D01*
X170744009Y-100280181D01*
X170712545Y-100258717D01*
X170705316Y-100250337D01*
X170699666Y-100240614D01*
X170695401Y-100226861D01*
X170692327Y-100206389D01*
X170690248Y-100176512D01*
X170688970Y-100134541D01*
X170688299Y-100077789D01*
X170688041Y-100003567D01*
X170688000Y-99919537D01*
X170688000Y-99606485D01*
X170715709Y-99578776D01*
X170749863Y-99555463D01*
X170782994Y-99554623D01*
X170812178Y-99573645D01*
G36*
X171785919Y-99556599D02*
X171854435Y-99568095D01*
X171907057Y-99585967D01*
X171941292Y-99609499D01*
X171950621Y-99622924D01*
X171960107Y-99654148D01*
X171953723Y-99682395D01*
X171933570Y-99709182D01*
X171902255Y-99721713D01*
X171856817Y-99720696D01*
X171821674Y-99713906D01*
X171743581Y-99700971D01*
X171663774Y-99699742D01*
X171574445Y-99710241D01*
X171549771Y-99714690D01*
X171466709Y-99738108D01*
X171401727Y-99772945D01*
X171355539Y-99818604D01*
X171328855Y-99874494D01*
X171323337Y-99903388D01*
X171326949Y-99962012D01*
X171350271Y-100013879D01*
X171391176Y-100057978D01*
X171447541Y-100093299D01*
X171517240Y-100118829D01*
X171598148Y-100133559D01*
X171688140Y-100136478D01*
X171785090Y-100126575D01*
X171790564Y-100125641D01*
X171829125Y-100118459D01*
X171850506Y-100111521D01*
X171859773Y-100101227D01*
X171861994Y-100083976D01*
X171862044Y-100074841D01*
X171862044Y-100036489D01*
X171793569Y-100036489D01*
X171733100Y-100032347D01*
X171691835Y-100019147D01*
X171667825Y-99995730D01*
X171659123Y-99960936D01*
X171659017Y-99956394D01*
X171664108Y-99926654D01*
X171681567Y-99905419D01*
X171714061Y-99891366D01*
X171764257Y-99883173D01*
X171812877Y-99880161D01*
X171883544Y-99878433D01*
X171934802Y-99881070D01*
X171969761Y-99890800D01*
X171991530Y-99910353D01*
X172003220Y-99942456D01*
X172007940Y-99989838D01*
X172008800Y-100052071D01*
X172007391Y-100121535D01*
X172003152Y-100168786D01*
X171996064Y-100194012D01*
X171994689Y-100195988D01*
X171955772Y-100227508D01*
X171898714Y-100252470D01*
X171827131Y-100270340D01*
X171744642Y-100280586D01*
X171654861Y-100282673D01*
X171561408Y-100276068D01*
X171506444Y-100267956D01*
X171420234Y-100243554D01*
X171340108Y-100203662D01*
X171273023Y-100151887D01*
X171262827Y-100141539D01*
X171229698Y-100098035D01*
X171199806Y-100044118D01*
X171176643Y-99987592D01*
X171163702Y-99936259D01*
X171162142Y-99916544D01*
X171168782Y-99875419D01*
X171186432Y-99824252D01*
X171211703Y-99770394D01*
X171241211Y-99721195D01*
X171267281Y-99688334D01*
X171328235Y-99639452D01*
X171407031Y-99600545D01*
X171500843Y-99572494D01*
X171606850Y-99556179D01*
X171704000Y-99552192D01*
X171785919Y-99556599D01*
X171785919Y-99556599D01*
G37*
X171785919Y-99556599D02*
X171854435Y-99568095D01*
X171907057Y-99585967D01*
X171941292Y-99609499D01*
X171950621Y-99622924D01*
X171960107Y-99654148D01*
X171953723Y-99682395D01*
X171933570Y-99709182D01*
X171902255Y-99721713D01*
X171856817Y-99720696D01*
X171821674Y-99713906D01*
X171743581Y-99700971D01*
X171663774Y-99699742D01*
X171574445Y-99710241D01*
X171549771Y-99714690D01*
X171466709Y-99738108D01*
X171401727Y-99772945D01*
X171355539Y-99818604D01*
X171328855Y-99874494D01*
X171323337Y-99903388D01*
X171326949Y-99962012D01*
X171350271Y-100013879D01*
X171391176Y-100057978D01*
X171447541Y-100093299D01*
X171517240Y-100118829D01*
X171598148Y-100133559D01*
X171688140Y-100136478D01*
X171785090Y-100126575D01*
X171790564Y-100125641D01*
X171829125Y-100118459D01*
X171850506Y-100111521D01*
X171859773Y-100101227D01*
X171861994Y-100083976D01*
X171862044Y-100074841D01*
X171862044Y-100036489D01*
X171793569Y-100036489D01*
X171733100Y-100032347D01*
X171691835Y-100019147D01*
X171667825Y-99995730D01*
X171659123Y-99960936D01*
X171659017Y-99956394D01*
X171664108Y-99926654D01*
X171681567Y-99905419D01*
X171714061Y-99891366D01*
X171764257Y-99883173D01*
X171812877Y-99880161D01*
X171883544Y-99878433D01*
X171934802Y-99881070D01*
X171969761Y-99890800D01*
X171991530Y-99910353D01*
X172003220Y-99942456D01*
X172007940Y-99989838D01*
X172008800Y-100052071D01*
X172007391Y-100121535D01*
X172003152Y-100168786D01*
X171996064Y-100194012D01*
X171994689Y-100195988D01*
X171955772Y-100227508D01*
X171898714Y-100252470D01*
X171827131Y-100270340D01*
X171744642Y-100280586D01*
X171654861Y-100282673D01*
X171561408Y-100276068D01*
X171506444Y-100267956D01*
X171420234Y-100243554D01*
X171340108Y-100203662D01*
X171273023Y-100151887D01*
X171262827Y-100141539D01*
X171229698Y-100098035D01*
X171199806Y-100044118D01*
X171176643Y-99987592D01*
X171163702Y-99936259D01*
X171162142Y-99916544D01*
X171168782Y-99875419D01*
X171186432Y-99824252D01*
X171211703Y-99770394D01*
X171241211Y-99721195D01*
X171267281Y-99688334D01*
X171328235Y-99639452D01*
X171407031Y-99600545D01*
X171500843Y-99572494D01*
X171606850Y-99556179D01*
X171704000Y-99552192D01*
X171785919Y-99556599D01*
G36*
X172435886Y-99555448D02*
X172459452Y-99569273D01*
X172490265Y-99591881D01*
X172529922Y-99624338D01*
X172580020Y-99667708D01*
X172642157Y-99723058D01*
X172717928Y-99791451D01*
X172804666Y-99870084D01*
X172985289Y-100033878D01*
X172990933Y-99814029D01*
X172992971Y-99738351D01*
X172994937Y-99681994D01*
X172997266Y-99641706D01*
X173000394Y-99614235D01*
X173004755Y-99596329D01*
X173010784Y-99584737D01*
X173018916Y-99576208D01*
X173023228Y-99572623D01*
X173057759Y-99553670D01*
X173090617Y-99556441D01*
X173116682Y-99572633D01*
X173143333Y-99594199D01*
X173146648Y-99909151D01*
X173147565Y-100001779D01*
X173148032Y-100074544D01*
X173147887Y-100130161D01*
X173146968Y-100171342D01*
X173145113Y-100200803D01*
X173142161Y-100221255D01*
X173137950Y-100235413D01*
X173132318Y-100245991D01*
X173126073Y-100254474D01*
X173112561Y-100270207D01*
X173099117Y-100280636D01*
X173083876Y-100284639D01*
X173064974Y-100281094D01*
X173040545Y-100268879D01*
X173008727Y-100246871D01*
X172967652Y-100213949D01*
X172915458Y-100168991D01*
X172850278Y-100110875D01*
X172776444Y-100044099D01*
X172511155Y-99803458D01*
X172505511Y-100022589D01*
X172503469Y-100098128D01*
X172501498Y-100154354D01*
X172499161Y-100194524D01*
X172496019Y-100221896D01*
X172491636Y-100239728D01*
X172485576Y-100251279D01*
X172477400Y-100259807D01*
X172473216Y-100263282D01*
X172436235Y-100282372D01*
X172401292Y-100279493D01*
X172370864Y-100255100D01*
X172363903Y-100245286D01*
X172358477Y-100233826D01*
X172354397Y-100217968D01*
X172351471Y-100194963D01*
X172349508Y-100162062D01*
X172348317Y-100116516D01*
X172347708Y-100055573D01*
X172347489Y-99976486D01*
X172347466Y-99917956D01*
X172347540Y-99826407D01*
X172347887Y-99754687D01*
X172348699Y-99700045D01*
X172350167Y-99659732D01*
X172352481Y-99630998D01*
X172355833Y-99611093D01*
X172360412Y-99597268D01*
X172366411Y-99586772D01*
X172370864Y-99580811D01*
X172382150Y-99566691D01*
X172392699Y-99556029D01*
X172404107Y-99549892D01*
X172417970Y-99549343D01*
X172435886Y-99555448D01*
X172435886Y-99555448D01*
G37*
X172435886Y-99555448D02*
X172459452Y-99569273D01*
X172490265Y-99591881D01*
X172529922Y-99624338D01*
X172580020Y-99667708D01*
X172642157Y-99723058D01*
X172717928Y-99791451D01*
X172804666Y-99870084D01*
X172985289Y-100033878D01*
X172990933Y-99814029D01*
X172992971Y-99738351D01*
X172994937Y-99681994D01*
X172997266Y-99641706D01*
X173000394Y-99614235D01*
X173004755Y-99596329D01*
X173010784Y-99584737D01*
X173018916Y-99576208D01*
X173023228Y-99572623D01*
X173057759Y-99553670D01*
X173090617Y-99556441D01*
X173116682Y-99572633D01*
X173143333Y-99594199D01*
X173146648Y-99909151D01*
X173147565Y-100001779D01*
X173148032Y-100074544D01*
X173147887Y-100130161D01*
X173146968Y-100171342D01*
X173145113Y-100200803D01*
X173142161Y-100221255D01*
X173137950Y-100235413D01*
X173132318Y-100245991D01*
X173126073Y-100254474D01*
X173112561Y-100270207D01*
X173099117Y-100280636D01*
X173083876Y-100284639D01*
X173064974Y-100281094D01*
X173040545Y-100268879D01*
X173008727Y-100246871D01*
X172967652Y-100213949D01*
X172915458Y-100168991D01*
X172850278Y-100110875D01*
X172776444Y-100044099D01*
X172511155Y-99803458D01*
X172505511Y-100022589D01*
X172503469Y-100098128D01*
X172501498Y-100154354D01*
X172499161Y-100194524D01*
X172496019Y-100221896D01*
X172491636Y-100239728D01*
X172485576Y-100251279D01*
X172477400Y-100259807D01*
X172473216Y-100263282D01*
X172436235Y-100282372D01*
X172401292Y-100279493D01*
X172370864Y-100255100D01*
X172363903Y-100245286D01*
X172358477Y-100233826D01*
X172354397Y-100217968D01*
X172351471Y-100194963D01*
X172349508Y-100162062D01*
X172348317Y-100116516D01*
X172347708Y-100055573D01*
X172347489Y-99976486D01*
X172347466Y-99917956D01*
X172347540Y-99826407D01*
X172347887Y-99754687D01*
X172348699Y-99700045D01*
X172350167Y-99659732D01*
X172352481Y-99630998D01*
X172355833Y-99611093D01*
X172360412Y-99597268D01*
X172366411Y-99586772D01*
X172370864Y-99580811D01*
X172382150Y-99566691D01*
X172392699Y-99556029D01*
X172404107Y-99549892D01*
X172417970Y-99549343D01*
X172435886Y-99555448D01*
G36*
X173966343Y-99551260D02*
X174042701Y-99552174D01*
X174101217Y-99554311D01*
X174144255Y-99558175D01*
X174174183Y-99564267D01*
X174193368Y-99573090D01*
X174204176Y-99585146D01*
X174208973Y-99600939D01*
X174210127Y-99620970D01*
X174210133Y-99623335D01*
X174209131Y-99645992D01*
X174204396Y-99663503D01*
X174193333Y-99676574D01*
X174173348Y-99685913D01*
X174141846Y-99692227D01*
X174096232Y-99696222D01*
X174033913Y-99698606D01*
X173952293Y-99700086D01*
X173927277Y-99700414D01*
X173685200Y-99703467D01*
X173681814Y-99768378D01*
X173678429Y-99833289D01*
X173846576Y-99833289D01*
X173912266Y-99833531D01*
X173959172Y-99834556D01*
X173991083Y-99836811D01*
X174011791Y-99840742D01*
X174025084Y-99846798D01*
X174034755Y-99855424D01*
X174034817Y-99855493D01*
X174052356Y-99889112D01*
X174051722Y-99925448D01*
X174033314Y-99956423D01*
X174029671Y-99959607D01*
X174016741Y-99967812D01*
X173999024Y-99973521D01*
X173972570Y-99977162D01*
X173933432Y-99979167D01*
X173877662Y-99979964D01*
X173841994Y-99980045D01*
X173679555Y-99980045D01*
X173679555Y-100138089D01*
X173926161Y-100138089D01*
X174007580Y-100138231D01*
X174069410Y-100138814D01*
X174114637Y-100140068D01*
X174146248Y-100142227D01*
X174167231Y-100145523D01*
X174180573Y-100150189D01*
X174189261Y-100156457D01*
X174191450Y-100158733D01*
X174207614Y-100190280D01*
X174208797Y-100226168D01*
X174195536Y-100257285D01*
X174185043Y-100267271D01*
X174174129Y-100272769D01*
X174157217Y-100277022D01*
X174131633Y-100280180D01*
X174094701Y-100282392D01*
X174043746Y-100283806D01*
X173976094Y-100284572D01*
X173889069Y-100284838D01*
X173869394Y-100284845D01*
X173780911Y-100284787D01*
X173712227Y-100284467D01*
X173660564Y-100283667D01*
X173623145Y-100282167D01*
X173597190Y-100279749D01*
X173579922Y-100276194D01*
X173568562Y-100271282D01*
X173560332Y-100264795D01*
X173555817Y-100260138D01*
X173549021Y-100251889D01*
X173543712Y-100241669D01*
X173539706Y-100226800D01*
X173536821Y-100204602D01*
X173534874Y-100172393D01*
X173533681Y-100127496D01*
X173533061Y-100067228D01*
X173532829Y-99988911D01*
X173532800Y-99922994D01*
X173532871Y-99830628D01*
X173533208Y-99758117D01*
X173533998Y-99702737D01*
X173535426Y-99661765D01*
X173537679Y-99632478D01*
X173540943Y-99612153D01*
X173545404Y-99598066D01*
X173551248Y-99587495D01*
X173556197Y-99580811D01*
X173579594Y-99551067D01*
X173869774Y-99551067D01*
X173966343Y-99551260D01*
X173966343Y-99551260D01*
G37*
X173966343Y-99551260D02*
X174042701Y-99552174D01*
X174101217Y-99554311D01*
X174144255Y-99558175D01*
X174174183Y-99564267D01*
X174193368Y-99573090D01*
X174204176Y-99585146D01*
X174208973Y-99600939D01*
X174210127Y-99620970D01*
X174210133Y-99623335D01*
X174209131Y-99645992D01*
X174204396Y-99663503D01*
X174193333Y-99676574D01*
X174173348Y-99685913D01*
X174141846Y-99692227D01*
X174096232Y-99696222D01*
X174033913Y-99698606D01*
X173952293Y-99700086D01*
X173927277Y-99700414D01*
X173685200Y-99703467D01*
X173681814Y-99768378D01*
X173678429Y-99833289D01*
X173846576Y-99833289D01*
X173912266Y-99833531D01*
X173959172Y-99834556D01*
X173991083Y-99836811D01*
X174011791Y-99840742D01*
X174025084Y-99846798D01*
X174034755Y-99855424D01*
X174034817Y-99855493D01*
X174052356Y-99889112D01*
X174051722Y-99925448D01*
X174033314Y-99956423D01*
X174029671Y-99959607D01*
X174016741Y-99967812D01*
X173999024Y-99973521D01*
X173972570Y-99977162D01*
X173933432Y-99979167D01*
X173877662Y-99979964D01*
X173841994Y-99980045D01*
X173679555Y-99980045D01*
X173679555Y-100138089D01*
X173926161Y-100138089D01*
X174007580Y-100138231D01*
X174069410Y-100138814D01*
X174114637Y-100140068D01*
X174146248Y-100142227D01*
X174167231Y-100145523D01*
X174180573Y-100150189D01*
X174189261Y-100156457D01*
X174191450Y-100158733D01*
X174207614Y-100190280D01*
X174208797Y-100226168D01*
X174195536Y-100257285D01*
X174185043Y-100267271D01*
X174174129Y-100272769D01*
X174157217Y-100277022D01*
X174131633Y-100280180D01*
X174094701Y-100282392D01*
X174043746Y-100283806D01*
X173976094Y-100284572D01*
X173889069Y-100284838D01*
X173869394Y-100284845D01*
X173780911Y-100284787D01*
X173712227Y-100284467D01*
X173660564Y-100283667D01*
X173623145Y-100282167D01*
X173597190Y-100279749D01*
X173579922Y-100276194D01*
X173568562Y-100271282D01*
X173560332Y-100264795D01*
X173555817Y-100260138D01*
X173549021Y-100251889D01*
X173543712Y-100241669D01*
X173539706Y-100226800D01*
X173536821Y-100204602D01*
X173534874Y-100172393D01*
X173533681Y-100127496D01*
X173533061Y-100067228D01*
X173532829Y-99988911D01*
X173532800Y-99922994D01*
X173532871Y-99830628D01*
X173533208Y-99758117D01*
X173533998Y-99702737D01*
X173535426Y-99661765D01*
X173537679Y-99632478D01*
X173540943Y-99612153D01*
X173545404Y-99598066D01*
X173551248Y-99587495D01*
X173556197Y-99580811D01*
X173579594Y-99551067D01*
X173869774Y-99551067D01*
X173966343Y-99551260D01*
G36*
X174754309Y-99551275D02*
X174883288Y-99555636D01*
X174992991Y-99568861D01*
X175085226Y-99591741D01*
X175161802Y-99625070D01*
X175224527Y-99669638D01*
X175275212Y-99726236D01*
X175315663Y-99795658D01*
X175316459Y-99797351D01*
X175340601Y-99859483D01*
X175349203Y-99914509D01*
X175342231Y-99969887D01*
X175319654Y-100033073D01*
X175315372Y-100042689D01*
X175286172Y-100098966D01*
X175253356Y-100142451D01*
X175211002Y-100179417D01*
X175153190Y-100216135D01*
X175149831Y-100218052D01*
X175099504Y-100242227D01*
X175042621Y-100260282D01*
X174975527Y-100272839D01*
X174894565Y-100280522D01*
X174796082Y-100283953D01*
X174761286Y-100284251D01*
X174595594Y-100284845D01*
X174572197Y-100255100D01*
X174565257Y-100245319D01*
X174559842Y-100233897D01*
X174555765Y-100218095D01*
X174552837Y-100195175D01*
X174550867Y-100162396D01*
X174550225Y-100138089D01*
X174706844Y-100138089D01*
X174800726Y-100138089D01*
X174855664Y-100136483D01*
X174912060Y-100132255D01*
X174958345Y-100126292D01*
X174961139Y-100125790D01*
X175043348Y-100103736D01*
X175107114Y-100070600D01*
X175154452Y-100024847D01*
X175187382Y-99964939D01*
X175193108Y-99949061D01*
X175198721Y-99924333D01*
X175196291Y-99899902D01*
X175184467Y-99867400D01*
X175177340Y-99851434D01*
X175154000Y-99809006D01*
X175125880Y-99779240D01*
X175094940Y-99758511D01*
X175032966Y-99731537D01*
X174953651Y-99711998D01*
X174861253Y-99700746D01*
X174794333Y-99698270D01*
X174706844Y-99697822D01*
X174706844Y-100138089D01*
X174550225Y-100138089D01*
X174549668Y-100117021D01*
X174549050Y-100056311D01*
X174548825Y-99977526D01*
X174548800Y-99915920D01*
X174548800Y-99606485D01*
X174576509Y-99578776D01*
X174588806Y-99567544D01*
X174602103Y-99559853D01*
X174620672Y-99555040D01*
X174648786Y-99552446D01*
X174690717Y-99551410D01*
X174750737Y-99551270D01*
X174754309Y-99551275D01*
X174754309Y-99551275D01*
G37*
X174754309Y-99551275D02*
X174883288Y-99555636D01*
X174992991Y-99568861D01*
X175085226Y-99591741D01*
X175161802Y-99625070D01*
X175224527Y-99669638D01*
X175275212Y-99726236D01*
X175315663Y-99795658D01*
X175316459Y-99797351D01*
X175340601Y-99859483D01*
X175349203Y-99914509D01*
X175342231Y-99969887D01*
X175319654Y-100033073D01*
X175315372Y-100042689D01*
X175286172Y-100098966D01*
X175253356Y-100142451D01*
X175211002Y-100179417D01*
X175153190Y-100216135D01*
X175149831Y-100218052D01*
X175099504Y-100242227D01*
X175042621Y-100260282D01*
X174975527Y-100272839D01*
X174894565Y-100280522D01*
X174796082Y-100283953D01*
X174761286Y-100284251D01*
X174595594Y-100284845D01*
X174572197Y-100255100D01*
X174565257Y-100245319D01*
X174559842Y-100233897D01*
X174555765Y-100218095D01*
X174552837Y-100195175D01*
X174550867Y-100162396D01*
X174550225Y-100138089D01*
X174706844Y-100138089D01*
X174800726Y-100138089D01*
X174855664Y-100136483D01*
X174912060Y-100132255D01*
X174958345Y-100126292D01*
X174961139Y-100125790D01*
X175043348Y-100103736D01*
X175107114Y-100070600D01*
X175154452Y-100024847D01*
X175187382Y-99964939D01*
X175193108Y-99949061D01*
X175198721Y-99924333D01*
X175196291Y-99899902D01*
X175184467Y-99867400D01*
X175177340Y-99851434D01*
X175154000Y-99809006D01*
X175125880Y-99779240D01*
X175094940Y-99758511D01*
X175032966Y-99731537D01*
X174953651Y-99711998D01*
X174861253Y-99700746D01*
X174794333Y-99698270D01*
X174706844Y-99697822D01*
X174706844Y-100138089D01*
X174550225Y-100138089D01*
X174549668Y-100117021D01*
X174549050Y-100056311D01*
X174548825Y-99977526D01*
X174548800Y-99915920D01*
X174548800Y-99606485D01*
X174576509Y-99578776D01*
X174588806Y-99567544D01*
X174602103Y-99559853D01*
X174620672Y-99555040D01*
X174648786Y-99552446D01*
X174690717Y-99551410D01*
X174750737Y-99551270D01*
X174754309Y-99551275D01*
G36*
X177480665Y-99553034D02*
X177500255Y-99560035D01*
X177501010Y-99560377D01*
X177527613Y-99580678D01*
X177542270Y-99601561D01*
X177545138Y-99611352D01*
X177544996Y-99624361D01*
X177540961Y-99642895D01*
X177532146Y-99669257D01*
X177517669Y-99705752D01*
X177496645Y-99754687D01*
X177468188Y-99818365D01*
X177431415Y-99899093D01*
X177411175Y-99943216D01*
X177374625Y-100021985D01*
X177340315Y-100094423D01*
X177309552Y-100157880D01*
X177283648Y-100209708D01*
X177263910Y-100247259D01*
X177251650Y-100267884D01*
X177249224Y-100270733D01*
X177218183Y-100283302D01*
X177183121Y-100281619D01*
X177155000Y-100266332D01*
X177153854Y-100265089D01*
X177142668Y-100248154D01*
X177123904Y-100215170D01*
X177099875Y-100170380D01*
X177072897Y-100118032D01*
X177063201Y-100098742D01*
X176990014Y-99952150D01*
X176910240Y-100111393D01*
X176881767Y-100166415D01*
X176855350Y-100214132D01*
X176833148Y-100250893D01*
X176817319Y-100273044D01*
X176811954Y-100277741D01*
X176770257Y-100284102D01*
X176735849Y-100270733D01*
X176725728Y-100256446D01*
X176708214Y-100224692D01*
X176684735Y-100178597D01*
X176656720Y-100121285D01*
X176625599Y-100055880D01*
X176592799Y-99985507D01*
X176559750Y-99913291D01*
X176527881Y-99842355D01*
X176498619Y-99775825D01*
X176473395Y-99716826D01*
X176453636Y-99668481D01*
X176440772Y-99633915D01*
X176436231Y-99616253D01*
X176436277Y-99615613D01*
X176447326Y-99593388D01*
X176469410Y-99570753D01*
X176470710Y-99569768D01*
X176497853Y-99554425D01*
X176522958Y-99554574D01*
X176532368Y-99557466D01*
X176543834Y-99563718D01*
X176556010Y-99576014D01*
X176570357Y-99596908D01*
X176588336Y-99628949D01*
X176611407Y-99674688D01*
X176641030Y-99736677D01*
X176667745Y-99793898D01*
X176698480Y-99860226D01*
X176726021Y-99919874D01*
X176748938Y-99969725D01*
X176765798Y-100006664D01*
X176775173Y-100027573D01*
X176776540Y-100030845D01*
X176782689Y-100025497D01*
X176796822Y-100003109D01*
X176817057Y-99966946D01*
X176841515Y-99920277D01*
X176851248Y-99901022D01*
X176884217Y-99836004D01*
X176909643Y-99788654D01*
X176929612Y-99756219D01*
X176946210Y-99735946D01*
X176961524Y-99725082D01*
X176977640Y-99720875D01*
X176988143Y-99720400D01*
X177006670Y-99722042D01*
X177022904Y-99728831D01*
X177039035Y-99743566D01*
X177057251Y-99769044D01*
X177079739Y-99808061D01*
X177108689Y-99863414D01*
X177124662Y-99894903D01*
X177150570Y-99945087D01*
X177173167Y-99986704D01*
X177190458Y-100016242D01*
X177200450Y-100030189D01*
X177201809Y-100030770D01*
X177208261Y-100019793D01*
X177222708Y-99991290D01*
X177243703Y-99948244D01*
X177269797Y-99893638D01*
X177299546Y-99830454D01*
X177314180Y-99799071D01*
X177352250Y-99718078D01*
X177382905Y-99655756D01*
X177407737Y-99610071D01*
X177428337Y-99578989D01*
X177446298Y-99560478D01*
X177463210Y-99552504D01*
X177480665Y-99553034D01*
X177480665Y-99553034D01*
G37*
X177480665Y-99553034D02*
X177500255Y-99560035D01*
X177501010Y-99560377D01*
X177527613Y-99580678D01*
X177542270Y-99601561D01*
X177545138Y-99611352D01*
X177544996Y-99624361D01*
X177540961Y-99642895D01*
X177532146Y-99669257D01*
X177517669Y-99705752D01*
X177496645Y-99754687D01*
X177468188Y-99818365D01*
X177431415Y-99899093D01*
X177411175Y-99943216D01*
X177374625Y-100021985D01*
X177340315Y-100094423D01*
X177309552Y-100157880D01*
X177283648Y-100209708D01*
X177263910Y-100247259D01*
X177251650Y-100267884D01*
X177249224Y-100270733D01*
X177218183Y-100283302D01*
X177183121Y-100281619D01*
X177155000Y-100266332D01*
X177153854Y-100265089D01*
X177142668Y-100248154D01*
X177123904Y-100215170D01*
X177099875Y-100170380D01*
X177072897Y-100118032D01*
X177063201Y-100098742D01*
X176990014Y-99952150D01*
X176910240Y-100111393D01*
X176881767Y-100166415D01*
X176855350Y-100214132D01*
X176833148Y-100250893D01*
X176817319Y-100273044D01*
X176811954Y-100277741D01*
X176770257Y-100284102D01*
X176735849Y-100270733D01*
X176725728Y-100256446D01*
X176708214Y-100224692D01*
X176684735Y-100178597D01*
X176656720Y-100121285D01*
X176625599Y-100055880D01*
X176592799Y-99985507D01*
X176559750Y-99913291D01*
X176527881Y-99842355D01*
X176498619Y-99775825D01*
X176473395Y-99716826D01*
X176453636Y-99668481D01*
X176440772Y-99633915D01*
X176436231Y-99616253D01*
X176436277Y-99615613D01*
X176447326Y-99593388D01*
X176469410Y-99570753D01*
X176470710Y-99569768D01*
X176497853Y-99554425D01*
X176522958Y-99554574D01*
X176532368Y-99557466D01*
X176543834Y-99563718D01*
X176556010Y-99576014D01*
X176570357Y-99596908D01*
X176588336Y-99628949D01*
X176611407Y-99674688D01*
X176641030Y-99736677D01*
X176667745Y-99793898D01*
X176698480Y-99860226D01*
X176726021Y-99919874D01*
X176748938Y-99969725D01*
X176765798Y-100006664D01*
X176775173Y-100027573D01*
X176776540Y-100030845D01*
X176782689Y-100025497D01*
X176796822Y-100003109D01*
X176817057Y-99966946D01*
X176841515Y-99920277D01*
X176851248Y-99901022D01*
X176884217Y-99836004D01*
X176909643Y-99788654D01*
X176929612Y-99756219D01*
X176946210Y-99735946D01*
X176961524Y-99725082D01*
X176977640Y-99720875D01*
X176988143Y-99720400D01*
X177006670Y-99722042D01*
X177022904Y-99728831D01*
X177039035Y-99743566D01*
X177057251Y-99769044D01*
X177079739Y-99808061D01*
X177108689Y-99863414D01*
X177124662Y-99894903D01*
X177150570Y-99945087D01*
X177173167Y-99986704D01*
X177190458Y-100016242D01*
X177200450Y-100030189D01*
X177201809Y-100030770D01*
X177208261Y-100019793D01*
X177222708Y-99991290D01*
X177243703Y-99948244D01*
X177269797Y-99893638D01*
X177299546Y-99830454D01*
X177314180Y-99799071D01*
X177352250Y-99718078D01*
X177382905Y-99655756D01*
X177407737Y-99610071D01*
X177428337Y-99578989D01*
X177446298Y-99560478D01*
X177463210Y-99552504D01*
X177480665Y-99553034D01*
G36*
X177924614Y-99557877D02*
X177948327Y-99572647D01*
X177974978Y-99594227D01*
X177974978Y-99915773D01*
X177974893Y-100009830D01*
X177974529Y-100083932D01*
X177973724Y-100140704D01*
X177972313Y-100182768D01*
X177970133Y-100212748D01*
X177967021Y-100233267D01*
X177962814Y-100246949D01*
X177957348Y-100256416D01*
X177953472Y-100261082D01*
X177922034Y-100281575D01*
X177886233Y-100280739D01*
X177854873Y-100263264D01*
X177828222Y-100241684D01*
X177828222Y-99594227D01*
X177854873Y-99572647D01*
X177880594Y-99556949D01*
X177901600Y-99551067D01*
X177924614Y-99557877D01*
X177924614Y-99557877D01*
G37*
X177924614Y-99557877D02*
X177948327Y-99572647D01*
X177974978Y-99594227D01*
X177974978Y-99915773D01*
X177974893Y-100009830D01*
X177974529Y-100083932D01*
X177973724Y-100140704D01*
X177972313Y-100182768D01*
X177970133Y-100212748D01*
X177967021Y-100233267D01*
X177962814Y-100246949D01*
X177957348Y-100256416D01*
X177953472Y-100261082D01*
X177922034Y-100281575D01*
X177886233Y-100280739D01*
X177854873Y-100263264D01*
X177828222Y-100241684D01*
X177828222Y-99594227D01*
X177854873Y-99572647D01*
X177880594Y-99556949D01*
X177901600Y-99551067D01*
X177924614Y-99557877D01*
G36*
X178699065Y-99551163D02*
X178777772Y-99551542D01*
X178838863Y-99552333D01*
X178884817Y-99553670D01*
X178918114Y-99555683D01*
X178941236Y-99558506D01*
X178956662Y-99562269D01*
X178966871Y-99567105D01*
X178971813Y-99570822D01*
X178997457Y-99603358D01*
X179000559Y-99637138D01*
X178984711Y-99667826D01*
X178974348Y-99680089D01*
X178963196Y-99688450D01*
X178947035Y-99693657D01*
X178921642Y-99696457D01*
X178882798Y-99697596D01*
X178826280Y-99697821D01*
X178815180Y-99697822D01*
X178669244Y-99697822D01*
X178669244Y-99968756D01*
X178669148Y-100054154D01*
X178668711Y-100119864D01*
X178667712Y-100168774D01*
X178665928Y-100203773D01*
X178663137Y-100227749D01*
X178659117Y-100243593D01*
X178653645Y-100254191D01*
X178646666Y-100262267D01*
X178613734Y-100282112D01*
X178579354Y-100280548D01*
X178548176Y-100257906D01*
X178545886Y-100255100D01*
X178538429Y-100244492D01*
X178532747Y-100232081D01*
X178528601Y-100214850D01*
X178525750Y-100189784D01*
X178523954Y-100153867D01*
X178522972Y-100104083D01*
X178522564Y-100037417D01*
X178522489Y-99961589D01*
X178522489Y-99697822D01*
X178383127Y-99697822D01*
X178323322Y-99697418D01*
X178281918Y-99695840D01*
X178254748Y-99692547D01*
X178237646Y-99686992D01*
X178226443Y-99678631D01*
X178225083Y-99677178D01*
X178208725Y-99643939D01*
X178210172Y-99606362D01*
X178228978Y-99573645D01*
X178236250Y-99567298D01*
X178245627Y-99562266D01*
X178259609Y-99558396D01*
X178280696Y-99555537D01*
X178311389Y-99553535D01*
X178354189Y-99552239D01*
X178411595Y-99551498D01*
X178486110Y-99551158D01*
X178580233Y-99551068D01*
X178600260Y-99551067D01*
X178699065Y-99551163D01*
X178699065Y-99551163D01*
G37*
X178699065Y-99551163D02*
X178777772Y-99551542D01*
X178838863Y-99552333D01*
X178884817Y-99553670D01*
X178918114Y-99555683D01*
X178941236Y-99558506D01*
X178956662Y-99562269D01*
X178966871Y-99567105D01*
X178971813Y-99570822D01*
X178997457Y-99603358D01*
X179000559Y-99637138D01*
X178984711Y-99667826D01*
X178974348Y-99680089D01*
X178963196Y-99688450D01*
X178947035Y-99693657D01*
X178921642Y-99696457D01*
X178882798Y-99697596D01*
X178826280Y-99697821D01*
X178815180Y-99697822D01*
X178669244Y-99697822D01*
X178669244Y-99968756D01*
X178669148Y-100054154D01*
X178668711Y-100119864D01*
X178667712Y-100168774D01*
X178665928Y-100203773D01*
X178663137Y-100227749D01*
X178659117Y-100243593D01*
X178653645Y-100254191D01*
X178646666Y-100262267D01*
X178613734Y-100282112D01*
X178579354Y-100280548D01*
X178548176Y-100257906D01*
X178545886Y-100255100D01*
X178538429Y-100244492D01*
X178532747Y-100232081D01*
X178528601Y-100214850D01*
X178525750Y-100189784D01*
X178523954Y-100153867D01*
X178522972Y-100104083D01*
X178522564Y-100037417D01*
X178522489Y-99961589D01*
X178522489Y-99697822D01*
X178383127Y-99697822D01*
X178323322Y-99697418D01*
X178281918Y-99695840D01*
X178254748Y-99692547D01*
X178237646Y-99686992D01*
X178226443Y-99678631D01*
X178225083Y-99677178D01*
X178208725Y-99643939D01*
X178210172Y-99606362D01*
X178228978Y-99573645D01*
X178236250Y-99567298D01*
X178245627Y-99562266D01*
X178259609Y-99558396D01*
X178280696Y-99555537D01*
X178311389Y-99553535D01*
X178354189Y-99552239D01*
X178411595Y-99551498D01*
X178486110Y-99551158D01*
X178580233Y-99551068D01*
X178600260Y-99551067D01*
X178699065Y-99551163D01*
G36*
X179964823Y-99556533D02*
X179996202Y-99578776D01*
X180023911Y-99606485D01*
X180023911Y-99915920D01*
X180023838Y-100007799D01*
X180023495Y-100079840D01*
X180022692Y-100134780D01*
X180021241Y-100175360D01*
X180018952Y-100204317D01*
X180015636Y-100224391D01*
X180011105Y-100238321D01*
X180005169Y-100248845D01*
X180000514Y-100255100D01*
X179969783Y-100279673D01*
X179934496Y-100282341D01*
X179902245Y-100267271D01*
X179891588Y-100258374D01*
X179884464Y-100246557D01*
X179880167Y-100227526D01*
X179877991Y-100196992D01*
X179877228Y-100150662D01*
X179877155Y-100114871D01*
X179877155Y-99980045D01*
X179380444Y-99980045D01*
X179380444Y-100102700D01*
X179379931Y-100158787D01*
X179377876Y-100197333D01*
X179373508Y-100223361D01*
X179366056Y-100241897D01*
X179357047Y-100255100D01*
X179326144Y-100279604D01*
X179291196Y-100282506D01*
X179257738Y-100265089D01*
X179248604Y-100255959D01*
X179242152Y-100243855D01*
X179237897Y-100225001D01*
X179235352Y-100195620D01*
X179234029Y-100151937D01*
X179233443Y-100090175D01*
X179233375Y-100076000D01*
X179232891Y-99959631D01*
X179232641Y-99863727D01*
X179232723Y-99786177D01*
X179233231Y-99724869D01*
X179234262Y-99677690D01*
X179235913Y-99642530D01*
X179238279Y-99617276D01*
X179241457Y-99599817D01*
X179245544Y-99588041D01*
X179250634Y-99579835D01*
X179256266Y-99573645D01*
X179288128Y-99553844D01*
X179321357Y-99556533D01*
X179352735Y-99578776D01*
X179365433Y-99593126D01*
X179373526Y-99608978D01*
X179378042Y-99631554D01*
X179380006Y-99666078D01*
X179380444Y-99717776D01*
X179380444Y-99833289D01*
X179877155Y-99833289D01*
X179877155Y-99714756D01*
X179877662Y-99660148D01*
X179879698Y-99623275D01*
X179884035Y-99599307D01*
X179891447Y-99583415D01*
X179899733Y-99573645D01*
X179931594Y-99553844D01*
X179964823Y-99556533D01*
X179964823Y-99556533D01*
G37*
X179964823Y-99556533D02*
X179996202Y-99578776D01*
X180023911Y-99606485D01*
X180023911Y-99915920D01*
X180023838Y-100007799D01*
X180023495Y-100079840D01*
X180022692Y-100134780D01*
X180021241Y-100175360D01*
X180018952Y-100204317D01*
X180015636Y-100224391D01*
X180011105Y-100238321D01*
X180005169Y-100248845D01*
X180000514Y-100255100D01*
X179969783Y-100279673D01*
X179934496Y-100282341D01*
X179902245Y-100267271D01*
X179891588Y-100258374D01*
X179884464Y-100246557D01*
X179880167Y-100227526D01*
X179877991Y-100196992D01*
X179877228Y-100150662D01*
X179877155Y-100114871D01*
X179877155Y-99980045D01*
X179380444Y-99980045D01*
X179380444Y-100102700D01*
X179379931Y-100158787D01*
X179377876Y-100197333D01*
X179373508Y-100223361D01*
X179366056Y-100241897D01*
X179357047Y-100255100D01*
X179326144Y-100279604D01*
X179291196Y-100282506D01*
X179257738Y-100265089D01*
X179248604Y-100255959D01*
X179242152Y-100243855D01*
X179237897Y-100225001D01*
X179235352Y-100195620D01*
X179234029Y-100151937D01*
X179233443Y-100090175D01*
X179233375Y-100076000D01*
X179232891Y-99959631D01*
X179232641Y-99863727D01*
X179232723Y-99786177D01*
X179233231Y-99724869D01*
X179234262Y-99677690D01*
X179235913Y-99642530D01*
X179238279Y-99617276D01*
X179241457Y-99599817D01*
X179245544Y-99588041D01*
X179250634Y-99579835D01*
X179256266Y-99573645D01*
X179288128Y-99553844D01*
X179321357Y-99556533D01*
X179352735Y-99578776D01*
X179365433Y-99593126D01*
X179373526Y-99608978D01*
X179378042Y-99631554D01*
X179380006Y-99666078D01*
X179380444Y-99717776D01*
X179380444Y-99833289D01*
X179877155Y-99833289D01*
X179877155Y-99714756D01*
X179877662Y-99660148D01*
X179879698Y-99623275D01*
X179884035Y-99599307D01*
X179891447Y-99583415D01*
X179899733Y-99573645D01*
X179931594Y-99553844D01*
X179964823Y-99556533D01*
G36*
X170789600Y-94771054D02*
X170800465Y-94884993D01*
X170832082Y-94992616D01*
X170882985Y-95091615D01*
X170951707Y-95179684D01*
X171036781Y-95254516D01*
X171133768Y-95312384D01*
X171240036Y-95352005D01*
X171347050Y-95370573D01*
X171452700Y-95369434D01*
X171554875Y-95349930D01*
X171651466Y-95313406D01*
X171740362Y-95261205D01*
X171819454Y-95194673D01*
X171886631Y-95115152D01*
X171939783Y-95023987D01*
X171976801Y-94922523D01*
X171995573Y-94812102D01*
X171997511Y-94762206D01*
X171997511Y-94674267D01*
X172049440Y-94674267D01*
X172085747Y-94677111D01*
X172112645Y-94688911D01*
X172139751Y-94712649D01*
X172178133Y-94751031D01*
X172178133Y-96942602D01*
X172178124Y-97204739D01*
X172178092Y-97445241D01*
X172178028Y-97665048D01*
X172177924Y-97865101D01*
X172177773Y-98046344D01*
X172177566Y-98209716D01*
X172177294Y-98356160D01*
X172176950Y-98486617D01*
X172176526Y-98602029D01*
X172176013Y-98703338D01*
X172175403Y-98791484D01*
X172174688Y-98867410D01*
X172173860Y-98932057D01*
X172172911Y-98986367D01*
X172171833Y-99031280D01*
X172170617Y-99067740D01*
X172169255Y-99096687D01*
X172167739Y-99119063D01*
X172166062Y-99135809D01*
X172164214Y-99147868D01*
X172162187Y-99156180D01*
X172159975Y-99161687D01*
X172158892Y-99163537D01*
X172154729Y-99170549D01*
X172151195Y-99176996D01*
X172147365Y-99182900D01*
X172142318Y-99188286D01*
X172135129Y-99193178D01*
X172124877Y-99197598D01*
X172110636Y-99201572D01*
X172091486Y-99205121D01*
X172066501Y-99208270D01*
X172034760Y-99211042D01*
X171995338Y-99213461D01*
X171947314Y-99215551D01*
X171889763Y-99217335D01*
X171821763Y-99218837D01*
X171742390Y-99220080D01*
X171650721Y-99221089D01*
X171545834Y-99221885D01*
X171426804Y-99222494D01*
X171292710Y-99222939D01*
X171142627Y-99223243D01*
X170975633Y-99223430D01*
X170790804Y-99223524D01*
X170587217Y-99223548D01*
X170363950Y-99223525D01*
X170120078Y-99223480D01*
X169854679Y-99223437D01*
X169816296Y-99223432D01*
X169549318Y-99223389D01*
X169303998Y-99223318D01*
X169079417Y-99223213D01*
X168874655Y-99223066D01*
X168688794Y-99222869D01*
X168520912Y-99222616D01*
X168370092Y-99222300D01*
X168235413Y-99221913D01*
X168115956Y-99221447D01*
X168010801Y-99220897D01*
X167919029Y-99220253D01*
X167839721Y-99219511D01*
X167771957Y-99218661D01*
X167714818Y-99217697D01*
X167667383Y-99216611D01*
X167628734Y-99215397D01*
X167597951Y-99214047D01*
X167574115Y-99212555D01*
X167556306Y-99210911D01*
X167543605Y-99209111D01*
X167535092Y-99207145D01*
X167530734Y-99205477D01*
X167522272Y-99201906D01*
X167514503Y-99199270D01*
X167507398Y-99196634D01*
X167500927Y-99193062D01*
X167495061Y-99187621D01*
X167489771Y-99179375D01*
X167485026Y-99167390D01*
X167480798Y-99150731D01*
X167477057Y-99128463D01*
X167473773Y-99099652D01*
X167470917Y-99063363D01*
X167468460Y-99018661D01*
X167466371Y-98964611D01*
X167464622Y-98900279D01*
X167463183Y-98824730D01*
X167462024Y-98737030D01*
X167461117Y-98636243D01*
X167460431Y-98521434D01*
X167459937Y-98391670D01*
X167459605Y-98246015D01*
X167459407Y-98083535D01*
X167459313Y-97903295D01*
X167459292Y-97704360D01*
X167459315Y-97485796D01*
X167459354Y-97246668D01*
X167459378Y-96986040D01*
X167459378Y-96943889D01*
X167459364Y-96680992D01*
X167459339Y-96439732D01*
X167459329Y-96219165D01*
X167459358Y-96018352D01*
X167459452Y-95836349D01*
X167459638Y-95672216D01*
X167459941Y-95525011D01*
X167460386Y-95393792D01*
X167460966Y-95283867D01*
X167763803Y-95283867D01*
X167803593Y-95341711D01*
X167814764Y-95357479D01*
X167824834Y-95371441D01*
X167833862Y-95384784D01*
X167841903Y-95398693D01*
X167849014Y-95414356D01*
X167855253Y-95432958D01*
X167860675Y-95455686D01*
X167865338Y-95483727D01*
X167869299Y-95518267D01*
X167872615Y-95560492D01*
X167875341Y-95611589D01*
X167877536Y-95672744D01*
X167879255Y-95745144D01*
X167880556Y-95829975D01*
X167881495Y-95928422D01*
X167882130Y-96041674D01*
X167882516Y-96170916D01*
X167882712Y-96317334D01*
X167882773Y-96482116D01*
X167882757Y-96666447D01*
X167882720Y-96871513D01*
X167882711Y-96994133D01*
X167882735Y-97211082D01*
X167882769Y-97406642D01*
X167882757Y-97581999D01*
X167882642Y-97738341D01*
X167882370Y-97876857D01*
X167881882Y-97998734D01*
X167881124Y-98105160D01*
X167880038Y-98197322D01*
X167878569Y-98276409D01*
X167876660Y-98343608D01*
X167874256Y-98400107D01*
X167871299Y-98447093D01*
X167867734Y-98485755D01*
X167863505Y-98517280D01*
X167858554Y-98542855D01*
X167852827Y-98563670D01*
X167846267Y-98580911D01*
X167838817Y-98595765D01*
X167830421Y-98609422D01*
X167821024Y-98623069D01*
X167810568Y-98637893D01*
X167804477Y-98646783D01*
X167765704Y-98704400D01*
X168297268Y-98704400D01*
X168420517Y-98704365D01*
X168523013Y-98704215D01*
X168606580Y-98703878D01*
X168673044Y-98703286D01*
X168724229Y-98702367D01*
X168761959Y-98701051D01*
X168788060Y-98699269D01*
X168804356Y-98696951D01*
X168812672Y-98694026D01*
X168814832Y-98690424D01*
X168812661Y-98686075D01*
X168811465Y-98684645D01*
X168786315Y-98647573D01*
X168760417Y-98594772D01*
X168736808Y-98532770D01*
X168728539Y-98506357D01*
X168723922Y-98488416D01*
X168720021Y-98467355D01*
X168716752Y-98441089D01*
X168714034Y-98407532D01*
X168711785Y-98364599D01*
X168709923Y-98310204D01*
X168708364Y-98242262D01*
X168707028Y-98158688D01*
X168705831Y-98057395D01*
X168704692Y-97936300D01*
X168704315Y-97891600D01*
X168703298Y-97766449D01*
X168702540Y-97662082D01*
X168702097Y-97576707D01*
X168702030Y-97508533D01*
X168702395Y-97455765D01*
X168703252Y-97416614D01*
X168704659Y-97389285D01*
X168706675Y-97371986D01*
X168709357Y-97362926D01*
X168712764Y-97360312D01*
X168716956Y-97362351D01*
X168721429Y-97366667D01*
X168731784Y-97379602D01*
X168753842Y-97408676D01*
X168786043Y-97451759D01*
X168826826Y-97506718D01*
X168874630Y-97571423D01*
X168927895Y-97643742D01*
X168985060Y-97721544D01*
X169044563Y-97802698D01*
X169104845Y-97885072D01*
X169164345Y-97966536D01*
X169221502Y-98044957D01*
X169274755Y-98118204D01*
X169322543Y-98184147D01*
X169363307Y-98240654D01*
X169395484Y-98285593D01*
X169417515Y-98316834D01*
X169422083Y-98323466D01*
X169445004Y-98360369D01*
X169471812Y-98408359D01*
X169497211Y-98457897D01*
X169500432Y-98464577D01*
X169522110Y-98512772D01*
X169534696Y-98550334D01*
X169540426Y-98586160D01*
X169541544Y-98628200D01*
X169540910Y-98704400D01*
X170695349Y-98704400D01*
X170604185Y-98610669D01*
X170557388Y-98560775D01*
X170507101Y-98504295D01*
X170461056Y-98450026D01*
X170440631Y-98424673D01*
X170410193Y-98385128D01*
X170370138Y-98331916D01*
X170321639Y-98266667D01*
X170265865Y-98191011D01*
X170203989Y-98106577D01*
X170137181Y-98014994D01*
X170066613Y-97917892D01*
X169993455Y-97816901D01*
X169918879Y-97713650D01*
X169844056Y-97609768D01*
X169770157Y-97506885D01*
X169698354Y-97406631D01*
X169629816Y-97310636D01*
X169565716Y-97220527D01*
X169507225Y-97137936D01*
X169455514Y-97064492D01*
X169411753Y-97001824D01*
X169377115Y-96951561D01*
X169352770Y-96915334D01*
X169339889Y-96894771D01*
X169338131Y-96890668D01*
X169346090Y-96879342D01*
X169366885Y-96852162D01*
X169399153Y-96810829D01*
X169441530Y-96757044D01*
X169492653Y-96692506D01*
X169551159Y-96618918D01*
X169615686Y-96537978D01*
X169684869Y-96451388D01*
X169757347Y-96360848D01*
X169831754Y-96268060D01*
X169891483Y-96193702D01*
X170902489Y-96193702D01*
X170908398Y-96206659D01*
X170922728Y-96228908D01*
X170923775Y-96230391D01*
X170942562Y-96260544D01*
X170962209Y-96297375D01*
X170966108Y-96305511D01*
X170969644Y-96313940D01*
X170972770Y-96324059D01*
X170975514Y-96337260D01*
X170977908Y-96354938D01*
X170979981Y-96378484D01*
X170981765Y-96409293D01*
X170983288Y-96448757D01*
X170984581Y-96498269D01*
X170985674Y-96559223D01*
X170986597Y-96633011D01*
X170987381Y-96721028D01*
X170988055Y-96824665D01*
X170988650Y-96945316D01*
X170989195Y-97084374D01*
X170989721Y-97243232D01*
X170990255Y-97422089D01*
X170990794Y-97607207D01*
X170991228Y-97771145D01*
X170991491Y-97915303D01*
X170991516Y-98041079D01*
X170991235Y-98149871D01*
X170990581Y-98243077D01*
X170989486Y-98322097D01*
X170987882Y-98388328D01*
X170985703Y-98443170D01*
X170982881Y-98488021D01*
X170979349Y-98524278D01*
X170975039Y-98553341D01*
X170969883Y-98576609D01*
X170963815Y-98595479D01*
X170956767Y-98611351D01*
X170948671Y-98625622D01*
X170939460Y-98639691D01*
X170930960Y-98652158D01*
X170913824Y-98678452D01*
X170903678Y-98696037D01*
X170902489Y-98699257D01*
X170913396Y-98700334D01*
X170944589Y-98701335D01*
X170993777Y-98702235D01*
X171058667Y-98703010D01*
X171136970Y-98703637D01*
X171226393Y-98704091D01*
X171324644Y-98704349D01*
X171393555Y-98704400D01*
X171498548Y-98704180D01*
X171595390Y-98703548D01*
X171681893Y-98702549D01*
X171755868Y-98701227D01*
X171815126Y-98699626D01*
X171857480Y-98697791D01*
X171880740Y-98695765D01*
X171884622Y-98694493D01*
X171876924Y-98679591D01*
X171868926Y-98671560D01*
X171855754Y-98654434D01*
X171838515Y-98624183D01*
X171826593Y-98599622D01*
X171799955Y-98540711D01*
X171796880Y-97363845D01*
X171793805Y-96186978D01*
X171348147Y-96186978D01*
X171250330Y-96187142D01*
X171159936Y-96187611D01*
X171079370Y-96188347D01*
X171011038Y-96189316D01*
X170957344Y-96190480D01*
X170920695Y-96191803D01*
X170903496Y-96193249D01*
X170902489Y-96193702D01*
X169891483Y-96193702D01*
X169906730Y-96174722D01*
X169980910Y-96082537D01*
X170052931Y-95993204D01*
X170121431Y-95908424D01*
X170185045Y-95829898D01*
X170242412Y-95759326D01*
X170292167Y-95698409D01*
X170332948Y-95648847D01*
X170350112Y-95628178D01*
X170436404Y-95527516D01*
X170513003Y-95444259D01*
X170581817Y-95376438D01*
X170644752Y-95322089D01*
X170654133Y-95314722D01*
X170693644Y-95284117D01*
X169561884Y-95283867D01*
X169567173Y-95331844D01*
X169563870Y-95389188D01*
X169542339Y-95457463D01*
X169502365Y-95537212D01*
X169457057Y-95609495D01*
X169440839Y-95632140D01*
X169412786Y-95669696D01*
X169374570Y-95720021D01*
X169327863Y-95780973D01*
X169274339Y-95850411D01*
X169215669Y-95926194D01*
X169153525Y-96006180D01*
X169089579Y-96088228D01*
X169025505Y-96170196D01*
X168962973Y-96249943D01*
X168903657Y-96325327D01*
X168849229Y-96394207D01*
X168801361Y-96454442D01*
X168761725Y-96503889D01*
X168731994Y-96540408D01*
X168713839Y-96561858D01*
X168710780Y-96565156D01*
X168707921Y-96557149D01*
X168705707Y-96526855D01*
X168704143Y-96474556D01*
X168703233Y-96400531D01*
X168702980Y-96305063D01*
X168703387Y-96188434D01*
X168704296Y-96068445D01*
X168705618Y-95936333D01*
X168707143Y-95824594D01*
X168709119Y-95731025D01*
X168711794Y-95653419D01*
X168715418Y-95589574D01*
X168720239Y-95537283D01*
X168726506Y-95494344D01*
X168734468Y-95458551D01*
X168744373Y-95427700D01*
X168756469Y-95399586D01*
X168771007Y-95372005D01*
X168785689Y-95346966D01*
X168823686Y-95283867D01*
X167763803Y-95283867D01*
X167460966Y-95283867D01*
X167460999Y-95277617D01*
X167461805Y-95175544D01*
X167462830Y-95086633D01*
X167464100Y-95009941D01*
X167465640Y-94944527D01*
X167467476Y-94889449D01*
X167469633Y-94843765D01*
X167472137Y-94806534D01*
X167475013Y-94776813D01*
X167478287Y-94753662D01*
X167481985Y-94736139D01*
X167486131Y-94723301D01*
X167490753Y-94714208D01*
X167495874Y-94707918D01*
X167501522Y-94703488D01*
X167507721Y-94699978D01*
X167514496Y-94696445D01*
X167520492Y-94692876D01*
X167525725Y-94690300D01*
X167533901Y-94687972D01*
X167546114Y-94685878D01*
X167563459Y-94684007D01*
X167587031Y-94682347D01*
X167617923Y-94680884D01*
X167657232Y-94679608D01*
X167706050Y-94678504D01*
X167765473Y-94677561D01*
X167836596Y-94676767D01*
X167920512Y-94676109D01*
X168018317Y-94675575D01*
X168131106Y-94675153D01*
X168259971Y-94674829D01*
X168406009Y-94674592D01*
X168570314Y-94674430D01*
X168753980Y-94674330D01*
X168958103Y-94674280D01*
X169169247Y-94674267D01*
X170789600Y-94674267D01*
X170789600Y-94771054D01*
X170789600Y-94771054D01*
G37*
X170789600Y-94771054D02*
X170800465Y-94884993D01*
X170832082Y-94992616D01*
X170882985Y-95091615D01*
X170951707Y-95179684D01*
X171036781Y-95254516D01*
X171133768Y-95312384D01*
X171240036Y-95352005D01*
X171347050Y-95370573D01*
X171452700Y-95369434D01*
X171554875Y-95349930D01*
X171651466Y-95313406D01*
X171740362Y-95261205D01*
X171819454Y-95194673D01*
X171886631Y-95115152D01*
X171939783Y-95023987D01*
X171976801Y-94922523D01*
X171995573Y-94812102D01*
X171997511Y-94762206D01*
X171997511Y-94674267D01*
X172049440Y-94674267D01*
X172085747Y-94677111D01*
X172112645Y-94688911D01*
X172139751Y-94712649D01*
X172178133Y-94751031D01*
X172178133Y-96942602D01*
X172178124Y-97204739D01*
X172178092Y-97445241D01*
X172178028Y-97665048D01*
X172177924Y-97865101D01*
X172177773Y-98046344D01*
X172177566Y-98209716D01*
X172177294Y-98356160D01*
X172176950Y-98486617D01*
X172176526Y-98602029D01*
X172176013Y-98703338D01*
X172175403Y-98791484D01*
X172174688Y-98867410D01*
X172173860Y-98932057D01*
X172172911Y-98986367D01*
X172171833Y-99031280D01*
X172170617Y-99067740D01*
X172169255Y-99096687D01*
X172167739Y-99119063D01*
X172166062Y-99135809D01*
X172164214Y-99147868D01*
X172162187Y-99156180D01*
X172159975Y-99161687D01*
X172158892Y-99163537D01*
X172154729Y-99170549D01*
X172151195Y-99176996D01*
X172147365Y-99182900D01*
X172142318Y-99188286D01*
X172135129Y-99193178D01*
X172124877Y-99197598D01*
X172110636Y-99201572D01*
X172091486Y-99205121D01*
X172066501Y-99208270D01*
X172034760Y-99211042D01*
X171995338Y-99213461D01*
X171947314Y-99215551D01*
X171889763Y-99217335D01*
X171821763Y-99218837D01*
X171742390Y-99220080D01*
X171650721Y-99221089D01*
X171545834Y-99221885D01*
X171426804Y-99222494D01*
X171292710Y-99222939D01*
X171142627Y-99223243D01*
X170975633Y-99223430D01*
X170790804Y-99223524D01*
X170587217Y-99223548D01*
X170363950Y-99223525D01*
X170120078Y-99223480D01*
X169854679Y-99223437D01*
X169816296Y-99223432D01*
X169549318Y-99223389D01*
X169303998Y-99223318D01*
X169079417Y-99223213D01*
X168874655Y-99223066D01*
X168688794Y-99222869D01*
X168520912Y-99222616D01*
X168370092Y-99222300D01*
X168235413Y-99221913D01*
X168115956Y-99221447D01*
X168010801Y-99220897D01*
X167919029Y-99220253D01*
X167839721Y-99219511D01*
X167771957Y-99218661D01*
X167714818Y-99217697D01*
X167667383Y-99216611D01*
X167628734Y-99215397D01*
X167597951Y-99214047D01*
X167574115Y-99212555D01*
X167556306Y-99210911D01*
X167543605Y-99209111D01*
X167535092Y-99207145D01*
X167530734Y-99205477D01*
X167522272Y-99201906D01*
X167514503Y-99199270D01*
X167507398Y-99196634D01*
X167500927Y-99193062D01*
X167495061Y-99187621D01*
X167489771Y-99179375D01*
X167485026Y-99167390D01*
X167480798Y-99150731D01*
X167477057Y-99128463D01*
X167473773Y-99099652D01*
X167470917Y-99063363D01*
X167468460Y-99018661D01*
X167466371Y-98964611D01*
X167464622Y-98900279D01*
X167463183Y-98824730D01*
X167462024Y-98737030D01*
X167461117Y-98636243D01*
X167460431Y-98521434D01*
X167459937Y-98391670D01*
X167459605Y-98246015D01*
X167459407Y-98083535D01*
X167459313Y-97903295D01*
X167459292Y-97704360D01*
X167459315Y-97485796D01*
X167459354Y-97246668D01*
X167459378Y-96986040D01*
X167459378Y-96943889D01*
X167459364Y-96680992D01*
X167459339Y-96439732D01*
X167459329Y-96219165D01*
X167459358Y-96018352D01*
X167459452Y-95836349D01*
X167459638Y-95672216D01*
X167459941Y-95525011D01*
X167460386Y-95393792D01*
X167460966Y-95283867D01*
X167763803Y-95283867D01*
X167803593Y-95341711D01*
X167814764Y-95357479D01*
X167824834Y-95371441D01*
X167833862Y-95384784D01*
X167841903Y-95398693D01*
X167849014Y-95414356D01*
X167855253Y-95432958D01*
X167860675Y-95455686D01*
X167865338Y-95483727D01*
X167869299Y-95518267D01*
X167872615Y-95560492D01*
X167875341Y-95611589D01*
X167877536Y-95672744D01*
X167879255Y-95745144D01*
X167880556Y-95829975D01*
X167881495Y-95928422D01*
X167882130Y-96041674D01*
X167882516Y-96170916D01*
X167882712Y-96317334D01*
X167882773Y-96482116D01*
X167882757Y-96666447D01*
X167882720Y-96871513D01*
X167882711Y-96994133D01*
X167882735Y-97211082D01*
X167882769Y-97406642D01*
X167882757Y-97581999D01*
X167882642Y-97738341D01*
X167882370Y-97876857D01*
X167881882Y-97998734D01*
X167881124Y-98105160D01*
X167880038Y-98197322D01*
X167878569Y-98276409D01*
X167876660Y-98343608D01*
X167874256Y-98400107D01*
X167871299Y-98447093D01*
X167867734Y-98485755D01*
X167863505Y-98517280D01*
X167858554Y-98542855D01*
X167852827Y-98563670D01*
X167846267Y-98580911D01*
X167838817Y-98595765D01*
X167830421Y-98609422D01*
X167821024Y-98623069D01*
X167810568Y-98637893D01*
X167804477Y-98646783D01*
X167765704Y-98704400D01*
X168297268Y-98704400D01*
X168420517Y-98704365D01*
X168523013Y-98704215D01*
X168606580Y-98703878D01*
X168673044Y-98703286D01*
X168724229Y-98702367D01*
X168761959Y-98701051D01*
X168788060Y-98699269D01*
X168804356Y-98696951D01*
X168812672Y-98694026D01*
X168814832Y-98690424D01*
X168812661Y-98686075D01*
X168811465Y-98684645D01*
X168786315Y-98647573D01*
X168760417Y-98594772D01*
X168736808Y-98532770D01*
X168728539Y-98506357D01*
X168723922Y-98488416D01*
X168720021Y-98467355D01*
X168716752Y-98441089D01*
X168714034Y-98407532D01*
X168711785Y-98364599D01*
X168709923Y-98310204D01*
X168708364Y-98242262D01*
X168707028Y-98158688D01*
X168705831Y-98057395D01*
X168704692Y-97936300D01*
X168704315Y-97891600D01*
X168703298Y-97766449D01*
X168702540Y-97662082D01*
X168702097Y-97576707D01*
X168702030Y-97508533D01*
X168702395Y-97455765D01*
X168703252Y-97416614D01*
X168704659Y-97389285D01*
X168706675Y-97371986D01*
X168709357Y-97362926D01*
X168712764Y-97360312D01*
X168716956Y-97362351D01*
X168721429Y-97366667D01*
X168731784Y-97379602D01*
X168753842Y-97408676D01*
X168786043Y-97451759D01*
X168826826Y-97506718D01*
X168874630Y-97571423D01*
X168927895Y-97643742D01*
X168985060Y-97721544D01*
X169044563Y-97802698D01*
X169104845Y-97885072D01*
X169164345Y-97966536D01*
X169221502Y-98044957D01*
X169274755Y-98118204D01*
X169322543Y-98184147D01*
X169363307Y-98240654D01*
X169395484Y-98285593D01*
X169417515Y-98316834D01*
X169422083Y-98323466D01*
X169445004Y-98360369D01*
X169471812Y-98408359D01*
X169497211Y-98457897D01*
X169500432Y-98464577D01*
X169522110Y-98512772D01*
X169534696Y-98550334D01*
X169540426Y-98586160D01*
X169541544Y-98628200D01*
X169540910Y-98704400D01*
X170695349Y-98704400D01*
X170604185Y-98610669D01*
X170557388Y-98560775D01*
X170507101Y-98504295D01*
X170461056Y-98450026D01*
X170440631Y-98424673D01*
X170410193Y-98385128D01*
X170370138Y-98331916D01*
X170321639Y-98266667D01*
X170265865Y-98191011D01*
X170203989Y-98106577D01*
X170137181Y-98014994D01*
X170066613Y-97917892D01*
X169993455Y-97816901D01*
X169918879Y-97713650D01*
X169844056Y-97609768D01*
X169770157Y-97506885D01*
X169698354Y-97406631D01*
X169629816Y-97310636D01*
X169565716Y-97220527D01*
X169507225Y-97137936D01*
X169455514Y-97064492D01*
X169411753Y-97001824D01*
X169377115Y-96951561D01*
X169352770Y-96915334D01*
X169339889Y-96894771D01*
X169338131Y-96890668D01*
X169346090Y-96879342D01*
X169366885Y-96852162D01*
X169399153Y-96810829D01*
X169441530Y-96757044D01*
X169492653Y-96692506D01*
X169551159Y-96618918D01*
X169615686Y-96537978D01*
X169684869Y-96451388D01*
X169757347Y-96360848D01*
X169831754Y-96268060D01*
X169891483Y-96193702D01*
X170902489Y-96193702D01*
X170908398Y-96206659D01*
X170922728Y-96228908D01*
X170923775Y-96230391D01*
X170942562Y-96260544D01*
X170962209Y-96297375D01*
X170966108Y-96305511D01*
X170969644Y-96313940D01*
X170972770Y-96324059D01*
X170975514Y-96337260D01*
X170977908Y-96354938D01*
X170979981Y-96378484D01*
X170981765Y-96409293D01*
X170983288Y-96448757D01*
X170984581Y-96498269D01*
X170985674Y-96559223D01*
X170986597Y-96633011D01*
X170987381Y-96721028D01*
X170988055Y-96824665D01*
X170988650Y-96945316D01*
X170989195Y-97084374D01*
X170989721Y-97243232D01*
X170990255Y-97422089D01*
X170990794Y-97607207D01*
X170991228Y-97771145D01*
X170991491Y-97915303D01*
X170991516Y-98041079D01*
X170991235Y-98149871D01*
X170990581Y-98243077D01*
X170989486Y-98322097D01*
X170987882Y-98388328D01*
X170985703Y-98443170D01*
X170982881Y-98488021D01*
X170979349Y-98524278D01*
X170975039Y-98553341D01*
X170969883Y-98576609D01*
X170963815Y-98595479D01*
X170956767Y-98611351D01*
X170948671Y-98625622D01*
X170939460Y-98639691D01*
X170930960Y-98652158D01*
X170913824Y-98678452D01*
X170903678Y-98696037D01*
X170902489Y-98699257D01*
X170913396Y-98700334D01*
X170944589Y-98701335D01*
X170993777Y-98702235D01*
X171058667Y-98703010D01*
X171136970Y-98703637D01*
X171226393Y-98704091D01*
X171324644Y-98704349D01*
X171393555Y-98704400D01*
X171498548Y-98704180D01*
X171595390Y-98703548D01*
X171681893Y-98702549D01*
X171755868Y-98701227D01*
X171815126Y-98699626D01*
X171857480Y-98697791D01*
X171880740Y-98695765D01*
X171884622Y-98694493D01*
X171876924Y-98679591D01*
X171868926Y-98671560D01*
X171855754Y-98654434D01*
X171838515Y-98624183D01*
X171826593Y-98599622D01*
X171799955Y-98540711D01*
X171796880Y-97363845D01*
X171793805Y-96186978D01*
X171348147Y-96186978D01*
X171250330Y-96187142D01*
X171159936Y-96187611D01*
X171079370Y-96188347D01*
X171011038Y-96189316D01*
X170957344Y-96190480D01*
X170920695Y-96191803D01*
X170903496Y-96193249D01*
X170902489Y-96193702D01*
X169891483Y-96193702D01*
X169906730Y-96174722D01*
X169980910Y-96082537D01*
X170052931Y-95993204D01*
X170121431Y-95908424D01*
X170185045Y-95829898D01*
X170242412Y-95759326D01*
X170292167Y-95698409D01*
X170332948Y-95648847D01*
X170350112Y-95628178D01*
X170436404Y-95527516D01*
X170513003Y-95444259D01*
X170581817Y-95376438D01*
X170644752Y-95322089D01*
X170654133Y-95314722D01*
X170693644Y-95284117D01*
X169561884Y-95283867D01*
X169567173Y-95331844D01*
X169563870Y-95389188D01*
X169542339Y-95457463D01*
X169502365Y-95537212D01*
X169457057Y-95609495D01*
X169440839Y-95632140D01*
X169412786Y-95669696D01*
X169374570Y-95720021D01*
X169327863Y-95780973D01*
X169274339Y-95850411D01*
X169215669Y-95926194D01*
X169153525Y-96006180D01*
X169089579Y-96088228D01*
X169025505Y-96170196D01*
X168962973Y-96249943D01*
X168903657Y-96325327D01*
X168849229Y-96394207D01*
X168801361Y-96454442D01*
X168761725Y-96503889D01*
X168731994Y-96540408D01*
X168713839Y-96561858D01*
X168710780Y-96565156D01*
X168707921Y-96557149D01*
X168705707Y-96526855D01*
X168704143Y-96474556D01*
X168703233Y-96400531D01*
X168702980Y-96305063D01*
X168703387Y-96188434D01*
X168704296Y-96068445D01*
X168705618Y-95936333D01*
X168707143Y-95824594D01*
X168709119Y-95731025D01*
X168711794Y-95653419D01*
X168715418Y-95589574D01*
X168720239Y-95537283D01*
X168726506Y-95494344D01*
X168734468Y-95458551D01*
X168744373Y-95427700D01*
X168756469Y-95399586D01*
X168771007Y-95372005D01*
X168785689Y-95346966D01*
X168823686Y-95283867D01*
X167763803Y-95283867D01*
X167460966Y-95283867D01*
X167460999Y-95277617D01*
X167461805Y-95175544D01*
X167462830Y-95086633D01*
X167464100Y-95009941D01*
X167465640Y-94944527D01*
X167467476Y-94889449D01*
X167469633Y-94843765D01*
X167472137Y-94806534D01*
X167475013Y-94776813D01*
X167478287Y-94753662D01*
X167481985Y-94736139D01*
X167486131Y-94723301D01*
X167490753Y-94714208D01*
X167495874Y-94707918D01*
X167501522Y-94703488D01*
X167507721Y-94699978D01*
X167514496Y-94696445D01*
X167520492Y-94692876D01*
X167525725Y-94690300D01*
X167533901Y-94687972D01*
X167546114Y-94685878D01*
X167563459Y-94684007D01*
X167587031Y-94682347D01*
X167617923Y-94680884D01*
X167657232Y-94679608D01*
X167706050Y-94678504D01*
X167765473Y-94677561D01*
X167836596Y-94676767D01*
X167920512Y-94676109D01*
X168018317Y-94675575D01*
X168131106Y-94675153D01*
X168259971Y-94674829D01*
X168406009Y-94674592D01*
X168570314Y-94674430D01*
X168753980Y-94674330D01*
X168958103Y-94674280D01*
X169169247Y-94674267D01*
X170789600Y-94674267D01*
X170789600Y-94771054D01*
G36*
X174064429Y-95231071D02*
X174224570Y-95252245D01*
X174388510Y-95292385D01*
X174558313Y-95351889D01*
X174736043Y-95431154D01*
X174747310Y-95436699D01*
X174805005Y-95464725D01*
X174856552Y-95488802D01*
X174898191Y-95507249D01*
X174926162Y-95518386D01*
X174935733Y-95520933D01*
X174954950Y-95525941D01*
X174959561Y-95530147D01*
X174954458Y-95540580D01*
X174938418Y-95566868D01*
X174913288Y-95606257D01*
X174880914Y-95655991D01*
X174843143Y-95713315D01*
X174801822Y-95775476D01*
X174758798Y-95839718D01*
X174715917Y-95903285D01*
X174675026Y-95963425D01*
X174637971Y-96017380D01*
X174606600Y-96062397D01*
X174582759Y-96095721D01*
X174568294Y-96114597D01*
X174566309Y-96116787D01*
X174556191Y-96112138D01*
X174533850Y-96094962D01*
X174503280Y-96068440D01*
X174487536Y-96053964D01*
X174391047Y-95978682D01*
X174284336Y-95923241D01*
X174168832Y-95888141D01*
X174045962Y-95873880D01*
X173976561Y-95875051D01*
X173855423Y-95892212D01*
X173746205Y-95928094D01*
X173648582Y-95982959D01*
X173562228Y-96057070D01*
X173486815Y-96150688D01*
X173422018Y-96264076D01*
X173384601Y-96350667D01*
X173340748Y-96486366D01*
X173308428Y-96633850D01*
X173287557Y-96789314D01*
X173278051Y-96948956D01*
X173279827Y-97108973D01*
X173292803Y-97265561D01*
X173316894Y-97414918D01*
X173352018Y-97553240D01*
X173398092Y-97676724D01*
X173414373Y-97710978D01*
X173482620Y-97825064D01*
X173563079Y-97921557D01*
X173654570Y-97999670D01*
X173755911Y-98058617D01*
X173865920Y-98097612D01*
X173983415Y-98115868D01*
X174024883Y-98117211D01*
X174146441Y-98106290D01*
X174266878Y-98073474D01*
X174384666Y-98019439D01*
X174498277Y-97944865D01*
X174589685Y-97866539D01*
X174636215Y-97822008D01*
X174817483Y-98119271D01*
X174862580Y-98193433D01*
X174903819Y-98261646D01*
X174939735Y-98321459D01*
X174968866Y-98370420D01*
X174989750Y-98406079D01*
X175000924Y-98425984D01*
X175002375Y-98429079D01*
X174994146Y-98438718D01*
X174968567Y-98455999D01*
X174928873Y-98479283D01*
X174878297Y-98506934D01*
X174820074Y-98537315D01*
X174757437Y-98568790D01*
X174693621Y-98599722D01*
X174631860Y-98628473D01*
X174575388Y-98653408D01*
X174527438Y-98672889D01*
X174503986Y-98681318D01*
X174370221Y-98719133D01*
X174232327Y-98744136D01*
X174084622Y-98757140D01*
X173957833Y-98759468D01*
X173889878Y-98758373D01*
X173824277Y-98756275D01*
X173766847Y-98753434D01*
X173723403Y-98750106D01*
X173709298Y-98748422D01*
X173570284Y-98719587D01*
X173428757Y-98674468D01*
X173291275Y-98615750D01*
X173164394Y-98546120D01*
X173086889Y-98493441D01*
X172959481Y-98385239D01*
X172841178Y-98258671D01*
X172734172Y-98116866D01*
X172640652Y-97962951D01*
X172562810Y-97800053D01*
X172518956Y-97682756D01*
X172468708Y-97499128D01*
X172435209Y-97304581D01*
X172418449Y-97103325D01*
X172418416Y-96899568D01*
X172435101Y-96697521D01*
X172468493Y-96501392D01*
X172518580Y-96315391D01*
X172522397Y-96303803D01*
X172585281Y-96141750D01*
X172662028Y-95993832D01*
X172755242Y-95855865D01*
X172867527Y-95723661D01*
X172911392Y-95678399D01*
X173047534Y-95554457D01*
X173187491Y-95451915D01*
X173333411Y-95369656D01*
X173487442Y-95306564D01*
X173651732Y-95261523D01*
X173747289Y-95244033D01*
X173906023Y-95228466D01*
X174064429Y-95231071D01*
X174064429Y-95231071D01*
G37*
X174064429Y-95231071D02*
X174224570Y-95252245D01*
X174388510Y-95292385D01*
X174558313Y-95351889D01*
X174736043Y-95431154D01*
X174747310Y-95436699D01*
X174805005Y-95464725D01*
X174856552Y-95488802D01*
X174898191Y-95507249D01*
X174926162Y-95518386D01*
X174935733Y-95520933D01*
X174954950Y-95525941D01*
X174959561Y-95530147D01*
X174954458Y-95540580D01*
X174938418Y-95566868D01*
X174913288Y-95606257D01*
X174880914Y-95655991D01*
X174843143Y-95713315D01*
X174801822Y-95775476D01*
X174758798Y-95839718D01*
X174715917Y-95903285D01*
X174675026Y-95963425D01*
X174637971Y-96017380D01*
X174606600Y-96062397D01*
X174582759Y-96095721D01*
X174568294Y-96114597D01*
X174566309Y-96116787D01*
X174556191Y-96112138D01*
X174533850Y-96094962D01*
X174503280Y-96068440D01*
X174487536Y-96053964D01*
X174391047Y-95978682D01*
X174284336Y-95923241D01*
X174168832Y-95888141D01*
X174045962Y-95873880D01*
X173976561Y-95875051D01*
X173855423Y-95892212D01*
X173746205Y-95928094D01*
X173648582Y-95982959D01*
X173562228Y-96057070D01*
X173486815Y-96150688D01*
X173422018Y-96264076D01*
X173384601Y-96350667D01*
X173340748Y-96486366D01*
X173308428Y-96633850D01*
X173287557Y-96789314D01*
X173278051Y-96948956D01*
X173279827Y-97108973D01*
X173292803Y-97265561D01*
X173316894Y-97414918D01*
X173352018Y-97553240D01*
X173398092Y-97676724D01*
X173414373Y-97710978D01*
X173482620Y-97825064D01*
X173563079Y-97921557D01*
X173654570Y-97999670D01*
X173755911Y-98058617D01*
X173865920Y-98097612D01*
X173983415Y-98115868D01*
X174024883Y-98117211D01*
X174146441Y-98106290D01*
X174266878Y-98073474D01*
X174384666Y-98019439D01*
X174498277Y-97944865D01*
X174589685Y-97866539D01*
X174636215Y-97822008D01*
X174817483Y-98119271D01*
X174862580Y-98193433D01*
X174903819Y-98261646D01*
X174939735Y-98321459D01*
X174968866Y-98370420D01*
X174989750Y-98406079D01*
X175000924Y-98425984D01*
X175002375Y-98429079D01*
X174994146Y-98438718D01*
X174968567Y-98455999D01*
X174928873Y-98479283D01*
X174878297Y-98506934D01*
X174820074Y-98537315D01*
X174757437Y-98568790D01*
X174693621Y-98599722D01*
X174631860Y-98628473D01*
X174575388Y-98653408D01*
X174527438Y-98672889D01*
X174503986Y-98681318D01*
X174370221Y-98719133D01*
X174232327Y-98744136D01*
X174084622Y-98757140D01*
X173957833Y-98759468D01*
X173889878Y-98758373D01*
X173824277Y-98756275D01*
X173766847Y-98753434D01*
X173723403Y-98750106D01*
X173709298Y-98748422D01*
X173570284Y-98719587D01*
X173428757Y-98674468D01*
X173291275Y-98615750D01*
X173164394Y-98546120D01*
X173086889Y-98493441D01*
X172959481Y-98385239D01*
X172841178Y-98258671D01*
X172734172Y-98116866D01*
X172640652Y-97962951D01*
X172562810Y-97800053D01*
X172518956Y-97682756D01*
X172468708Y-97499128D01*
X172435209Y-97304581D01*
X172418449Y-97103325D01*
X172418416Y-96899568D01*
X172435101Y-96697521D01*
X172468493Y-96501392D01*
X172518580Y-96315391D01*
X172522397Y-96303803D01*
X172585281Y-96141750D01*
X172662028Y-95993832D01*
X172755242Y-95855865D01*
X172867527Y-95723661D01*
X172911392Y-95678399D01*
X173047534Y-95554457D01*
X173187491Y-95451915D01*
X173333411Y-95369656D01*
X173487442Y-95306564D01*
X173651732Y-95261523D01*
X173747289Y-95244033D01*
X173906023Y-95228466D01*
X174064429Y-95231071D01*
G36*
X176409574Y-96148552D02*
X176561492Y-96168567D01*
X176696756Y-96202202D01*
X176816239Y-96249725D01*
X176920815Y-96311405D01*
X176998424Y-96374965D01*
X177067265Y-96449099D01*
X177121006Y-96528871D01*
X177163910Y-96621091D01*
X177179384Y-96664161D01*
X177192244Y-96703142D01*
X177203446Y-96739289D01*
X177213120Y-96774434D01*
X177221396Y-96810410D01*
X177228403Y-96849050D01*
X177234272Y-96892185D01*
X177239131Y-96941649D01*
X177243110Y-96999273D01*
X177246340Y-97066891D01*
X177248949Y-97146334D01*
X177251067Y-97239436D01*
X177252824Y-97348027D01*
X177254349Y-97473942D01*
X177255772Y-97619012D01*
X177257025Y-97761778D01*
X177258351Y-97917968D01*
X177259556Y-98053239D01*
X177260766Y-98169246D01*
X177262106Y-98267645D01*
X177263700Y-98350093D01*
X177265675Y-98418246D01*
X177268156Y-98473760D01*
X177271269Y-98518292D01*
X177275138Y-98553498D01*
X177279889Y-98581034D01*
X177285648Y-98602556D01*
X177292539Y-98619722D01*
X177300689Y-98634186D01*
X177310223Y-98647606D01*
X177321266Y-98661638D01*
X177325566Y-98667071D01*
X177341386Y-98689910D01*
X177348422Y-98705463D01*
X177348444Y-98705922D01*
X177337567Y-98708121D01*
X177306582Y-98710147D01*
X177257957Y-98711942D01*
X177194163Y-98713451D01*
X177117669Y-98714616D01*
X177030944Y-98715380D01*
X176936457Y-98715686D01*
X176925550Y-98715689D01*
X176502657Y-98715689D01*
X176499395Y-98619622D01*
X176496133Y-98523556D01*
X176434044Y-98574543D01*
X176336714Y-98642057D01*
X176226813Y-98696749D01*
X176140349Y-98726978D01*
X176071278Y-98741666D01*
X175987925Y-98751659D01*
X175898159Y-98756646D01*
X175809845Y-98756313D01*
X175730851Y-98750351D01*
X175694622Y-98744638D01*
X175554603Y-98706776D01*
X175428178Y-98651932D01*
X175316260Y-98580924D01*
X175219762Y-98494568D01*
X175139600Y-98393679D01*
X175076687Y-98279076D01*
X175032312Y-98152984D01*
X175019978Y-98096401D01*
X175012368Y-98034202D01*
X175008739Y-97959363D01*
X175008245Y-97925467D01*
X175008310Y-97922282D01*
X175768248Y-97922282D01*
X175777541Y-97997333D01*
X175805728Y-98061160D01*
X175854197Y-98116798D01*
X175859254Y-98121211D01*
X175907548Y-98156037D01*
X175959257Y-98178620D01*
X176019989Y-98190540D01*
X176095352Y-98193383D01*
X176113459Y-98192978D01*
X176167278Y-98190325D01*
X176207308Y-98184909D01*
X176242324Y-98174745D01*
X176281103Y-98157850D01*
X176291745Y-98152672D01*
X176352396Y-98116844D01*
X176399215Y-98074212D01*
X176411952Y-98058973D01*
X176456622Y-98002462D01*
X176456622Y-97806586D01*
X176456086Y-97727939D01*
X176454396Y-97669988D01*
X176451428Y-97630875D01*
X176447057Y-97608741D01*
X176442972Y-97602274D01*
X176427047Y-97599111D01*
X176393264Y-97596488D01*
X176346340Y-97594655D01*
X176290993Y-97593857D01*
X176282106Y-97593842D01*
X176161330Y-97599096D01*
X176058660Y-97615263D01*
X175972106Y-97642961D01*
X175899681Y-97682808D01*
X175844751Y-97729758D01*
X175800204Y-97787645D01*
X175775480Y-97850693D01*
X175768248Y-97922282D01*
X175008310Y-97922282D01*
X175010178Y-97831712D01*
X175018522Y-97752812D01*
X175034768Y-97681590D01*
X175060405Y-97610864D01*
X175084401Y-97558493D01*
X175143020Y-97463196D01*
X175221117Y-97375170D01*
X175316315Y-97296017D01*
X175426238Y-97227340D01*
X175548510Y-97170741D01*
X175680755Y-97127821D01*
X175745422Y-97112882D01*
X175881604Y-97090777D01*
X176030049Y-97076194D01*
X176181505Y-97069813D01*
X176308064Y-97071445D01*
X176469950Y-97078224D01*
X176462530Y-97019245D01*
X176443238Y-96920092D01*
X176412104Y-96839372D01*
X176368269Y-96776466D01*
X176310871Y-96730756D01*
X176239048Y-96701622D01*
X176151941Y-96688447D01*
X176048686Y-96690611D01*
X176010711Y-96694612D01*
X175869520Y-96719780D01*
X175732707Y-96760814D01*
X175638178Y-96798815D01*
X175593018Y-96818190D01*
X175554585Y-96833760D01*
X175528234Y-96843405D01*
X175520546Y-96845452D01*
X175510802Y-96836374D01*
X175494083Y-96807405D01*
X175470232Y-96758217D01*
X175439093Y-96688484D01*
X175400507Y-96597879D01*
X175393910Y-96582089D01*
X175363853Y-96509772D01*
X175336874Y-96444425D01*
X175314136Y-96388906D01*
X175296806Y-96346072D01*
X175286048Y-96318781D01*
X175282941Y-96309942D01*
X175292940Y-96305187D01*
X175319217Y-96299910D01*
X175347489Y-96296231D01*
X175377646Y-96291474D01*
X175425433Y-96282028D01*
X175486612Y-96268820D01*
X175556946Y-96252776D01*
X175632194Y-96234820D01*
X175660755Y-96227797D01*
X175765816Y-96202209D01*
X175853480Y-96182147D01*
X175928068Y-96166969D01*
X175993903Y-96156035D01*
X176055307Y-96148704D01*
X176116602Y-96144335D01*
X176182110Y-96142287D01*
X176240128Y-96141889D01*
X176409574Y-96148552D01*
X176409574Y-96148552D01*
G37*
X176409574Y-96148552D02*
X176561492Y-96168567D01*
X176696756Y-96202202D01*
X176816239Y-96249725D01*
X176920815Y-96311405D01*
X176998424Y-96374965D01*
X177067265Y-96449099D01*
X177121006Y-96528871D01*
X177163910Y-96621091D01*
X177179384Y-96664161D01*
X177192244Y-96703142D01*
X177203446Y-96739289D01*
X177213120Y-96774434D01*
X177221396Y-96810410D01*
X177228403Y-96849050D01*
X177234272Y-96892185D01*
X177239131Y-96941649D01*
X177243110Y-96999273D01*
X177246340Y-97066891D01*
X177248949Y-97146334D01*
X177251067Y-97239436D01*
X177252824Y-97348027D01*
X177254349Y-97473942D01*
X177255772Y-97619012D01*
X177257025Y-97761778D01*
X177258351Y-97917968D01*
X177259556Y-98053239D01*
X177260766Y-98169246D01*
X177262106Y-98267645D01*
X177263700Y-98350093D01*
X177265675Y-98418246D01*
X177268156Y-98473760D01*
X177271269Y-98518292D01*
X177275138Y-98553498D01*
X177279889Y-98581034D01*
X177285648Y-98602556D01*
X177292539Y-98619722D01*
X177300689Y-98634186D01*
X177310223Y-98647606D01*
X177321266Y-98661638D01*
X177325566Y-98667071D01*
X177341386Y-98689910D01*
X177348422Y-98705463D01*
X177348444Y-98705922D01*
X177337567Y-98708121D01*
X177306582Y-98710147D01*
X177257957Y-98711942D01*
X177194163Y-98713451D01*
X177117669Y-98714616D01*
X177030944Y-98715380D01*
X176936457Y-98715686D01*
X176925550Y-98715689D01*
X176502657Y-98715689D01*
X176499395Y-98619622D01*
X176496133Y-98523556D01*
X176434044Y-98574543D01*
X176336714Y-98642057D01*
X176226813Y-98696749D01*
X176140349Y-98726978D01*
X176071278Y-98741666D01*
X175987925Y-98751659D01*
X175898159Y-98756646D01*
X175809845Y-98756313D01*
X175730851Y-98750351D01*
X175694622Y-98744638D01*
X175554603Y-98706776D01*
X175428178Y-98651932D01*
X175316260Y-98580924D01*
X175219762Y-98494568D01*
X175139600Y-98393679D01*
X175076687Y-98279076D01*
X175032312Y-98152984D01*
X175019978Y-98096401D01*
X175012368Y-98034202D01*
X175008739Y-97959363D01*
X175008245Y-97925467D01*
X175008310Y-97922282D01*
X175768248Y-97922282D01*
X175777541Y-97997333D01*
X175805728Y-98061160D01*
X175854197Y-98116798D01*
X175859254Y-98121211D01*
X175907548Y-98156037D01*
X175959257Y-98178620D01*
X176019989Y-98190540D01*
X176095352Y-98193383D01*
X176113459Y-98192978D01*
X176167278Y-98190325D01*
X176207308Y-98184909D01*
X176242324Y-98174745D01*
X176281103Y-98157850D01*
X176291745Y-98152672D01*
X176352396Y-98116844D01*
X176399215Y-98074212D01*
X176411952Y-98058973D01*
X176456622Y-98002462D01*
X176456622Y-97806586D01*
X176456086Y-97727939D01*
X176454396Y-97669988D01*
X176451428Y-97630875D01*
X176447057Y-97608741D01*
X176442972Y-97602274D01*
X176427047Y-97599111D01*
X176393264Y-97596488D01*
X176346340Y-97594655D01*
X176290993Y-97593857D01*
X176282106Y-97593842D01*
X176161330Y-97599096D01*
X176058660Y-97615263D01*
X175972106Y-97642961D01*
X175899681Y-97682808D01*
X175844751Y-97729758D01*
X175800204Y-97787645D01*
X175775480Y-97850693D01*
X175768248Y-97922282D01*
X175008310Y-97922282D01*
X175010178Y-97831712D01*
X175018522Y-97752812D01*
X175034768Y-97681590D01*
X175060405Y-97610864D01*
X175084401Y-97558493D01*
X175143020Y-97463196D01*
X175221117Y-97375170D01*
X175316315Y-97296017D01*
X175426238Y-97227340D01*
X175548510Y-97170741D01*
X175680755Y-97127821D01*
X175745422Y-97112882D01*
X175881604Y-97090777D01*
X176030049Y-97076194D01*
X176181505Y-97069813D01*
X176308064Y-97071445D01*
X176469950Y-97078224D01*
X176462530Y-97019245D01*
X176443238Y-96920092D01*
X176412104Y-96839372D01*
X176368269Y-96776466D01*
X176310871Y-96730756D01*
X176239048Y-96701622D01*
X176151941Y-96688447D01*
X176048686Y-96690611D01*
X176010711Y-96694612D01*
X175869520Y-96719780D01*
X175732707Y-96760814D01*
X175638178Y-96798815D01*
X175593018Y-96818190D01*
X175554585Y-96833760D01*
X175528234Y-96843405D01*
X175520546Y-96845452D01*
X175510802Y-96836374D01*
X175494083Y-96807405D01*
X175470232Y-96758217D01*
X175439093Y-96688484D01*
X175400507Y-96597879D01*
X175393910Y-96582089D01*
X175363853Y-96509772D01*
X175336874Y-96444425D01*
X175314136Y-96388906D01*
X175296806Y-96346072D01*
X175286048Y-96318781D01*
X175282941Y-96309942D01*
X175292940Y-96305187D01*
X175319217Y-96299910D01*
X175347489Y-96296231D01*
X175377646Y-96291474D01*
X175425433Y-96282028D01*
X175486612Y-96268820D01*
X175556946Y-96252776D01*
X175632194Y-96234820D01*
X175660755Y-96227797D01*
X175765816Y-96202209D01*
X175853480Y-96182147D01*
X175928068Y-96166969D01*
X175993903Y-96156035D01*
X176055307Y-96148704D01*
X176116602Y-96144335D01*
X176182110Y-96142287D01*
X176240128Y-96141889D01*
X176409574Y-96148552D01*
G36*
X179922507Y-96754245D02*
X179922526Y-96988662D01*
X179922552Y-97201603D01*
X179922625Y-97394168D01*
X179922782Y-97567459D01*
X179923064Y-97722576D01*
X179923509Y-97860620D01*
X179924156Y-97982692D01*
X179925045Y-98089894D01*
X179926213Y-98183326D01*
X179927701Y-98264090D01*
X179929546Y-98333286D01*
X179931789Y-98392015D01*
X179934469Y-98441379D01*
X179937623Y-98482478D01*
X179941292Y-98516413D01*
X179945513Y-98544286D01*
X179950327Y-98567198D01*
X179955773Y-98586249D01*
X179961888Y-98602540D01*
X179968712Y-98617173D01*
X179976285Y-98631249D01*
X179984645Y-98645868D01*
X179989839Y-98654974D01*
X180024104Y-98715689D01*
X179165955Y-98715689D01*
X179165955Y-98619733D01*
X179165224Y-98576370D01*
X179163272Y-98543205D01*
X179160463Y-98525424D01*
X179159221Y-98523778D01*
X179147799Y-98530662D01*
X179125084Y-98548505D01*
X179102385Y-98567879D01*
X179047800Y-98608614D01*
X178978321Y-98649617D01*
X178901270Y-98687123D01*
X178823965Y-98717364D01*
X178793113Y-98727012D01*
X178724616Y-98741578D01*
X178641764Y-98751539D01*
X178552371Y-98756583D01*
X178464248Y-98756396D01*
X178385207Y-98750666D01*
X178347511Y-98744858D01*
X178209414Y-98706797D01*
X178082113Y-98649073D01*
X177966292Y-98572211D01*
X177862637Y-98476739D01*
X177771833Y-98363179D01*
X177705031Y-98252381D01*
X177650164Y-98135625D01*
X177608163Y-98016276D01*
X177578167Y-97890283D01*
X177559311Y-97753594D01*
X177550732Y-97602158D01*
X177550006Y-97524711D01*
X177552100Y-97467934D01*
X178381217Y-97467934D01*
X178381424Y-97561002D01*
X178384337Y-97648692D01*
X178390000Y-97725772D01*
X178398455Y-97787009D01*
X178401038Y-97799350D01*
X178432840Y-97906633D01*
X178474498Y-97993658D01*
X178526363Y-98060642D01*
X178588781Y-98107805D01*
X178662100Y-98135365D01*
X178746669Y-98143541D01*
X178842835Y-98132551D01*
X178906311Y-98116829D01*
X178955454Y-98098639D01*
X179009583Y-98072791D01*
X179050244Y-98049089D01*
X179120800Y-98002721D01*
X179120800Y-96852530D01*
X179053392Y-96808962D01*
X178974867Y-96768040D01*
X178890681Y-96741389D01*
X178805557Y-96729465D01*
X178724216Y-96732722D01*
X178651380Y-96751615D01*
X178619426Y-96767184D01*
X178561501Y-96810181D01*
X178512544Y-96866953D01*
X178471390Y-96939575D01*
X178436874Y-97030121D01*
X178407833Y-97140666D01*
X178406552Y-97146533D01*
X178396381Y-97208788D01*
X178388739Y-97286594D01*
X178383670Y-97374720D01*
X178381217Y-97467934D01*
X177552100Y-97467934D01*
X177557857Y-97311895D01*
X177579802Y-97116059D01*
X177615786Y-96937332D01*
X177665759Y-96775845D01*
X177729668Y-96631726D01*
X177807462Y-96505106D01*
X177899089Y-96396115D01*
X178004497Y-96304883D01*
X178049662Y-96273932D01*
X178150611Y-96217785D01*
X178253901Y-96178174D01*
X178363989Y-96154014D01*
X178485330Y-96144219D01*
X178577836Y-96145265D01*
X178707490Y-96156231D01*
X178820084Y-96178046D01*
X178918875Y-96211714D01*
X179007121Y-96258236D01*
X179055986Y-96292448D01*
X179085353Y-96314362D01*
X179107043Y-96329333D01*
X179115253Y-96333733D01*
X179116868Y-96322904D01*
X179118159Y-96292251D01*
X179119138Y-96244526D01*
X179119817Y-96182479D01*
X179120210Y-96108862D01*
X179120330Y-96026427D01*
X179120188Y-95937925D01*
X179119797Y-95846107D01*
X179119171Y-95753724D01*
X179118320Y-95663528D01*
X179117260Y-95578271D01*
X179116001Y-95500703D01*
X179114556Y-95433576D01*
X179112938Y-95379641D01*
X179111161Y-95341650D01*
X179110669Y-95334667D01*
X179103092Y-95264251D01*
X179091531Y-95209102D01*
X179073792Y-95161981D01*
X179047682Y-95115647D01*
X179041415Y-95106067D01*
X179016983Y-95069378D01*
X179922311Y-95069378D01*
X179922507Y-96754245D01*
X179922507Y-96754245D01*
G37*
X179922507Y-96754245D02*
X179922526Y-96988662D01*
X179922552Y-97201603D01*
X179922625Y-97394168D01*
X179922782Y-97567459D01*
X179923064Y-97722576D01*
X179923509Y-97860620D01*
X179924156Y-97982692D01*
X179925045Y-98089894D01*
X179926213Y-98183326D01*
X179927701Y-98264090D01*
X179929546Y-98333286D01*
X179931789Y-98392015D01*
X179934469Y-98441379D01*
X179937623Y-98482478D01*
X179941292Y-98516413D01*
X179945513Y-98544286D01*
X179950327Y-98567198D01*
X179955773Y-98586249D01*
X179961888Y-98602540D01*
X179968712Y-98617173D01*
X179976285Y-98631249D01*
X179984645Y-98645868D01*
X179989839Y-98654974D01*
X180024104Y-98715689D01*
X179165955Y-98715689D01*
X179165955Y-98619733D01*
X179165224Y-98576370D01*
X179163272Y-98543205D01*
X179160463Y-98525424D01*
X179159221Y-98523778D01*
X179147799Y-98530662D01*
X179125084Y-98548505D01*
X179102385Y-98567879D01*
X179047800Y-98608614D01*
X178978321Y-98649617D01*
X178901270Y-98687123D01*
X178823965Y-98717364D01*
X178793113Y-98727012D01*
X178724616Y-98741578D01*
X178641764Y-98751539D01*
X178552371Y-98756583D01*
X178464248Y-98756396D01*
X178385207Y-98750666D01*
X178347511Y-98744858D01*
X178209414Y-98706797D01*
X178082113Y-98649073D01*
X177966292Y-98572211D01*
X177862637Y-98476739D01*
X177771833Y-98363179D01*
X177705031Y-98252381D01*
X177650164Y-98135625D01*
X177608163Y-98016276D01*
X177578167Y-97890283D01*
X177559311Y-97753594D01*
X177550732Y-97602158D01*
X177550006Y-97524711D01*
X177552100Y-97467934D01*
X178381217Y-97467934D01*
X178381424Y-97561002D01*
X178384337Y-97648692D01*
X178390000Y-97725772D01*
X178398455Y-97787009D01*
X178401038Y-97799350D01*
X178432840Y-97906633D01*
X178474498Y-97993658D01*
X178526363Y-98060642D01*
X178588781Y-98107805D01*
X178662100Y-98135365D01*
X178746669Y-98143541D01*
X178842835Y-98132551D01*
X178906311Y-98116829D01*
X178955454Y-98098639D01*
X179009583Y-98072791D01*
X179050244Y-98049089D01*
X179120800Y-98002721D01*
X179120800Y-96852530D01*
X179053392Y-96808962D01*
X178974867Y-96768040D01*
X178890681Y-96741389D01*
X178805557Y-96729465D01*
X178724216Y-96732722D01*
X178651380Y-96751615D01*
X178619426Y-96767184D01*
X178561501Y-96810181D01*
X178512544Y-96866953D01*
X178471390Y-96939575D01*
X178436874Y-97030121D01*
X178407833Y-97140666D01*
X178406552Y-97146533D01*
X178396381Y-97208788D01*
X178388739Y-97286594D01*
X178383670Y-97374720D01*
X178381217Y-97467934D01*
X177552100Y-97467934D01*
X177557857Y-97311895D01*
X177579802Y-97116059D01*
X177615786Y-96937332D01*
X177665759Y-96775845D01*
X177729668Y-96631726D01*
X177807462Y-96505106D01*
X177899089Y-96396115D01*
X178004497Y-96304883D01*
X178049662Y-96273932D01*
X178150611Y-96217785D01*
X178253901Y-96178174D01*
X178363989Y-96154014D01*
X178485330Y-96144219D01*
X178577836Y-96145265D01*
X178707490Y-96156231D01*
X178820084Y-96178046D01*
X178918875Y-96211714D01*
X179007121Y-96258236D01*
X179055986Y-96292448D01*
X179085353Y-96314362D01*
X179107043Y-96329333D01*
X179115253Y-96333733D01*
X179116868Y-96322904D01*
X179118159Y-96292251D01*
X179119138Y-96244526D01*
X179119817Y-96182479D01*
X179120210Y-96108862D01*
X179120330Y-96026427D01*
X179120188Y-95937925D01*
X179119797Y-95846107D01*
X179119171Y-95753724D01*
X179118320Y-95663528D01*
X179117260Y-95578271D01*
X179116001Y-95500703D01*
X179114556Y-95433576D01*
X179112938Y-95379641D01*
X179111161Y-95341650D01*
X179110669Y-95334667D01*
X179103092Y-95264251D01*
X179091531Y-95209102D01*
X179073792Y-95161981D01*
X179047682Y-95115647D01*
X179041415Y-95106067D01*
X179016983Y-95069378D01*
X179922311Y-95069378D01*
X179922507Y-96754245D01*
G36*
X171462957Y-94308571D02*
X171559232Y-94332809D01*
X171645816Y-94375641D01*
X171720627Y-94435419D01*
X171781582Y-94510494D01*
X171826601Y-94599220D01*
X171852864Y-94695530D01*
X171858714Y-94792795D01*
X171843860Y-94886654D01*
X171810160Y-94974511D01*
X171759472Y-95053770D01*
X171693655Y-95121836D01*
X171614566Y-95176112D01*
X171524066Y-95214002D01*
X171472800Y-95226426D01*
X171428302Y-95233947D01*
X171394001Y-95236919D01*
X171361040Y-95235094D01*
X171320566Y-95228225D01*
X171287469Y-95221250D01*
X171194053Y-95189741D01*
X171110381Y-95138617D01*
X171038335Y-95069429D01*
X170979800Y-94983728D01*
X170965852Y-94956489D01*
X170949414Y-94920122D01*
X170939106Y-94889582D01*
X170933540Y-94857450D01*
X170931331Y-94816307D01*
X170931052Y-94770222D01*
X170935139Y-94685865D01*
X170948554Y-94616586D01*
X170973744Y-94555961D01*
X171013154Y-94497567D01*
X171051702Y-94453302D01*
X171123594Y-94387484D01*
X171198687Y-94342053D01*
X171281438Y-94314850D01*
X171359072Y-94304576D01*
X171462957Y-94308571D01*
X171462957Y-94308571D01*
G37*
X171462957Y-94308571D02*
X171559232Y-94332809D01*
X171645816Y-94375641D01*
X171720627Y-94435419D01*
X171781582Y-94510494D01*
X171826601Y-94599220D01*
X171852864Y-94695530D01*
X171858714Y-94792795D01*
X171843860Y-94886654D01*
X171810160Y-94974511D01*
X171759472Y-95053770D01*
X171693655Y-95121836D01*
X171614566Y-95176112D01*
X171524066Y-95214002D01*
X171472800Y-95226426D01*
X171428302Y-95233947D01*
X171394001Y-95236919D01*
X171361040Y-95235094D01*
X171320566Y-95228225D01*
X171287469Y-95221250D01*
X171194053Y-95189741D01*
X171110381Y-95138617D01*
X171038335Y-95069429D01*
X170979800Y-94983728D01*
X170965852Y-94956489D01*
X170949414Y-94920122D01*
X170939106Y-94889582D01*
X170933540Y-94857450D01*
X170931331Y-94816307D01*
X170931052Y-94770222D01*
X170935139Y-94685865D01*
X170948554Y-94616586D01*
X170973744Y-94555961D01*
X171013154Y-94497567D01*
X171051702Y-94453302D01*
X171123594Y-94387484D01*
X171198687Y-94342053D01*
X171281438Y-94314850D01*
X171359072Y-94304576D01*
X171462957Y-94308571D01*
D12*
X162923100Y-86424800D02*
X163853100Y-86424800D01*
X166083100Y-86424800D02*
X165153100Y-86424800D01*
X166083100Y-86424800D02*
X166083100Y-84264800D01*
X162923100Y-86424800D02*
X162923100Y-84964800D01*
X197240000Y-96408800D02*
X197240000Y-95208800D01*
X199000000Y-95208800D02*
X199000000Y-96408800D01*
X194687300Y-96408800D02*
X194687300Y-95208800D01*
X196447300Y-95208800D02*
X196447300Y-96408800D01*
X151532700Y-96408800D02*
X151532700Y-95208800D01*
X153292700Y-95208800D02*
X153292700Y-96408800D01*
X159420000Y-89518600D02*
X160620000Y-89518600D01*
X160620000Y-91278600D02*
X159420000Y-91278600D01*
X168411600Y-83740100D02*
X169611600Y-83740100D01*
X169611600Y-85500100D02*
X168411600Y-85500100D01*
D11*
X195199000Y-77206143D02*
X195162714Y-77242429D01*
X195053857Y-77278714D01*
X194981286Y-77278714D01*
X194872429Y-77242429D01*
X194799857Y-77169857D01*
X194763572Y-77097286D01*
X194727286Y-76952143D01*
X194727286Y-76843286D01*
X194763572Y-76698143D01*
X194799857Y-76625571D01*
X194872429Y-76553000D01*
X194981286Y-76516714D01*
X195053857Y-76516714D01*
X195162714Y-76553000D01*
X195199000Y-76589286D01*
X195924714Y-77278714D02*
X195489286Y-77278714D01*
X195707000Y-77278714D02*
X195707000Y-76516714D01*
X195634429Y-76625571D01*
X195561857Y-76698143D01*
X195489286Y-76734429D01*
X187833000Y-77488143D02*
X187796714Y-77524429D01*
X187687857Y-77560714D01*
X187615286Y-77560714D01*
X187506429Y-77524429D01*
X187433857Y-77451857D01*
X187397572Y-77379286D01*
X187361286Y-77234143D01*
X187361286Y-77125286D01*
X187397572Y-76980143D01*
X187433857Y-76907571D01*
X187506429Y-76835000D01*
X187615286Y-76798714D01*
X187687857Y-76798714D01*
X187796714Y-76835000D01*
X187833000Y-76871286D01*
X188123286Y-76871286D02*
X188159572Y-76835000D01*
X188232143Y-76798714D01*
X188413572Y-76798714D01*
X188486143Y-76835000D01*
X188522429Y-76871286D01*
X188558714Y-76943857D01*
X188558714Y-77016429D01*
X188522429Y-77125286D01*
X188087000Y-77560714D01*
X188558714Y-77560714D01*
X187125429Y-99658714D02*
X187125429Y-100275571D01*
X187161714Y-100348143D01*
X187198000Y-100384429D01*
X187270571Y-100420714D01*
X187415714Y-100420714D01*
X187488286Y-100384429D01*
X187524571Y-100348143D01*
X187560857Y-100275571D01*
X187560857Y-99658714D01*
X188322857Y-100420714D02*
X187887429Y-100420714D01*
X188105143Y-100420714D02*
X188105143Y-99658714D01*
X188032572Y-99767571D01*
X187960000Y-99840143D01*
X187887429Y-99876429D01*
X163755615Y-87996486D02*
X163683043Y-87960200D01*
X163610472Y-87887629D01*
X163501615Y-87778771D01*
X163429043Y-87742486D01*
X163356472Y-87742486D01*
X163392757Y-87923914D02*
X163320186Y-87887629D01*
X163247615Y-87815057D01*
X163211329Y-87669914D01*
X163211329Y-87415914D01*
X163247615Y-87270771D01*
X163320186Y-87198200D01*
X163392757Y-87161914D01*
X163537900Y-87161914D01*
X163610472Y-87198200D01*
X163683043Y-87270771D01*
X163719329Y-87415914D01*
X163719329Y-87669914D01*
X163683043Y-87815057D01*
X163610472Y-87887629D01*
X163537900Y-87923914D01*
X163392757Y-87923914D01*
X164445043Y-87923914D02*
X164009615Y-87923914D01*
X164227329Y-87923914D02*
X164227329Y-87161914D01*
X164154758Y-87270771D01*
X164082186Y-87343343D01*
X164009615Y-87379629D01*
X164916757Y-87161914D02*
X164989329Y-87161914D01*
X165061900Y-87198200D01*
X165098186Y-87234486D01*
X165134472Y-87307057D01*
X165170757Y-87452200D01*
X165170757Y-87633629D01*
X165134472Y-87778771D01*
X165098186Y-87851343D01*
X165061900Y-87887629D01*
X164989329Y-87923914D01*
X164916757Y-87923914D01*
X164844186Y-87887629D01*
X164807900Y-87851343D01*
X164771615Y-87778771D01*
X164735329Y-87633629D01*
X164735329Y-87452200D01*
X164771615Y-87307057D01*
X164807900Y-87234486D01*
X164844186Y-87198200D01*
X164916757Y-87161914D01*
X165896471Y-87923914D02*
X165461043Y-87923914D01*
X165678757Y-87923914D02*
X165678757Y-87161914D01*
X165606186Y-87270771D01*
X165533614Y-87343343D01*
X165461043Y-87379629D01*
X197279986Y-99112614D02*
X197025986Y-98749757D01*
X196844558Y-99112614D02*
X196844558Y-98350614D01*
X197134843Y-98350614D01*
X197207415Y-98386900D01*
X197243700Y-98423186D01*
X197279986Y-98495757D01*
X197279986Y-98604614D01*
X197243700Y-98677186D01*
X197207415Y-98713471D01*
X197134843Y-98749757D01*
X196844558Y-98749757D01*
X198005700Y-99112614D02*
X197570272Y-99112614D01*
X197787986Y-99112614D02*
X197787986Y-98350614D01*
X197715415Y-98459471D01*
X197642843Y-98532043D01*
X197570272Y-98568329D01*
X198477414Y-98350614D02*
X198549986Y-98350614D01*
X198622557Y-98386900D01*
X198658843Y-98423186D01*
X198695129Y-98495757D01*
X198731414Y-98640900D01*
X198731414Y-98822329D01*
X198695129Y-98967471D01*
X198658843Y-99040043D01*
X198622557Y-99076329D01*
X198549986Y-99112614D01*
X198477414Y-99112614D01*
X198404843Y-99076329D01*
X198368557Y-99040043D01*
X198332272Y-98967471D01*
X198295986Y-98822329D01*
X198295986Y-98640900D01*
X198332272Y-98495757D01*
X198368557Y-98423186D01*
X198404843Y-98386900D01*
X198477414Y-98350614D01*
X199457128Y-99112614D02*
X199021700Y-99112614D01*
X199239414Y-99112614D02*
X199239414Y-98350614D01*
X199166843Y-98459471D01*
X199094271Y-98532043D01*
X199021700Y-98568329D01*
X194222914Y-96648814D02*
X193860057Y-96902814D01*
X194222914Y-97084242D02*
X193460914Y-97084242D01*
X193460914Y-96793957D01*
X193497200Y-96721385D01*
X193533486Y-96685100D01*
X193606057Y-96648814D01*
X193714914Y-96648814D01*
X193787486Y-96685100D01*
X193823771Y-96721385D01*
X193860057Y-96793957D01*
X193860057Y-97084242D01*
X194222914Y-95923100D02*
X194222914Y-96358528D01*
X194222914Y-96140814D02*
X193460914Y-96140814D01*
X193569771Y-96213385D01*
X193642343Y-96285957D01*
X193678629Y-96358528D01*
X193460914Y-95451386D02*
X193460914Y-95378814D01*
X193497200Y-95306243D01*
X193533486Y-95269957D01*
X193606057Y-95233671D01*
X193751200Y-95197386D01*
X193932629Y-95197386D01*
X194077771Y-95233671D01*
X194150343Y-95269957D01*
X194186629Y-95306243D01*
X194222914Y-95378814D01*
X194222914Y-95451386D01*
X194186629Y-95523957D01*
X194150343Y-95560243D01*
X194077771Y-95596528D01*
X193932629Y-95632814D01*
X193751200Y-95632814D01*
X193606057Y-95596528D01*
X193533486Y-95560243D01*
X193497200Y-95523957D01*
X193460914Y-95451386D01*
X193533486Y-94907100D02*
X193497200Y-94870814D01*
X193460914Y-94798243D01*
X193460914Y-94616814D01*
X193497200Y-94544243D01*
X193533486Y-94507957D01*
X193606057Y-94471672D01*
X193678629Y-94471672D01*
X193787486Y-94507957D01*
X194222914Y-94943386D01*
X194222914Y-94471672D01*
X154457414Y-96661514D02*
X154094557Y-96915514D01*
X154457414Y-97096942D02*
X153695414Y-97096942D01*
X153695414Y-96806657D01*
X153731700Y-96734085D01*
X153767986Y-96697800D01*
X153840557Y-96661514D01*
X153949414Y-96661514D01*
X154021986Y-96697800D01*
X154058271Y-96734085D01*
X154094557Y-96806657D01*
X154094557Y-97096942D01*
X154457414Y-95935800D02*
X154457414Y-96371228D01*
X154457414Y-96153514D02*
X153695414Y-96153514D01*
X153804271Y-96226085D01*
X153876843Y-96298657D01*
X153913129Y-96371228D01*
X153695414Y-95464086D02*
X153695414Y-95391514D01*
X153731700Y-95318943D01*
X153767986Y-95282657D01*
X153840557Y-95246371D01*
X153985700Y-95210086D01*
X154167129Y-95210086D01*
X154312271Y-95246371D01*
X154384843Y-95282657D01*
X154421129Y-95318943D01*
X154457414Y-95391514D01*
X154457414Y-95464086D01*
X154421129Y-95536657D01*
X154384843Y-95572943D01*
X154312271Y-95609228D01*
X154167129Y-95645514D01*
X153985700Y-95645514D01*
X153840557Y-95609228D01*
X153767986Y-95572943D01*
X153731700Y-95536657D01*
X153695414Y-95464086D01*
X153695414Y-94956086D02*
X153695414Y-94484372D01*
X153985700Y-94738372D01*
X153985700Y-94629514D01*
X154021986Y-94556943D01*
X154058271Y-94520657D01*
X154130843Y-94484372D01*
X154312271Y-94484372D01*
X154384843Y-94520657D01*
X154421129Y-94556943D01*
X154457414Y-94629514D01*
X154457414Y-94847229D01*
X154421129Y-94919800D01*
X154384843Y-94956086D01*
X159167286Y-92443314D02*
X158913286Y-92080457D01*
X158731858Y-92443314D02*
X158731858Y-91681314D01*
X159022143Y-91681314D01*
X159094715Y-91717600D01*
X159131000Y-91753886D01*
X159167286Y-91826457D01*
X159167286Y-91935314D01*
X159131000Y-92007886D01*
X159094715Y-92044171D01*
X159022143Y-92080457D01*
X158731858Y-92080457D01*
X159893000Y-92443314D02*
X159457572Y-92443314D01*
X159675286Y-92443314D02*
X159675286Y-91681314D01*
X159602715Y-91790171D01*
X159530143Y-91862743D01*
X159457572Y-91899029D01*
X160364714Y-91681314D02*
X160437286Y-91681314D01*
X160509857Y-91717600D01*
X160546143Y-91753886D01*
X160582429Y-91826457D01*
X160618714Y-91971600D01*
X160618714Y-92153029D01*
X160582429Y-92298171D01*
X160546143Y-92370743D01*
X160509857Y-92407029D01*
X160437286Y-92443314D01*
X160364714Y-92443314D01*
X160292143Y-92407029D01*
X160255857Y-92370743D01*
X160219572Y-92298171D01*
X160183286Y-92153029D01*
X160183286Y-91971600D01*
X160219572Y-91826457D01*
X160255857Y-91753886D01*
X160292143Y-91717600D01*
X160364714Y-91681314D01*
X161271857Y-91935314D02*
X161271857Y-92443314D01*
X161090428Y-91645029D02*
X160909000Y-92189314D01*
X161380714Y-92189314D01*
X168158886Y-86664814D02*
X167904886Y-86301957D01*
X167723458Y-86664814D02*
X167723458Y-85902814D01*
X168013743Y-85902814D01*
X168086315Y-85939100D01*
X168122600Y-85975386D01*
X168158886Y-86047957D01*
X168158886Y-86156814D01*
X168122600Y-86229386D01*
X168086315Y-86265671D01*
X168013743Y-86301957D01*
X167723458Y-86301957D01*
X168884600Y-86664814D02*
X168449172Y-86664814D01*
X168666886Y-86664814D02*
X168666886Y-85902814D01*
X168594315Y-86011671D01*
X168521743Y-86084243D01*
X168449172Y-86120529D01*
X169356314Y-85902814D02*
X169428886Y-85902814D01*
X169501457Y-85939100D01*
X169537743Y-85975386D01*
X169574029Y-86047957D01*
X169610314Y-86193100D01*
X169610314Y-86374529D01*
X169574029Y-86519671D01*
X169537743Y-86592243D01*
X169501457Y-86628529D01*
X169428886Y-86664814D01*
X169356314Y-86664814D01*
X169283743Y-86628529D01*
X169247457Y-86592243D01*
X169211172Y-86519671D01*
X169174886Y-86374529D01*
X169174886Y-86193100D01*
X169211172Y-86047957D01*
X169247457Y-85975386D01*
X169283743Y-85939100D01*
X169356314Y-85902814D01*
X170299743Y-85902814D02*
X169936886Y-85902814D01*
X169900600Y-86265671D01*
X169936886Y-86229386D01*
X170009457Y-86193100D01*
X170190886Y-86193100D01*
X170263457Y-86229386D01*
X170299743Y-86265671D01*
X170336028Y-86338243D01*
X170336028Y-86519671D01*
X170299743Y-86592243D01*
X170263457Y-86628529D01*
X170190886Y-86664814D01*
X170009457Y-86664814D01*
X169936886Y-86628529D01*
X169900600Y-86592243D01*
M02*
