G04 #@! TF.FileFunction,Legend,Bot*
%FSLAX46Y46*%
G04 Gerber Fmt 4.6, Leading zero omitted, Abs format (unit mm)*
G04 Created by KiCad (PCBNEW 4.0.0-rc1-stable) date 09/08/2017 17:43:47*
%MOMM*%
G01*
G04 APERTURE LIST*
%ADD10C,0.076200*%
%ADD11C,0.254000*%
%ADD12C,0.127000*%
%ADD13C,0.120000*%
%ADD14C,0.100000*%
%ADD15C,0.150000*%
G04 APERTURE END LIST*
D10*
D11*
X182831619Y-88458524D02*
X182831619Y-87188524D01*
X182529238Y-87188524D01*
X182347810Y-87249000D01*
X182226857Y-87369952D01*
X182166381Y-87490905D01*
X182105905Y-87732810D01*
X182105905Y-87914238D01*
X182166381Y-88156143D01*
X182226857Y-88277095D01*
X182347810Y-88398048D01*
X182529238Y-88458524D01*
X182831619Y-88458524D01*
X181319714Y-87188524D02*
X181077810Y-87188524D01*
X180956857Y-87249000D01*
X180835905Y-87369952D01*
X180775429Y-87611857D01*
X180775429Y-88035190D01*
X180835905Y-88277095D01*
X180956857Y-88398048D01*
X181077810Y-88458524D01*
X181319714Y-88458524D01*
X181440667Y-88398048D01*
X181561619Y-88277095D01*
X181622095Y-88035190D01*
X181622095Y-87611857D01*
X181561619Y-87369952D01*
X181440667Y-87249000D01*
X181319714Y-87188524D01*
X179565905Y-87249000D02*
X179686857Y-87188524D01*
X179868286Y-87188524D01*
X180049714Y-87249000D01*
X180170667Y-87369952D01*
X180231143Y-87490905D01*
X180291619Y-87732810D01*
X180291619Y-87914238D01*
X180231143Y-88156143D01*
X180170667Y-88277095D01*
X180049714Y-88398048D01*
X179868286Y-88458524D01*
X179747334Y-88458524D01*
X179565905Y-88398048D01*
X179505429Y-88337571D01*
X179505429Y-87914238D01*
X179747334Y-87914238D01*
X178961143Y-88458524D02*
X178961143Y-87188524D01*
X178537810Y-88095667D01*
X178114476Y-87188524D01*
X178114476Y-88458524D01*
X177267809Y-87188524D02*
X177146857Y-87188524D01*
X177025905Y-87249000D01*
X176965428Y-87309476D01*
X176904952Y-87430429D01*
X176844476Y-87672333D01*
X176844476Y-87974714D01*
X176904952Y-88216619D01*
X176965428Y-88337571D01*
X177025905Y-88398048D01*
X177146857Y-88458524D01*
X177267809Y-88458524D01*
X177388762Y-88398048D01*
X177449238Y-88337571D01*
X177509714Y-88216619D01*
X177570190Y-87974714D01*
X177570190Y-87672333D01*
X177509714Y-87430429D01*
X177449238Y-87309476D01*
X177388762Y-87249000D01*
X177267809Y-87188524D01*
X176118761Y-87732810D02*
X176239714Y-87672333D01*
X176300190Y-87611857D01*
X176360666Y-87490905D01*
X176360666Y-87430429D01*
X176300190Y-87309476D01*
X176239714Y-87249000D01*
X176118761Y-87188524D01*
X175876857Y-87188524D01*
X175755904Y-87249000D01*
X175695428Y-87309476D01*
X175634952Y-87430429D01*
X175634952Y-87490905D01*
X175695428Y-87611857D01*
X175755904Y-87672333D01*
X175876857Y-87732810D01*
X176118761Y-87732810D01*
X176239714Y-87793286D01*
X176300190Y-87853762D01*
X176360666Y-87974714D01*
X176360666Y-88216619D01*
X176300190Y-88337571D01*
X176239714Y-88398048D01*
X176118761Y-88458524D01*
X175876857Y-88458524D01*
X175755904Y-88398048D01*
X175695428Y-88337571D01*
X175634952Y-88216619D01*
X175634952Y-87974714D01*
X175695428Y-87853762D01*
X175755904Y-87793286D01*
X175876857Y-87732810D01*
X174425428Y-88458524D02*
X175151142Y-88458524D01*
X174788285Y-88458524D02*
X174788285Y-87188524D01*
X174909237Y-87369952D01*
X175030190Y-87490905D01*
X175151142Y-87551381D01*
X172973999Y-88095667D02*
X172369237Y-88095667D01*
X173094952Y-88458524D02*
X172671618Y-87188524D01*
X172248285Y-88458524D01*
X171280666Y-88458524D02*
X171280666Y-87188524D01*
X171280666Y-88398048D02*
X171401619Y-88458524D01*
X171643523Y-88458524D01*
X171764476Y-88398048D01*
X171824952Y-88337571D01*
X171885428Y-88216619D01*
X171885428Y-87853762D01*
X171824952Y-87732810D01*
X171764476Y-87672333D01*
X171643523Y-87611857D01*
X171401619Y-87611857D01*
X171280666Y-87672333D01*
X170131618Y-88458524D02*
X170131618Y-87793286D01*
X170192095Y-87672333D01*
X170313047Y-87611857D01*
X170554952Y-87611857D01*
X170675904Y-87672333D01*
X170131618Y-88398048D02*
X170252571Y-88458524D01*
X170554952Y-88458524D01*
X170675904Y-88398048D01*
X170736380Y-88277095D01*
X170736380Y-88156143D01*
X170675904Y-88035190D01*
X170554952Y-87974714D01*
X170252571Y-87974714D01*
X170131618Y-87914238D01*
X169526856Y-87611857D02*
X169526856Y-88881857D01*
X169526856Y-87672333D02*
X169405904Y-87611857D01*
X169163999Y-87611857D01*
X169043047Y-87672333D01*
X168982570Y-87732810D01*
X168922094Y-87853762D01*
X168922094Y-88216619D01*
X168982570Y-88337571D01*
X169043047Y-88398048D01*
X169163999Y-88458524D01*
X169405904Y-88458524D01*
X169526856Y-88398048D01*
X168559237Y-87611857D02*
X168075427Y-87611857D01*
X168377808Y-87188524D02*
X168377808Y-88277095D01*
X168317332Y-88398048D01*
X168196379Y-88458524D01*
X168075427Y-88458524D01*
X167168285Y-88398048D02*
X167289237Y-88458524D01*
X167531142Y-88458524D01*
X167652094Y-88398048D01*
X167712570Y-88277095D01*
X167712570Y-87793286D01*
X167652094Y-87672333D01*
X167531142Y-87611857D01*
X167289237Y-87611857D01*
X167168285Y-87672333D01*
X167107808Y-87793286D01*
X167107808Y-87914238D01*
X167712570Y-88035190D01*
X166563523Y-88458524D02*
X166563523Y-87611857D01*
X166563523Y-87853762D02*
X166503047Y-87732810D01*
X166442571Y-87672333D01*
X166321618Y-87611857D01*
X166200666Y-87611857D01*
X182892095Y-89341476D02*
X182831619Y-89281000D01*
X182710667Y-89220524D01*
X182408286Y-89220524D01*
X182287333Y-89281000D01*
X182226857Y-89341476D01*
X182166381Y-89462429D01*
X182166381Y-89583381D01*
X182226857Y-89764810D01*
X182952571Y-90490524D01*
X182166381Y-90490524D01*
X181017333Y-90490524D02*
X181622095Y-90490524D01*
X181622095Y-89220524D01*
X180896381Y-90611476D02*
X179928762Y-90611476D01*
X178961143Y-90490524D02*
X179686857Y-90490524D01*
X179324000Y-90490524D02*
X179324000Y-89220524D01*
X179444952Y-89401952D01*
X179565905Y-89522905D01*
X179686857Y-89583381D01*
D12*
X167132000Y-80759905D02*
X167083619Y-80663143D01*
X167083619Y-80518000D01*
X167132000Y-80372858D01*
X167228762Y-80276096D01*
X167325524Y-80227715D01*
X167519048Y-80179334D01*
X167664190Y-80179334D01*
X167857714Y-80227715D01*
X167954476Y-80276096D01*
X168051238Y-80372858D01*
X168099619Y-80518000D01*
X168099619Y-80614762D01*
X168051238Y-80759905D01*
X168002857Y-80808286D01*
X167664190Y-80808286D01*
X167664190Y-80614762D01*
X168099619Y-81243715D02*
X167083619Y-81243715D01*
X168099619Y-81824286D01*
X167083619Y-81824286D01*
X168099619Y-82308096D02*
X167083619Y-82308096D01*
X167083619Y-82550001D01*
X167132000Y-82695143D01*
X167228762Y-82791905D01*
X167325524Y-82840286D01*
X167519048Y-82888667D01*
X167664190Y-82888667D01*
X167857714Y-82840286D01*
X167954476Y-82791905D01*
X168051238Y-82695143D01*
X168099619Y-82550001D01*
X168099619Y-82308096D01*
X170542857Y-81110667D02*
X170591238Y-81062286D01*
X170639619Y-80917143D01*
X170639619Y-80820381D01*
X170591238Y-80675239D01*
X170494476Y-80578477D01*
X170397714Y-80530096D01*
X170204190Y-80481715D01*
X170059048Y-80481715D01*
X169865524Y-80530096D01*
X169768762Y-80578477D01*
X169672000Y-80675239D01*
X169623619Y-80820381D01*
X169623619Y-80917143D01*
X169672000Y-81062286D01*
X169720381Y-81110667D01*
X170591238Y-81497715D02*
X170639619Y-81642858D01*
X170639619Y-81884762D01*
X170591238Y-81981524D01*
X170542857Y-82029905D01*
X170446095Y-82078286D01*
X170349333Y-82078286D01*
X170252571Y-82029905D01*
X170204190Y-81981524D01*
X170155810Y-81884762D01*
X170107429Y-81691239D01*
X170059048Y-81594477D01*
X170010667Y-81546096D01*
X169913905Y-81497715D01*
X169817143Y-81497715D01*
X169720381Y-81546096D01*
X169672000Y-81594477D01*
X169623619Y-81691239D01*
X169623619Y-81933143D01*
X169672000Y-82078286D01*
X170107429Y-82852381D02*
X170155810Y-82997524D01*
X170204190Y-83045905D01*
X170300952Y-83094286D01*
X170446095Y-83094286D01*
X170542857Y-83045905D01*
X170591238Y-82997524D01*
X170639619Y-82900762D01*
X170639619Y-82513715D01*
X169623619Y-82513715D01*
X169623619Y-82852381D01*
X169672000Y-82949143D01*
X169720381Y-82997524D01*
X169817143Y-83045905D01*
X169913905Y-83045905D01*
X170010667Y-82997524D01*
X170059048Y-82949143D01*
X170107429Y-82852381D01*
X170107429Y-82513715D01*
X173179619Y-81618667D02*
X172695810Y-81280001D01*
X173179619Y-81038096D02*
X172163619Y-81038096D01*
X172163619Y-81425143D01*
X172212000Y-81521905D01*
X172260381Y-81570286D01*
X172357143Y-81618667D01*
X172502286Y-81618667D01*
X172599048Y-81570286D01*
X172647429Y-81521905D01*
X172695810Y-81425143D01*
X172695810Y-81038096D01*
X173131238Y-82005715D02*
X173179619Y-82150858D01*
X173179619Y-82392762D01*
X173131238Y-82489524D01*
X173082857Y-82537905D01*
X172986095Y-82586286D01*
X172889333Y-82586286D01*
X172792571Y-82537905D01*
X172744190Y-82489524D01*
X172695810Y-82392762D01*
X172647429Y-82199239D01*
X172599048Y-82102477D01*
X172550667Y-82054096D01*
X172453905Y-82005715D01*
X172357143Y-82005715D01*
X172260381Y-82054096D01*
X172212000Y-82102477D01*
X172163619Y-82199239D01*
X172163619Y-82441143D01*
X172212000Y-82586286D01*
X175622857Y-81183238D02*
X175671238Y-81134857D01*
X175719619Y-80989714D01*
X175719619Y-80892952D01*
X175671238Y-80747810D01*
X175574476Y-80651048D01*
X175477714Y-80602667D01*
X175284190Y-80554286D01*
X175139048Y-80554286D01*
X174945524Y-80602667D01*
X174848762Y-80651048D01*
X174752000Y-80747810D01*
X174703619Y-80892952D01*
X174703619Y-80989714D01*
X174752000Y-81134857D01*
X174800381Y-81183238D01*
X175719619Y-82102476D02*
X175719619Y-81618667D01*
X174703619Y-81618667D01*
X175719619Y-82441143D02*
X174703619Y-82441143D01*
X175719619Y-83021714D02*
X175139048Y-82586286D01*
X174703619Y-83021714D02*
X175284190Y-82441143D01*
X178259619Y-80445429D02*
X177243619Y-80445429D01*
X177969333Y-80784095D01*
X177243619Y-81122762D01*
X178259619Y-81122762D01*
X177243619Y-81800096D02*
X177243619Y-81993619D01*
X177292000Y-82090381D01*
X177388762Y-82187143D01*
X177582286Y-82235524D01*
X177920952Y-82235524D01*
X178114476Y-82187143D01*
X178211238Y-82090381D01*
X178259619Y-81993619D01*
X178259619Y-81800096D01*
X178211238Y-81703334D01*
X178114476Y-81606572D01*
X177920952Y-81558191D01*
X177582286Y-81558191D01*
X177388762Y-81606572D01*
X177292000Y-81703334D01*
X177243619Y-81800096D01*
X178211238Y-82622572D02*
X178259619Y-82767715D01*
X178259619Y-83009619D01*
X178211238Y-83106381D01*
X178162857Y-83154762D01*
X178066095Y-83203143D01*
X177969333Y-83203143D01*
X177872571Y-83154762D01*
X177824190Y-83106381D01*
X177775810Y-83009619D01*
X177727429Y-82816096D01*
X177679048Y-82719334D01*
X177630667Y-82670953D01*
X177533905Y-82622572D01*
X177437143Y-82622572D01*
X177340381Y-82670953D01*
X177292000Y-82719334D01*
X177243619Y-82816096D01*
X177243619Y-83058000D01*
X177292000Y-83203143D01*
X178259619Y-83638572D02*
X177243619Y-83638572D01*
X179783619Y-80530096D02*
X179783619Y-81159048D01*
X180170667Y-80820382D01*
X180170667Y-80965524D01*
X180219048Y-81062286D01*
X180267429Y-81110667D01*
X180364190Y-81159048D01*
X180606095Y-81159048D01*
X180702857Y-81110667D01*
X180751238Y-81062286D01*
X180799619Y-80965524D01*
X180799619Y-80675239D01*
X180751238Y-80578477D01*
X180702857Y-80530096D01*
X179783619Y-81449334D02*
X180799619Y-81788001D01*
X179783619Y-82126667D01*
X179783619Y-82368572D02*
X179783619Y-82997524D01*
X180170667Y-82658858D01*
X180170667Y-82804000D01*
X180219048Y-82900762D01*
X180267429Y-82949143D01*
X180364190Y-82997524D01*
X180606095Y-82997524D01*
X180702857Y-82949143D01*
X180751238Y-82900762D01*
X180799619Y-82804000D01*
X180799619Y-82513715D01*
X180751238Y-82416953D01*
X180702857Y-82368572D01*
D13*
X179070000Y-79816000D02*
X166310000Y-79816000D01*
X166310000Y-79816000D02*
X166310000Y-77156000D01*
X166310000Y-77156000D02*
X179070000Y-77156000D01*
X179070000Y-77156000D02*
X179070000Y-79816000D01*
X180340000Y-79816000D02*
X181670000Y-79816000D01*
X181670000Y-79816000D02*
X181670000Y-78486000D01*
D14*
G36*
X183893622Y-88156418D02*
X183895762Y-88750076D01*
X183896000Y-88934945D01*
X183897968Y-89575217D01*
X183904635Y-90065453D01*
X183917144Y-90424914D01*
X183936639Y-90672861D01*
X183964265Y-90828554D01*
X184001165Y-90911252D01*
X184014169Y-90924670D01*
X184181404Y-90996142D01*
X184319333Y-91026474D01*
X184319333Y-90572748D01*
X184319333Y-88979371D01*
X184323389Y-88458909D01*
X184334750Y-88009332D01*
X184352205Y-87655665D01*
X184374547Y-87422937D01*
X184398725Y-87336926D01*
X184510173Y-87306092D01*
X184752448Y-87259619D01*
X185088507Y-87204095D01*
X185435892Y-87152485D01*
X186064360Y-87090536D01*
X186791949Y-87062245D01*
X187561863Y-87066497D01*
X188317308Y-87102179D01*
X189001486Y-87168176D01*
X189399333Y-87230237D01*
X189949667Y-87334859D01*
X189972634Y-88956143D01*
X189995601Y-90577426D01*
X189422301Y-90668198D01*
X189086387Y-90720928D01*
X188781576Y-90768002D01*
X188595000Y-90796091D01*
X188354831Y-90813739D01*
X187983475Y-90820161D01*
X187518617Y-90816617D01*
X186997943Y-90804364D01*
X186459138Y-90784660D01*
X185939888Y-90758761D01*
X185477878Y-90727926D01*
X185110794Y-90693412D01*
X184975500Y-90675306D01*
X184319333Y-90572748D01*
X184319333Y-91026474D01*
X184490725Y-91064166D01*
X184914887Y-91126037D01*
X185426644Y-91179051D01*
X185998751Y-91220504D01*
X186603961Y-91247692D01*
X187215031Y-91257910D01*
X187367333Y-91257483D01*
X187852331Y-91252260D01*
X188291111Y-91244201D01*
X188649846Y-91234183D01*
X188894708Y-91223080D01*
X188976000Y-91215816D01*
X189482572Y-91132236D01*
X189890361Y-91049708D01*
X190175538Y-90973632D01*
X190309500Y-90913674D01*
X190346535Y-90835849D01*
X190374694Y-90660790D01*
X190394802Y-90373075D01*
X190407683Y-89957284D01*
X190414163Y-89397996D01*
X190415333Y-88934945D01*
X190414382Y-88318599D01*
X190410423Y-87850164D01*
X190401800Y-87508224D01*
X190386856Y-87271362D01*
X190363934Y-87118160D01*
X190331378Y-87027203D01*
X190287532Y-86977073D01*
X190262688Y-86961597D01*
X189996800Y-86868179D01*
X189591239Y-86788175D01*
X189075227Y-86722830D01*
X188477985Y-86673389D01*
X187828736Y-86641099D01*
X187156702Y-86627204D01*
X186491104Y-86632950D01*
X185861166Y-86659582D01*
X185296109Y-86708346D01*
X185057807Y-86739783D01*
X184692342Y-86791423D01*
X184412238Y-86836352D01*
X184206234Y-86895847D01*
X184063071Y-86991182D01*
X183971488Y-87143632D01*
X183920225Y-87374471D01*
X183898023Y-87704975D01*
X183893622Y-88156418D01*
X183893622Y-88156418D01*
X183893622Y-88156418D01*
G37*
X183893622Y-88156418D02*
X183895762Y-88750076D01*
X183896000Y-88934945D01*
X183897968Y-89575217D01*
X183904635Y-90065453D01*
X183917144Y-90424914D01*
X183936639Y-90672861D01*
X183964265Y-90828554D01*
X184001165Y-90911252D01*
X184014169Y-90924670D01*
X184181404Y-90996142D01*
X184319333Y-91026474D01*
X184319333Y-90572748D01*
X184319333Y-88979371D01*
X184323389Y-88458909D01*
X184334750Y-88009332D01*
X184352205Y-87655665D01*
X184374547Y-87422937D01*
X184398725Y-87336926D01*
X184510173Y-87306092D01*
X184752448Y-87259619D01*
X185088507Y-87204095D01*
X185435892Y-87152485D01*
X186064360Y-87090536D01*
X186791949Y-87062245D01*
X187561863Y-87066497D01*
X188317308Y-87102179D01*
X189001486Y-87168176D01*
X189399333Y-87230237D01*
X189949667Y-87334859D01*
X189972634Y-88956143D01*
X189995601Y-90577426D01*
X189422301Y-90668198D01*
X189086387Y-90720928D01*
X188781576Y-90768002D01*
X188595000Y-90796091D01*
X188354831Y-90813739D01*
X187983475Y-90820161D01*
X187518617Y-90816617D01*
X186997943Y-90804364D01*
X186459138Y-90784660D01*
X185939888Y-90758761D01*
X185477878Y-90727926D01*
X185110794Y-90693412D01*
X184975500Y-90675306D01*
X184319333Y-90572748D01*
X184319333Y-91026474D01*
X184490725Y-91064166D01*
X184914887Y-91126037D01*
X185426644Y-91179051D01*
X185998751Y-91220504D01*
X186603961Y-91247692D01*
X187215031Y-91257910D01*
X187367333Y-91257483D01*
X187852331Y-91252260D01*
X188291111Y-91244201D01*
X188649846Y-91234183D01*
X188894708Y-91223080D01*
X188976000Y-91215816D01*
X189482572Y-91132236D01*
X189890361Y-91049708D01*
X190175538Y-90973632D01*
X190309500Y-90913674D01*
X190346535Y-90835849D01*
X190374694Y-90660790D01*
X190394802Y-90373075D01*
X190407683Y-89957284D01*
X190414163Y-89397996D01*
X190415333Y-88934945D01*
X190414382Y-88318599D01*
X190410423Y-87850164D01*
X190401800Y-87508224D01*
X190386856Y-87271362D01*
X190363934Y-87118160D01*
X190331378Y-87027203D01*
X190287532Y-86977073D01*
X190262688Y-86961597D01*
X189996800Y-86868179D01*
X189591239Y-86788175D01*
X189075227Y-86722830D01*
X188477985Y-86673389D01*
X187828736Y-86641099D01*
X187156702Y-86627204D01*
X186491104Y-86632950D01*
X185861166Y-86659582D01*
X185296109Y-86708346D01*
X185057807Y-86739783D01*
X184692342Y-86791423D01*
X184412238Y-86836352D01*
X184206234Y-86895847D01*
X184063071Y-86991182D01*
X183971488Y-87143632D01*
X183920225Y-87374471D01*
X183898023Y-87704975D01*
X183893622Y-88156418D01*
X183893622Y-88156418D01*
G36*
X186855330Y-89301396D02*
X186902811Y-89684950D01*
X187067553Y-90034481D01*
X187341839Y-90303811D01*
X187483097Y-90377168D01*
X187671433Y-90427105D01*
X187942285Y-90458878D01*
X188331089Y-90477742D01*
X188552667Y-90483393D01*
X188949061Y-90487691D01*
X189287353Y-90483729D01*
X189529130Y-90472450D01*
X189632167Y-90456953D01*
X189721029Y-90339885D01*
X189729116Y-90161760D01*
X189661306Y-90007596D01*
X189604075Y-89967391D01*
X189465273Y-89945378D01*
X189201201Y-89928077D01*
X188855907Y-89917813D01*
X188630409Y-89916000D01*
X188148865Y-89900429D01*
X187812329Y-89846481D01*
X187598728Y-89743299D01*
X187485987Y-89580028D01*
X187452033Y-89345811D01*
X187452000Y-89336455D01*
X187518498Y-89072492D01*
X187723142Y-88885644D01*
X188073658Y-88770320D01*
X188275076Y-88740904D01*
X188550639Y-88705063D01*
X188697307Y-88659056D01*
X188755127Y-88581255D01*
X188764333Y-88476666D01*
X188753369Y-88362268D01*
X188695036Y-88295955D01*
X188551176Y-88261166D01*
X188283631Y-88241341D01*
X188214000Y-88237817D01*
X187797720Y-88241844D01*
X187498020Y-88306245D01*
X187403721Y-88348786D01*
X187107058Y-88593094D01*
X186923837Y-88924037D01*
X186855330Y-89301396D01*
X186855330Y-89301396D01*
X186855330Y-89301396D01*
G37*
X186855330Y-89301396D02*
X186902811Y-89684950D01*
X187067553Y-90034481D01*
X187341839Y-90303811D01*
X187483097Y-90377168D01*
X187671433Y-90427105D01*
X187942285Y-90458878D01*
X188331089Y-90477742D01*
X188552667Y-90483393D01*
X188949061Y-90487691D01*
X189287353Y-90483729D01*
X189529130Y-90472450D01*
X189632167Y-90456953D01*
X189721029Y-90339885D01*
X189729116Y-90161760D01*
X189661306Y-90007596D01*
X189604075Y-89967391D01*
X189465273Y-89945378D01*
X189201201Y-89928077D01*
X188855907Y-89917813D01*
X188630409Y-89916000D01*
X188148865Y-89900429D01*
X187812329Y-89846481D01*
X187598728Y-89743299D01*
X187485987Y-89580028D01*
X187452033Y-89345811D01*
X187452000Y-89336455D01*
X187518498Y-89072492D01*
X187723142Y-88885644D01*
X188073658Y-88770320D01*
X188275076Y-88740904D01*
X188550639Y-88705063D01*
X188697307Y-88659056D01*
X188755127Y-88581255D01*
X188764333Y-88476666D01*
X188753369Y-88362268D01*
X188695036Y-88295955D01*
X188551176Y-88261166D01*
X188283631Y-88241341D01*
X188214000Y-88237817D01*
X187797720Y-88241844D01*
X187498020Y-88306245D01*
X187403721Y-88348786D01*
X187107058Y-88593094D01*
X186923837Y-88924037D01*
X186855330Y-89301396D01*
X186855330Y-89301396D01*
G36*
X184658932Y-89392399D02*
X184678862Y-89915157D01*
X184739661Y-90278069D01*
X184840706Y-90479846D01*
X184981376Y-90519203D01*
X185149067Y-90407066D01*
X185202318Y-90261488D01*
X185236314Y-89954882D01*
X185250324Y-89494537D01*
X185250667Y-89395050D01*
X185259236Y-88997735D01*
X185282370Y-88645407D01*
X185316210Y-88383877D01*
X185344759Y-88278124D01*
X185488325Y-88108654D01*
X185722672Y-87961565D01*
X185768092Y-87942284D01*
X185989162Y-87831786D01*
X186083993Y-87705972D01*
X186097333Y-87600685D01*
X186033361Y-87424243D01*
X185865431Y-87340667D01*
X185629525Y-87347481D01*
X185361626Y-87442205D01*
X185097716Y-87622361D01*
X185043722Y-87673255D01*
X184892440Y-87849985D01*
X184785784Y-88049797D01*
X184716483Y-88305186D01*
X184677263Y-88648649D01*
X184660851Y-89112682D01*
X184658932Y-89392399D01*
X184658932Y-89392399D01*
X184658932Y-89392399D01*
G37*
X184658932Y-89392399D02*
X184678862Y-89915157D01*
X184739661Y-90278069D01*
X184840706Y-90479846D01*
X184981376Y-90519203D01*
X185149067Y-90407066D01*
X185202318Y-90261488D01*
X185236314Y-89954882D01*
X185250324Y-89494537D01*
X185250667Y-89395050D01*
X185259236Y-88997735D01*
X185282370Y-88645407D01*
X185316210Y-88383877D01*
X185344759Y-88278124D01*
X185488325Y-88108654D01*
X185722672Y-87961565D01*
X185768092Y-87942284D01*
X185989162Y-87831786D01*
X186083993Y-87705972D01*
X186097333Y-87600685D01*
X186033361Y-87424243D01*
X185865431Y-87340667D01*
X185629525Y-87347481D01*
X185361626Y-87442205D01*
X185097716Y-87622361D01*
X185043722Y-87673255D01*
X184892440Y-87849985D01*
X184785784Y-88049797D01*
X184716483Y-88305186D01*
X184677263Y-88648649D01*
X184660851Y-89112682D01*
X184658932Y-89392399D01*
X184658932Y-89392399D01*
G36*
X186002801Y-89026520D02*
X186026826Y-89323519D01*
X186078783Y-89533327D01*
X186139667Y-89607951D01*
X186331695Y-89638023D01*
X186452143Y-89541621D01*
X186510889Y-89304874D01*
X186520667Y-89072909D01*
X186555746Y-88577412D01*
X186663015Y-88227937D01*
X186845521Y-88015931D01*
X186909865Y-87980336D01*
X187087306Y-87937401D01*
X187382414Y-87904319D01*
X187743592Y-87886058D01*
X187910233Y-87884000D01*
X188301858Y-87889548D01*
X188566654Y-87911080D01*
X188746902Y-87955927D01*
X188884886Y-88031422D01*
X188922249Y-88059478D01*
X189101246Y-88288739D01*
X189138798Y-88551950D01*
X189031614Y-88798950D01*
X188974688Y-88858854D01*
X188751794Y-88973454D01*
X188402358Y-89044508D01*
X188318521Y-89052644D01*
X187954152Y-89109077D01*
X187753352Y-89206606D01*
X187715192Y-89346155D01*
X187838743Y-89528647D01*
X187839048Y-89528952D01*
X188036147Y-89626949D01*
X188358777Y-89644715D01*
X188818879Y-89582860D01*
X188835249Y-89579719D01*
X189214998Y-89433080D01*
X189493444Y-89181501D01*
X189666504Y-88858686D01*
X189730099Y-88498335D01*
X189680146Y-88134151D01*
X189512565Y-87799837D01*
X189223274Y-87529094D01*
X189092472Y-87455569D01*
X188909140Y-87376187D01*
X188725711Y-87325824D01*
X188500663Y-87299875D01*
X188192472Y-87293734D01*
X187759616Y-87302796D01*
X187724509Y-87303852D01*
X187231514Y-87326266D01*
X186873565Y-87366823D01*
X186616477Y-87437716D01*
X186426068Y-87551137D01*
X186268155Y-87719277D01*
X186170375Y-87858171D01*
X186090495Y-88058154D01*
X186035418Y-88349259D01*
X186005926Y-88686907D01*
X186002801Y-89026520D01*
X186002801Y-89026520D01*
X186002801Y-89026520D01*
G37*
X186002801Y-89026520D02*
X186026826Y-89323519D01*
X186078783Y-89533327D01*
X186139667Y-89607951D01*
X186331695Y-89638023D01*
X186452143Y-89541621D01*
X186510889Y-89304874D01*
X186520667Y-89072909D01*
X186555746Y-88577412D01*
X186663015Y-88227937D01*
X186845521Y-88015931D01*
X186909865Y-87980336D01*
X187087306Y-87937401D01*
X187382414Y-87904319D01*
X187743592Y-87886058D01*
X187910233Y-87884000D01*
X188301858Y-87889548D01*
X188566654Y-87911080D01*
X188746902Y-87955927D01*
X188884886Y-88031422D01*
X188922249Y-88059478D01*
X189101246Y-88288739D01*
X189138798Y-88551950D01*
X189031614Y-88798950D01*
X188974688Y-88858854D01*
X188751794Y-88973454D01*
X188402358Y-89044508D01*
X188318521Y-89052644D01*
X187954152Y-89109077D01*
X187753352Y-89206606D01*
X187715192Y-89346155D01*
X187838743Y-89528647D01*
X187839048Y-89528952D01*
X188036147Y-89626949D01*
X188358777Y-89644715D01*
X188818879Y-89582860D01*
X188835249Y-89579719D01*
X189214998Y-89433080D01*
X189493444Y-89181501D01*
X189666504Y-88858686D01*
X189730099Y-88498335D01*
X189680146Y-88134151D01*
X189512565Y-87799837D01*
X189223274Y-87529094D01*
X189092472Y-87455569D01*
X188909140Y-87376187D01*
X188725711Y-87325824D01*
X188500663Y-87299875D01*
X188192472Y-87293734D01*
X187759616Y-87302796D01*
X187724509Y-87303852D01*
X187231514Y-87326266D01*
X186873565Y-87366823D01*
X186616477Y-87437716D01*
X186426068Y-87551137D01*
X186268155Y-87719277D01*
X186170375Y-87858171D01*
X186090495Y-88058154D01*
X186035418Y-88349259D01*
X186005926Y-88686907D01*
X186002801Y-89026520D01*
X186002801Y-89026520D01*
D15*
X183122381Y-77747905D02*
X182122381Y-77747905D01*
X182122381Y-78128858D01*
X182170000Y-78224096D01*
X182217619Y-78271715D01*
X182312857Y-78319334D01*
X182455714Y-78319334D01*
X182550952Y-78271715D01*
X182598571Y-78224096D01*
X182646190Y-78128858D01*
X182646190Y-77747905D01*
X183122381Y-79271715D02*
X183122381Y-78700286D01*
X183122381Y-78986000D02*
X182122381Y-78986000D01*
X182265238Y-78890762D01*
X182360476Y-78795524D01*
X182408095Y-78700286D01*
M02*
